<svg width="118" height="77" viewBox="0 0 118 77" fill="none" xmlns="http://www.w3.org/2000/svg"><g clip-path="url(#clip0_3251_9620)"><g clip-path="url(#clip1_3251_9620)"><mask id="mask0_3251_9620" maskUnits="userSpaceOnUse" x="2" y="6" width="47" height="47" style="mask-type: luminance;"><path d="M41.3923 6.00012L2 12.946L8.94593 52.3384L48.3382 45.3924L41.3923 6.00012Z" fill="white"></path></mask><g mask="url(#mask0_3251_9620)"><path d="M37.229 44.913L19.219 48.0887C18.794 48.1636 18.3887 47.8798 18.3137 47.4548L14.4368 25.4675C14.3509 24.9802 15.3937 23.6269 15.809 23.5077C17.4777 23.1843 19.0391 22.9077 19.938 22.4752L27.8079 21.0875C28.9726 21.0496 30.3752 20.9487 32.0263 20.6482C32.6044 20.6071 33.9079 21.5775 33.986 22.0204L37.8629 44.0077C37.9379 44.4328 37.6541 44.8381 37.229 44.913Z" fill="url(#paint0_linear_3251_9620)"></path><path d="M37.229 44.913L19.219 48.0887C18.794 48.1636 18.3887 47.8798 18.3137 47.4548L14.4368 25.4675C14.3509 24.9802 15.3937 23.6269 15.809 23.5077C17.4777 23.1843 19.0391 22.9077 19.938 22.4752L27.8079 21.0875C28.9726 21.0496 30.3752 20.9487 32.0263 20.6482C32.6044 20.6071 33.9079 21.5775 33.986 22.0204L37.8629 44.0077C37.9379 44.4328 37.6541 44.8381 37.229 44.913Z" stroke="#88B5A9" stroke-width="0.46875" stroke-linecap="round" stroke-linejoin="round"></path><path d="M27.7782 44.6613C32.997 43.7411 36.4035 44.3584 36.7214 44.0892C37.0393 43.82 35.1726 39.2773 34.0999 33.1941C33.0273 27.1108 33.106 23.6714 32.4312 23.0825C31.7564 22.4935 29.2796 22.9441 27.3489 23.0994C25.7071 23.2314 25.3467 22.6645 23.9432 22.912C22.5397 23.1595 22.3949 23.8155 20.807 24.2529C18.9396 24.7673 16.4581 25.191 16.0254 25.9753C15.5928 26.7595 16.8431 29.9645 17.9157 36.0478C18.9883 42.131 18.7879 47.0382 19.1787 47.1825C19.5695 47.3267 22.5594 45.5816 27.7782 44.6613Z" fill="url(#paint1_linear_3251_9620)"></path><path d="M27.7884 44.6596C33.0071 43.7394 36.4136 44.3568 36.7315 44.0875C37.0495 43.8183 35.1827 39.2757 34.1101 33.1924C33.3889 29.1021 33.1813 26.1686 32.9221 24.5317C31.6609 25.2067 30.437 25.007 24.5074 26.0526C18.5779 27.0981 17.4022 28.0045 16.1021 27.6173C16.4285 29.2549 17.2163 32.0221 17.9259 36.0461C18.9985 42.1294 18.798 47.0365 19.1889 47.1808C19.5797 47.325 22.5696 45.5798 27.7884 44.6596Z" fill="url(#paint2_linear_3251_9620)"></path><g opacity="0.48"><path d="M16.0916 27.6191L16.9362 28.0926C23.135 31.6876 32.1922 27.8468 32.8677 25.1934C32.8672 25.0255 32.8797 24.885 32.9116 24.5335C24.6954 24.9447 21.5185 27.0253 16.0916 27.6191Z" fill="url(#paint3_linear_3251_9620)"></path></g><path d="M27.5833 43.5629C32.422 42.7097 35.5846 43.306 35.8786 43.0522C36.1726 42.7984 34.425 38.4909 33.4088 32.7274C32.7255 28.8522 33.1131 26.7445 32.8669 25.1937C31.4654 25.5736 29.9137 26.2463 24.4265 26.9057C18.8838 27.5717 18.2328 28.0271 16.9355 28.093C17.244 29.6446 17.7309 31.5608 18.4031 35.3733C19.4194 41.1368 19.2505 45.7822 19.6135 45.9201C19.9766 46.0581 22.7446 44.4161 27.5833 43.5629Z" fill="url(#paint4_linear_3251_9620)"></path><path d="M16.1411 27.8577C15.6874 27.9148 16.4315 31.6889 17.0138 35.2974C17.382 37.5799 18.0686 42.7727 18.0782 41.8375C18.0878 40.9022 17.6469 36.6124 17.3875 35.125C16.4985 30.0283 16.4692 29.2171 16.7455 30.4664C16.7333 30.0301 16.2478 28.0689 16.1411 27.8577Z" fill="url(#paint5_linear_3251_9620)"></path><path d="M17.8285 36.2025C17.4917 35.1067 18.1631 38.413 18.3417 42.8801C18.4322 45.1455 18.9331 46.9344 19.1099 47.0787C19.5077 47.4032 18.7676 43.1589 18.7676 43.1589C18.7676 43.1589 18.1653 37.2983 17.8285 36.2025Z" fill="url(#paint6_linear_3251_9620)"></path><path d="M16.6765 24.7895C16.4608 25.0727 15.4393 26.0162 15.4229 26.2728C15.4065 26.5294 16.7022 33.4158 16.7022 33.4158C16.7022 33.4158 16.6598 31.6593 16.5597 30.4779C16.4596 29.2965 15.8728 26.5689 15.9433 26.1709C16.0138 25.7728 16.6765 24.7895 16.6765 24.7895Z" fill="url(#paint7_linear_3251_9620)"></path><path d="M31.6009 22.6166C31.8477 22.5369 32.9935 22.87 33.0967 23.1056C33.1999 23.3411 35.1206 36.3766 34.4162 33.4769C33.7117 30.5772 33.1403 23.6458 32.9379 23.2959C32.7355 22.9459 32.1822 22.7392 31.6009 22.6166Z" fill="url(#paint8_linear_3251_9620)"></path><path d="M36.8308 43.9793C36.4325 41.5439 34.6716 31.9098 34.2922 29.582C34.4504 34.1745 36.6547 43.2702 34.7243 36.2842C34.9539 39.4504 36.7628 43.8986 36.7628 43.8986" fill="url(#paint9_linear_3251_9620)"></path><path d="M17.5381 24.6376C21.7226 24.2249 21.7829 23.4122 22.8865 23.0647C23.947 22.7308 24.6886 22.681 25.2468 22.7397C24.3718 22.3359 22.9014 22.7829 22.2177 23.0311C21.534 23.2793 20.6629 24.0866 17.5381 24.6376Z" fill="url(#paint10_linear_3251_9620)"></path><path d="M24.9008 22.6113C28.9367 22.5458 30.6625 21.8453 32.4814 22.103C31.0413 21.6923 27.8397 22.2594 24.9008 22.6113Z" fill="url(#paint11_linear_3251_9620)"></path><path d="M30.1015 39.0029L21.0277 40.6029C20.8587 40.6327 20.6974 40.5198 20.6676 40.3507L19.0677 31.277C19.0378 31.1079 19.1508 30.9467 19.3198 30.9168L28.3936 29.3169C28.5626 29.2871 28.7239 29.4 28.7537 29.5691L30.3536 38.6428C30.3835 38.8119 30.2705 38.9731 30.1015 39.0029Z" fill="url(#paint12_linear_3251_9620)"></path><path d="M20.852 47.6567C25.5891 45.0283 31.1379 44.3449 35.4984 44.7875C29.7359 45.4554 26.2483 46.076 20.852 47.6567Z" fill="url(#paint13_linear_3251_9620)"></path><path d="M19.0329 23.9517C18.3987 24.0837 16.6251 24.4928 16.3744 24.5957C16.1238 24.6985 15.4381 25.8705 15.3954 26.1611C15.3526 26.4517 17.9218 42.8483 17.9218 42.8483C17.9218 42.8483 17.0679 33.7518 16.5499 31.5428C16.0319 29.3339 15.5074 26.5148 15.6548 26.1558C15.8022 25.7968 16.351 24.7416 16.5296 24.6997C17.6 24.4483 18.5331 24.2137 19.0329 23.9517Z" fill="white"></path><path d="M19.6808 23.1647C21.3146 22.6179 25.7619 21.5523 27.643 21.7904C24.9763 22.2815 23.2377 22.6291 22.3582 22.9139C21.4788 23.1986 19.6808 23.1647 19.6808 23.1647Z" fill="white"></path><path d="M29.655 22.3692C30.3107 22.2223 32.1365 22.1479 32.5527 22.2363C32.9689 22.3246 33.4842 22.5673 33.5305 22.7714C33.5768 22.9755 34.9874 32.2482 34.9874 32.2482C34.9874 32.2482 33.3048 23.2862 33.0827 23.0222C32.8605 22.7582 32.116 22.4396 29.655 22.3692Z" fill="white"></path><path d="M14.6566 25.318C14.9481 24.4859 15.7287 23.7662 15.8658 23.7283C17.096 23.5096 18.8214 23.2256 19.9902 22.686C21.4088 22.4359 26.2837 21.6174 27.8635 21.2978C29.1132 21.3342 31.8286 20.9574 32.1078 20.8829C32.7749 21.0276 33.7324 21.8552 33.7623 22.0246C33.7921 22.1939 33.8304 22.1983 33.8304 22.1983C32.9794 21.6024 32.3093 21.068 32.0176 21.0842C31.7259 21.1003 16.4541 23.6287 16.1465 23.8063C15.8388 23.9838 14.9019 25.3509 14.7938 25.8837C14.734 25.5449 14.6566 25.318 14.6566 25.318Z" fill="url(#paint14_radial_3251_9620)"></path><path d="M34.2415 23.4694L37.8629 44.0077C37.9379 44.4328 37.6541 44.8381 37.229 44.9131L19.219 48.0887C18.794 48.1637 18.3887 47.8798 18.3137 47.4548" stroke="#6C9388" stroke-width="0.46875" stroke-linecap="round" stroke-linejoin="round"></path><path d="M25.6007 16.9481L20.5969 17.8304" stroke="#D6AB45" stroke-width="0.46875" stroke-linecap="round" stroke-linejoin="round"></path><path d="M23.9181 13.4239L20.9746 13.9429" stroke="#D6AB45" stroke-width="0.46875" stroke-linecap="round" stroke-linejoin="round"></path><path d="M24.5715 17.1298L21.628 17.6488L20.9746 13.943L23.9181 13.424L24.5715 17.1298Z" fill="url(#paint15_linear_3251_9620)"></path><path d="M24.5715 17.1298L21.628 17.6488L20.9746 13.943L23.9181 13.424L24.5715 17.1298Z" stroke="#D6AB45" stroke-width="0.46875" stroke-linecap="round" stroke-linejoin="round"></path><path d="M23.382 15.0234C23.4479 15.3975 23.1981 15.7544 22.8239 15.8203C22.4498 15.8863 22.0929 15.6364 22.0269 15.2623C21.961 14.8881 22.2108 14.5313 22.585 14.4653C22.9591 14.3993 23.316 14.6492 23.382 15.0234Z" fill="#E6E6E6"></path><path d="M23.382 15.0234C23.4479 15.3975 23.1981 15.7544 22.8239 15.8203C22.4498 15.8863 22.0929 15.6364 22.0269 15.2623C21.961 14.8881 22.2108 14.5313 22.585 14.4653C22.9591 14.3993 23.316 14.6492 23.382 15.0234Z" stroke="#B3B3B3" stroke-width="0.234375" stroke-linecap="round" stroke-linejoin="round"></path><path d="M22.6876 15.0927L22.702 15.1741" stroke="#B3B3B3" stroke-width="0.234375" stroke-linecap="round" stroke-linejoin="round"></path><path d="M26.3751 21.3404L21.3714 22.2227L20.5969 17.8304L25.6007 16.9481L26.3751 21.3404Z" fill="url(#paint16_linear_3251_9620)"></path><path d="M26.3751 21.3404L21.3714 22.2227L20.5969 17.8304L25.6007 16.9481L26.3751 21.3404Z" stroke="#D6AB45" stroke-width="0.46875" stroke-linecap="round" stroke-linejoin="round"></path><path d="M36.6382 44.4355C30.6571 44.5784 24.9348 45.6029 19.4579 47.4649C19.1728 47.5151 18.9009 47.3249 18.8507 47.0397L15.4619 25.9656C15.416 25.7055 16.1639 24.5256 16.4174 24.4514C21.8878 22.8498 26.7787 21.7909 32.7894 22.2518C33.0542 22.272 33.2891 22.4232 33.3353 22.6847L37.0634 43.8283C37.1137 44.1134 36.9233 44.3852 36.6382 44.4355Z" fill="url(#paint17_linear_3251_9620)"></path><path d="M31.3948 36.1677L21.7088 37.8756L20.0009 28.1896L29.6869 26.4817L31.3948 36.1677Z" fill="white"></path><path d="M23.2187 31.1428L22.9176 29.4348L23.0766 29.4068L24.3976 30.7527L24.4806 30.738L24.1784 29.0243" stroke="black" stroke-width="0.325312" stroke-miterlimit="10"></path><path d="M27.3791 28.6061L26.3133 28.7941L26.3333 29.59L26.4212 29.6084C26.4212 29.6084 26.5092 29.329 26.8852 29.2627C27.2612 29.1964 27.5985 29.4713 27.5631 29.8419C27.5224 30.268 26.8888 30.5722 26.3643 30.1603" stroke="black" stroke-width="0.325312" stroke-miterlimit="10"></path><path d="M25.4402 29.1742C25.509 29.5645 24.9154 29.6792 24.8449 29.2791C24.776 28.8888 25.3697 28.7741 25.4402 29.1742Z" stroke="black" stroke-width="0.162656" stroke-miterlimit="10"></path><path d="M25.4639 31.9038C25.5056 31.7473 25.7239 31.7112 25.8148 31.8434L26.4345 32.6851L27.402 32.6343C27.5737 32.6199 27.6881 32.8325 27.5852 32.9699L27.0054 33.791L27.289 34.7144C27.3485 34.8908 27.1677 35.0693 26.9938 35.0055L26.14 34.7149L25.4084 35.2721C25.278 35.3774 25.0725 35.2749 25.0716 35.1087C25.0575 34.8003 25.0022 34.3702 25.3036 34.1735L26.0337 33.6194C26.0733 33.5911 26.0393 33.5247 25.9933 33.5411L25.0362 33.8558C24.7646 33.9719 24.447 33.721 24.221 33.6013C24.053 33.5133 24.0794 33.2448 24.262 33.1929L25.1654 32.9101L25.4639 31.9038Z" fill="black"></path><path d="M27.8825 21.4119L20.213 22.7642" stroke="#89A8A0" stroke-width="0.46875" stroke-linecap="round" stroke-linejoin="round"></path><path d="M27.8824 21.412L20.2129 22.7643L19.7224 19.9825L27.3919 18.6302L27.8824 21.412Z" fill="url(#paint18_linear_3251_9620)"></path><path d="M27.8824 21.412L20.2129 22.7643L19.7224 19.9825L27.3919 18.6302L27.8824 21.412Z" stroke="#D6AB45" stroke-width="0.46875" stroke-linecap="round" stroke-linejoin="round"></path><path d="M27.9711 20.7093L19.8891 22.1343L19.6455 20.753L27.7275 19.3279L27.9711 20.7093Z" fill="url(#paint19_linear_3251_9620)"></path><path d="M27.9711 20.7093L19.8891 22.1343L19.6455 20.753L27.7275 19.3279L27.9711 20.7093Z" stroke="#88B5A9" stroke-width="0.234375" stroke-linecap="round" stroke-linejoin="round"></path><path d="M19.2986 18.1661L26.8412 16.8361L26.6936 15.999L19.151 17.329L19.2986 18.1661Z" fill="url(#paint20_linear_3251_9620)"></path><path d="M19.2986 18.1661L26.8412 16.8361L26.6936 15.999L19.151 17.329L19.2986 18.1661Z" stroke="#88B5A9" stroke-width="0.46875" stroke-linecap="round" stroke-linejoin="round"></path><path d="M27.3908 18.6303C26.2768 18.8267 20.8828 19.7778 19.6211 20.0003C18.3594 20.2228 18.0088 18.3934 19.2977 18.1662C20.5865 17.9389 25.5594 17.0621 26.8899 16.8275C28.1947 16.5974 28.5047 18.4339 27.3908 18.6303Z" fill="url(#paint21_linear_3251_9620)"></path><path d="M27.3908 18.6303C26.2768 18.8267 20.8828 19.7778 19.6211 20.0003C18.3594 20.2228 18.0088 18.3934 19.2977 18.1662C20.5865 17.9389 25.5594 17.0621 26.8899 16.8275C28.1947 16.5974 28.5047 18.4339 27.3908 18.6303Z" stroke="#B0D8CD" stroke-width="0.46875" stroke-linecap="round" stroke-linejoin="round"></path><path d="M26.8754 16.83C28.1777 16.6004 28.516 18.4319 27.3917 18.6301C26.2311 18.8348 20.8572 19.7824 19.622 20.0001" stroke="#A2C5BB" stroke-width="0.46875" stroke-linecap="round" stroke-linejoin="round"></path><path d="M28.7733 15.6426L17.1531 17.6916C16.6139 17.314 16.3335 17.227 15.7942 16.8494L15.2944 14.0145L16.2612 12.6337L27.8815 10.5848L29.2623 11.5515L29.7622 14.3865C29.3846 14.9257 29.1509 15.1034 28.7733 15.6426Z" fill="url(#paint22_linear_3251_9620)"></path><path d="M28.7733 15.6426L17.1531 17.6916C16.6139 17.314 16.3335 17.227 15.7942 16.8494L15.2944 14.0145L16.2612 12.6337L27.8815 10.5848L29.2623 11.5515L29.7622 14.3865C29.3846 14.9257 29.1509 15.1034 28.7733 15.6426Z" stroke="#88B5A9" stroke-width="0.46875" stroke-linecap="round" stroke-linejoin="round"></path><path d="M15.5357 14.063L17.1398 13.7802L17.351 12.6746L16.3692 12.8477L15.5357 14.063Z" fill="#C9E1DD"></path><path d="M16.0024 16.7099L17.6053 16.4204L18.0959 17.2805L17.1793 17.4422L16.0024 16.7099Z" fill="white"></path><path d="M16.0025 16.71L17.6053 16.4204L17.1398 13.7802L15.5358 14.063L16.0025 16.71Z" fill="url(#paint23_linear_3251_9620)"></path><path d="M29.0795 11.6749L27.4743 11.951L26.887 10.9932L27.8805 10.818L29.0795 11.6749Z" fill="white"></path><path d="M29.5462 14.3218L27.9409 14.598L27.7741 15.574L28.6907 15.4124L29.5462 14.3218Z" fill="url(#paint24_linear_3251_9620)"></path><path d="M29.5457 14.3219L27.9405 14.598L27.4738 11.951L29.079 11.675L29.5457 14.3219Z" fill="url(#paint25_linear_3251_9620)"></path><path d="M27.941 14.5979L17.6059 16.4202L17.1403 13.78L27.4743 11.951L27.941 14.5979Z" fill="url(#paint26_linear_3251_9620)"></path><path d="M29.2623 11.5516L29.7621 14.3865C29.3846 14.9258 29.1509 15.1034 28.7733 15.6426L17.153 17.6916C16.6138 17.314 16.3334 17.227 15.7942 16.8495" stroke="#6C9388" stroke-width="0.46875" stroke-linecap="round" stroke-linejoin="round"></path></g></g></g><g clip-path="url(#clip2_3251_9620)"><g clip-path="url(#clip3_3251_9620)"><mask id="mask1_3251_9620" maskUnits="userSpaceOnUse" x="67" y="6" width="48" height="47" style="mask-type: luminance;"><path d="M114.338 12.9459L74.9453 6L67.9994 45.3923L107.392 52.3382L114.338 12.9459Z" fill="white"></path></mask><g mask="url(#mask1_3251_9620)"><mask id="mask2_3251_9620" maskUnits="userSpaceOnUse" x="73" y="9" width="37" height="39" style="mask-type: luminance;"><path d="M109.221 31.7253C107.407 42.0126 97.8708 49.0539 87.9707 47.1842C78.5188 45.3991 71.7676 35.6549 73.2897 25.3898C74.8218 15.0568 84.6175 8.18139 94.5395 9.93091C104.462 11.6804 111.034 21.4381 109.221 31.7253Z" fill="url(#paint27_radial_3251_9620)"></path></mask><g mask="url(#mask2_3251_9620)"><path d="M109.22 31.7252C107.406 42.0125 97.8701 49.0538 87.97 47.1841C78.5181 45.399 71.7669 35.6548 73.2889 25.3896C74.8211 15.0567 84.6167 8.18127 94.5388 9.93079C104.461 11.6803 111.034 21.438 109.22 31.7252Z" fill="url(#paint28_radial_3251_9620)"></path></g><mask id="mask3_3251_9620" maskUnits="userSpaceOnUse" x="68" y="3" width="47" height="48" style="mask-type: luminance;"><path d="M75.4292 3.70544L114.822 10.6514L107.876 50.0437L68.4833 43.0978L75.4292 3.70544Z" fill="white"></path></mask><g mask="url(#mask3_3251_9620)"><path d="M84.7967 36.5808L87.5266 39.2454L92.102 40.1775L106.595 26.7081L102.154 13.8498L89.5897 17.9503L84.7967 36.5808Z" fill="#E6FCFE"></path><path d="M89.7071 17.9456L96.378 25.2195L87.5199 39.3031L84.7968 36.5808L89.7071 17.9456Z" fill="#88DBFF"></path><path d="M102.124 13.856L96.3775 25.2195L106.619 26.6907L102.124 13.856Z" fill="#D5F0FD"></path><mask id="mask4_3251_9620" maskUnits="userSpaceOnUse" x="96" y="13" width="11" height="14" style="mask-type: luminance;"><path d="M102.123 13.8558L96.3769 25.2193L106.618 26.6905L102.123 13.8558Z" fill="url(#paint29_linear_3251_9620)"></path></mask><g mask="url(#mask4_3251_9620)"><path d="M102.124 13.856L96.3771 25.2195L106.618 26.6907L102.124 13.856Z" fill="url(#paint30_linear_3251_9620)"></path></g><path d="M102.125 13.8561L96.3781 25.2196L89.5688 17.9343L102.125 13.8561Z" fill="#F4FCFF"></path><g opacity="0.4"><path d="M84.7967 36.5808L87.5266 39.2454L92.102 40.1775L106.595 26.7081L102.154 13.8498L89.5897 17.9503L84.7967 36.5808Z" fill="url(#paint31_linear_3251_9620)"></path></g><path d="M87.5263 39.2454L96.3939 25.2014L102.154 13.8497" stroke="#80D8FF" stroke-width="1.17188" stroke-linecap="round" stroke-linejoin="round"></path><path d="M89.589 17.9501L96.3934 25.2014L106.594 26.7081" stroke="#80D8FF" stroke-width="1.17188" stroke-linecap="round" stroke-linejoin="round"></path><g opacity="0.5"><path d="M86.4795 30.3751L90.6274 18.9275L101.405 15.2197L105.3 26.4872L95.9475 35.9833" stroke="white" stroke-width="1.40625" stroke-linecap="round" stroke-linejoin="round"></path></g><path d="M84.7967 36.5808L87.5266 39.2454L92.102 40.1776L106.595 26.7081L102.154 13.8498L89.5897 17.9503L84.7967 36.5808Z" stroke="url(#paint32_linear_3251_9620)" stroke-width="1.40625" stroke-linecap="round" stroke-linejoin="round"></path></g><mask id="mask5_3251_9620" maskUnits="userSpaceOnUse" x="65" y="8" width="34" height="46" style="mask-type: luminance;"><path d="M71.9768 8.88782L98.9051 13.636L91.9592 53.0283L65.0309 48.2801L71.9768 8.88782Z" fill="white"></path></mask><g mask="url(#mask5_3251_9620)"><path d="M77.9978 39.6905L80.9529 43.2489L85.5563 40.5304L89.2657 24.576L81.9815 18.1614L73.923 24.8821L77.9978 39.6905Z" fill="#D8F1FD"></path><path d="M74.2158 25.2594L79.7728 27.4732L80.6709 42.8813L77.9982 39.6906L74.2158 25.2594Z" fill="#80DBFF"></path><path d="M89.2015 24.5453L79.7664 27.4393L80.9898 43.2444L85.5565 40.5304L89.2015 24.5453Z" fill="#C2F1FD"></path><mask id="mask6_3251_9620" maskUnits="userSpaceOnUse" x="79" y="24" width="11" height="20" style="mask-type: luminance;"><path d="M89.2006 24.545L79.7655 27.439L80.989 43.244L85.5556 40.5301L89.2006 24.545Z" fill="url(#paint33_linear_3251_9620)"></path></mask><g mask="url(#mask6_3251_9620)"><path d="M89.201 24.5452L79.7659 27.4392L80.9893 43.2442L85.556 40.5303L89.201 24.5452Z" fill="url(#paint34_linear_3251_9620)"></path></g><path d="M82.0606 18.4096L79.7662 27.4393L89.2013 24.5452L82.0606 18.4096Z" fill="#F5FFFF"></path><g opacity="0.4"><path d="M77.9978 39.6905L80.9529 43.2489L85.5563 40.5304L89.2657 24.576L81.9815 18.1614L73.923 24.8821L77.9978 39.6905Z" fill="url(#paint35_linear_3251_9620)"></path></g><path d="M80.9539 43.2491L79.7735 27.4733L81.9826 18.1616" stroke="#80D8FF" stroke-width="1.17188" stroke-linecap="round" stroke-linejoin="round"></path><path d="M89.2657 24.5759L79.7725 27.473L73.923 24.8821" stroke="#80D8FF" stroke-width="1.17188" stroke-linecap="round" stroke-linejoin="round"></path><g opacity="0.5"><path d="M77.9829 39.4988L75.0607 25.1944L81.9388 19.4976L88.0894 24.888L85.565 40.2577" stroke="white" stroke-width="1.40625" stroke-linecap="round" stroke-linejoin="round"></path></g><path d="M77.9978 39.6905L80.9529 43.2489L85.5563 40.5304L89.2657 24.5759L81.9815 18.1614L73.923 24.8821L77.9978 39.6905Z" stroke="url(#paint36_linear_3251_9620)" stroke-width="1.40625" stroke-linecap="round" stroke-linejoin="round"></path></g><mask id="mask7_3251_9620" maskUnits="userSpaceOnUse" x="77" y="25" width="32" height="33" style="mask-type: luminance;"><path d="M81.8362 25.8576L108.765 30.6058L104.016 57.5341L77.088 52.7859L81.8362 25.8576Z" fill="white"></path></mask><g mask="url(#mask7_3251_9620)"><path d="M96.6812 33.9381L104.412 39.7374L99.2652 47.5668L89.5629 47.6616L83.141 41.7631L88.5329 34.404L96.6812 33.9381Z" fill="#ABEFFF"></path><path d="M89.1472 34.6348L90.1215 37.4133L97.8871 37.4521L96.6067 34.273L89.1472 34.6348Z" fill="#D2FAFF"></path><path d="M89.5387 37.921L89.4698 44.0237L83.141 41.763L89.5387 37.921Z" fill="#8FDAFF"></path><path d="M88.4471 34.757L83.1411 41.763L89.3794 37.5052L88.4471 34.757Z" fill="#B6F1FF"></path><path d="M99.1894 44.1148L99.8488 46.9988L89.8921 47.6422L90.2707 44.3586L99.1894 44.1148Z" fill="#C7FFFC"></path><path d="M98.2548 38.1538L98.7982 43.8499L90.2808 43.9432L89.9648 38.092L98.2548 38.1538Z" fill="#CCF1FF"></path><mask id="mask8_3251_9620" maskUnits="userSpaceOnUse" x="89" y="38" width="10" height="6" style="mask-type: luminance;"><path d="M98.2548 38.1538L98.7982 43.8499L90.2808 43.9432L89.9648 38.092L98.2548 38.1538Z" fill="url(#paint37_linear_3251_9620)"></path></mask><g mask="url(#mask8_3251_9620)"><path d="M98.2548 38.1538L98.7982 43.8499L90.2808 43.9432L89.9648 38.092L98.2548 38.1538Z" fill="url(#paint38_linear_3251_9620)"></path></g><path d="M96.6896 33.9855L98.5265 37.8354L104.366 39.7004L96.6896 33.9855Z" fill="#E6FAFF"></path><path d="M96.6819 33.9383L98.512 37.8548L99.1908 44.1152L99.2659 47.567" stroke="#80D8FF" stroke-width="1.17188" stroke-linecap="round" stroke-linejoin="round"></path><path d="M89.562 47.6616L90.0206 44.2116L89.7921 37.7766L88.532 34.4039" stroke="#80D8FF" stroke-width="1.17188" stroke-linecap="round" stroke-linejoin="round"></path><path d="M83.141 41.763L89.7929 37.7767L98.5113 37.8546L104.412 39.7374L99.1901 44.115L90.0214 44.2116L83.141 41.763Z" stroke="#80D8FF" stroke-width="1.17188" stroke-linecap="round" stroke-linejoin="round"></path><g opacity="0.4"><path d="M96.6812 33.9381L104.412 39.7374L99.2652 47.5668L89.5629 47.6616L83.141 41.7631L88.5329 34.404L96.6812 33.9381Z" fill="url(#paint39_linear_3251_9620)"></path></g><g opacity="0.5"><path d="M83.1413 41.763L88.961 35.4124L96.5142 34.9555L103.291 39.948L100.863 45.1381" stroke="white" stroke-width="1.40625" stroke-linecap="round" stroke-linejoin="round"></path></g><path d="M96.6812 33.9381L104.412 39.7374L99.2652 47.5668L89.5629 47.6616L83.141 41.7631L88.5329 34.404L96.6812 33.9381Z" stroke="url(#paint40_linear_3251_9620)" stroke-width="1.40625" stroke-linecap="round" stroke-linejoin="round"></path></g><path d="M95.7353 36.4634C95.7353 36.4634 95.3647 39.4912 93.1554 39.2154C93.1554 39.2154 95.1558 39.7795 94.6605 42.5733C94.6605 42.5733 95.2256 39.5964 97.1195 39.8572C97.1195 39.8572 95.1944 39.8351 95.7353 36.4634Z" fill="white"></path><path d="M79.3377 29.1296C79.3377 29.1296 78.9671 32.1574 76.7579 31.8816C76.7579 31.8816 78.7582 32.4457 78.2629 35.2395C78.2629 35.2395 78.828 32.2626 80.722 32.5234C80.722 32.5234 78.7968 32.5013 79.3377 29.1296Z" fill="white"></path><path d="M101.536 21.9624C101.536 21.9624 101.389 24.5255 99.3967 24.3931C99.3967 24.3931 101.219 24.7774 100.946 27.1492C100.946 27.1492 101.271 24.6203 102.98 24.7542C102.98 24.7542 101.257 24.8224 101.536 21.9624Z" fill="white"></path></g></g></g><g clip-path="url(#clip4_3251_9620)"><g clip-path="url(#clip5_3251_9620)"><mask id="mask9_3251_9620" maskUnits="userSpaceOnUse" x="34" y="0" width="50" height="50" style="mask-type: luminance;"><path d="M84 0H34V50H84V0Z" fill="white"></path></mask><g mask="url(#mask9_3251_9620)"><path d="M62.9529 38.4039C67.0039 38.0389 72.3687 40.3746 75.5073 41.7979C78.6458 43.2213 80.1057 42.2723 81.5655 35.0463C82.7047 29.4068 78.7091 29.8826 77.697 32.5646C76.9671 34.4989 76.4197 36.9805 76.4197 36.9805C71.1279 34.2069 63.9018 34.8273 63.9018 34.8273" fill="url(#paint41_linear_3251_9620)"></path><path d="M62.9529 38.4039C67.0039 38.0389 72.3687 40.3746 75.5073 41.7979C78.6458 43.2213 80.1057 42.2723 81.5655 35.0463C82.7047 29.4068 78.7091 29.8826 77.697 32.5646C76.9671 34.4989 76.4197 36.9805 76.4197 36.9805C71.1279 34.2069 63.9018 34.8273 63.9018 34.8273" stroke="#104704" stroke-width="0.683594" stroke-linecap="round" stroke-linejoin="round"></path><path d="M62.9529 38.4039C67.0039 38.0389 72.3687 40.3746 75.5073 41.7979C78.6458 43.2213 80.1057 42.2723 81.5655 35.0463C82.7047 29.4068 78.7091 29.8826 77.697 32.5646C76.9671 34.4989 76.4197 36.9805 76.4197 36.9805C71.1279 34.2069 63.9018 34.8273 63.9018 34.8273" stroke="#104704" stroke-width="0.976562" stroke-linecap="round" stroke-linejoin="round" stroke-dasharray="0.2 0.68"></path><g opacity="0.5"><path d="M65.6855 37.5275C70.0798 37.8243 75.1862 41.3593 78.2399 41.3519C78.9227 41.3502 78.9926 41.1251 79.5049 40.6995" stroke="#114804" stroke-width="0.488281" stroke-linecap="round" stroke-linejoin="round"></path></g><g opacity="0.5"><path d="M68.4995 38.9664C68.5672 37.0704 68.5673 35.5806 70.531 35.2421C67.3485 34.294 65.0461 34.768 65.0461 34.768L64.4366 38.0183L68.4995 38.9664Z" fill="#0E3B04"></path></g><g opacity="0.22"><path d="M77.5896 37.231C77.9104 35.3062 79.1402 32.4724 79.1402 32.4724" stroke="#C6FFAB" stroke-width="0.976562" stroke-linecap="round" stroke-linejoin="round"></path></g><path d="M64.2834 21.3617C69.195 20.9802 72.6395 24.7599 71.1463 27.172C70.0906 28.8774 63.0912 27.4654 63.0912 27.4654" fill="#558629"></path><path d="M64.2834 21.3617C69.195 20.9802 72.6395 24.7599 71.1463 27.172C70.0906 28.8774 63.0912 27.4654 63.0912 27.4654" stroke="#0E3B04" stroke-width="0.683594" stroke-linecap="round" stroke-linejoin="round"></path><path d="M64.2834 21.3617C69.195 20.9802 72.6395 24.7599 71.1463 27.172C70.0906 28.8774 63.0912 27.4654 63.0912 27.4654" stroke="#0E3B04" stroke-width="0.976562" stroke-linecap="round" stroke-linejoin="round" stroke-dasharray="0.2 0.68"></path><path d="M40.5354 22.3636C39.1515 18.7554 39.2668 16.3778 40.6267 13.4636C41.3932 11.8213 41.9026 11.0736 41.8571 9.50333C41.7842 6.98516 45.1695 1.7669 51.9212 5.19747C54.5853 1.58448 60.1327 1.07354 62.7603 5.19747C65.388 9.32139 65.388 15.1608 65.169 16.7665C64.9501 18.3723 64.58 20.3366 64.7989 21.614C68.1977 24.8625 69.7706 31.1549 67.39 35.797C64.1819 42.0527 49.1111 43.4811 45.2791 39.8681C41.4471 36.2551 40.1979 34.2226 40.6724 30.5C41.1468 26.7774 41.5573 25.0277 40.5354 22.3636Z" fill="url(#paint42_radial_3251_9620)"></path><path d="M40.5354 22.3636C39.1515 18.7554 39.2668 16.3778 40.6267 13.4636C41.3932 11.8213 41.9026 11.0736 41.8571 9.50333C41.7842 6.98516 45.1695 1.7669 51.9212 5.19747C54.5853 1.58448 60.1327 1.07354 62.7603 5.19747C65.388 9.32139 65.388 15.1608 65.169 16.7665C64.9501 18.3723 64.58 20.3366 64.7989 21.614C68.1977 24.8625 69.7706 31.1549 67.39 35.797C64.1819 42.0527 49.1111 43.4811 45.2791 39.8681C41.4471 36.2551 40.1979 34.2226 40.6724 30.5C41.1468 26.7774 41.5573 25.0277 40.5354 22.3636Z" stroke="#1B5E0E" stroke-width="0.683594" stroke-linecap="round" stroke-linejoin="round"></path><path d="M40.5354 22.3636C39.1515 18.7554 39.2668 16.3778 40.6267 13.4636C41.3932 11.8213 41.9026 11.0736 41.8571 9.50333C41.7842 6.98516 45.1695 1.7669 51.9212 5.19747C54.5853 1.58448 60.1327 1.07354 62.7603 5.19747C65.388 9.32139 65.388 15.1608 65.169 16.7665C64.9501 18.3723 64.58 20.3366 64.7989 21.614C68.1977 24.8625 69.7706 31.1549 67.39 35.797C64.1819 42.0527 49.1111 43.4811 45.2791 39.8681C41.4471 36.2551 40.1979 34.2226 40.6724 30.5C41.1468 26.7774 41.5573 25.0277 40.5354 22.3636Z" stroke="#1B5E0E" stroke-width="0.976562" stroke-linecap="round" stroke-linejoin="round" stroke-dasharray="0.2 0.68"></path><path d="M60.0197 2.80133C61.0755 3.26451 62.0305 4.05231 62.7603 5.19762C65.3879 9.32155 65.3879 15.1609 65.169 16.7667C64.95 18.3724 64.5799 20.3368 64.7989 21.6141C68.1977 24.8627 69.7705 31.155 67.39 35.7971C64.1819 42.0529 49.1111 43.4812 45.279 39.8682C43.6458 38.3284 42.4818 37.0755 41.7203 35.8567" stroke="#0E3B04" stroke-width="0.683594" stroke-linecap="round" stroke-linejoin="round"></path><path d="M60.0197 2.80133C61.0755 3.26451 62.0305 4.05231 62.7603 5.19762C65.3879 9.32155 65.3879 15.1609 65.169 16.7667C64.95 18.3724 64.5799 20.3368 64.7989 21.6141C68.1977 24.8627 69.7705 31.155 67.39 35.7971C64.1819 42.0529 49.1111 43.4812 45.279 39.8682C43.6458 38.3284 42.4818 37.0755 41.7203 35.8567" stroke="#0E3B04" stroke-width="0.976562" stroke-linecap="round" stroke-linejoin="round" stroke-dasharray="0.2 0.68"></path><g opacity="0.22"><path d="M45.9489 39.1575C42.2733 35.692 41.3388 33.9426 41.7676 30.579C41.9047 29.5023 41.8323 28.643 41.9958 27.8405C42.4019 25.8483 42.3577 24.1778 41.5394 22.0441C40.2493 18.6806 40.164 16.7109 41.4025 14.0569C42.215 12.3158 42.8875 11.197 42.8426 9.78241L42.8331 9.47508C42.8119 8.74774 43.2317 7.50956 44.2026 6.50995" stroke="#C6FFAB" stroke-width="0.976562" stroke-linecap="round" stroke-linejoin="round"></path></g><g opacity="0.1"><path d="M46.7799 5.35992C45.3751 6.0691 44.4749 7.87916 44.406 8.61041C44.3612 9.08727 44.3793 9.66393 44.3983 10.2744C44.4395 11.5934 44.4822 12.9573 43.9277 13.981C42.8397 15.9899 42.8979 18.2974 44.0914 20.4787C45.0509 22.2322 45.8816 25.2363 44.3898 29.5894C43.614 31.8533 44.4363 35.4762 46.2229 37.6657" stroke="#C6FFAB" stroke-width="0.488281" stroke-linecap="round" stroke-linejoin="round" stroke-dasharray="0.2 0.68"></path></g><g opacity="0.5"><path d="M45.794 38.274C43.8078 35.84 42.8816 31.8848 43.7852 29.248C44.6888 26.6112 44.9824 23.535 43.5581 20.932C42.1338 18.329 42.2206 15.6477 43.3865 13.4949C44.0456 12.2779 43.6071 10.0467 43.7535 8.49166C43.8999 6.93658 46.4493 2.33912 50.6698 4.7731" stroke="#0E3B04" stroke-width="0.488281" stroke-linecap="round" stroke-linejoin="round" stroke-dasharray="0.2 0.68"></path></g><g opacity="0.22"><path d="M54.2225 6.00875C55.0178 4.69879 55.7197 3.76315 57.6379 3.43561" stroke="#C6FFAB" stroke-width="0.976562" stroke-linecap="round" stroke-linejoin="round"></path></g><g opacity="0.22"><path d="M48.6353 5.59876C50.577 5.50774 51.7603 5.90218 52.9738 6.90335" stroke="#C6FFAB" stroke-width="0.976562" stroke-linecap="round" stroke-linejoin="round"></path></g><path d="M47.9894 24.8434C47.073 26.7603 53.9676 29.265 59.6197 28.1831C65.2718 27.1011 65.5979 23.7615 64.674 22.5855C64.2651 22.065 61.0918 23.259 57.6089 23.6674C53.2223 24.182 48.3529 24.0831 47.9894 24.8434Z" fill="url(#paint43_radial_3251_9620)"></path><g opacity="0.5"><path d="M46.1383 14.3141C45.8007 16.6781 48.9552 19.3991 52.7599 18.7406C56.5646 18.0821 57.5523 14.6433 56.4182 12.0093C55.2841 9.37531 46.5773 11.2411 46.1383 14.3141Z" fill="#434F32"></path></g><g opacity="0.5"><path d="M57.9531 11.7535C57.3677 15.8508 62.1966 17.3142 64.0258 16.6191C65.855 15.924 65.7819 13.5827 64.9405 11.3145C64.0991 9.04634 58.1905 10.0915 57.9531 11.7535Z" fill="#434F32"></path></g><g opacity="0.5"><path d="M46.8049 22.1258C47.9419 25.781 63.1658 22.9671 64.2697 21.5786C65.3736 20.1902 64.8477 19.6393 64.8477 19.6393L46.8049 22.1258Z" fill="#434F32"></path></g><path d="M46.0449 20.0887C45.97 18.1374 47.3875 17.9397 50.2593 18.3631C53.6276 18.8596 61.4027 17.6439 63.6106 16.0027C65.036 14.9431 65.8825 16.5159 65.7 18.0659C65.6292 18.6675 65.5938 19.5891 64.1772 20.3768C62.7606 21.1646 55.111 23.2477 48.5594 22.6214C46.4948 22.424 46.0804 21.0116 46.0449 20.0887Z" fill="url(#paint44_linear_3251_9620)"></path><path d="M46.0449 20.0887C45.97 18.1374 47.3875 17.9397 50.2593 18.3631C53.6276 18.8596 61.4027 17.6439 63.6106 16.0027C65.036 14.9431 65.8825 16.5159 65.7 18.0659C65.6292 18.6675 65.5938 19.5891 64.1772 20.3768C62.7606 21.1646 55.111 23.2477 48.5594 22.6214C46.4948 22.424 46.0804 21.0116 46.0449 20.0887Z" stroke="#82181E" stroke-width="0.683594" stroke-linecap="round" stroke-linejoin="round"></path><path d="M46.0449 20.0887C45.97 18.1374 47.3875 17.9397 50.2593 18.3631C53.6276 18.8596 61.4027 17.6439 63.6106 16.0027C65.036 14.9431 65.8825 16.5159 65.7 18.0659C65.6292 18.6675 65.5938 19.5891 64.1772 20.3768C62.7606 21.1646 55.111 23.2477 48.5594 22.6214C46.4948 22.424 46.0804 21.0116 46.0449 20.0887Z" stroke="#82181E" stroke-width="0.976562" stroke-linecap="round" stroke-linejoin="round" stroke-dasharray="0.2 0.68"></path><path d="M47.8462 20.3299C51.423 21.2166 64.1368 19.9078 65.5534 16.9563" stroke="#82181E" stroke-width="0.683594" stroke-linecap="round" stroke-linejoin="round"></path><path d="M47.8462 20.3299C51.423 21.2166 64.1368 19.9078 65.5534 16.9563" stroke="#82181E" stroke-width="0.976562" stroke-linecap="round" stroke-linejoin="round" stroke-dasharray="0.2 0.68"></path><path d="M65.5534 16.9563C64.1368 19.9078 51.423 21.2166 47.8462 20.3299" stroke="#82181E" stroke-width="0.976562" stroke-linecap="round" stroke-linejoin="round" stroke-dasharray="0.49 97.66"></path><path d="M46.2377 13.0936C45.9504 14.6381 47.88 17.3635 52.3324 16.9255C56.7848 16.4876 56.7848 12.4731 56.3469 11.2688C55.9089 10.0645 54.1207 8.34917 51.5295 8.86011C48.9383 9.37105 46.5297 11.5243 46.2377 13.0936Z" fill="url(#paint45_linear_3251_9620)"></path><path d="M46.2377 13.0936C45.9504 14.6381 47.88 17.3635 52.3324 16.9255C56.7848 16.4876 56.7848 12.4731 56.3469 11.2688C55.9089 10.0645 54.1207 8.34917 51.5295 8.86011C48.9383 9.37105 46.5297 11.5243 46.2377 13.0936Z" stroke="#244550" stroke-width="0.683594" stroke-linecap="round" stroke-linejoin="round"></path><path d="M46.2377 13.0936C45.9504 14.6381 47.88 17.3635 52.3324 16.9255C56.7848 16.4876 56.7848 12.4731 56.3469 11.2688C55.9089 10.0645 54.1207 8.34917 51.5295 8.86011C48.9383 9.37105 46.5297 11.5243 46.2377 13.0936Z" stroke="#244550" stroke-width="0.976562" stroke-linecap="round" stroke-linejoin="round" stroke-dasharray="0.2 0.68"></path><path d="M51.5517 9.40327C49.7039 9.12813 47.9838 10.3969 47.7098 12.2371C47.4358 14.0773 48.7116 15.7922 50.5594 16.0674C52.4073 16.3425 54.1275 15.0737 54.4015 13.2335C54.6755 11.3932 53.3996 9.67841 51.5517 9.40327ZM50.0951 13.6752C49.8152 13.7851 49.4986 13.6481 49.388 13.3691C49.2774 13.0901 49.4146 12.775 49.6946 12.6651C49.9745 12.5553 50.291 12.6924 50.4016 12.9713C50.5122 13.2503 50.3751 13.5653 50.0951 13.6752ZM50.7349 11.4067C50.7763 11.1283 51.0365 10.9364 51.316 10.9781C51.5956 11.0197 51.7887 11.2791 51.7472 11.5575C51.7058 11.8358 51.4455 12.0277 51.1659 11.9861C50.8864 11.9445 50.6934 11.6851 50.7349 11.4067ZM52.4392 13.8075C52.2629 14.0284 51.9401 14.0651 51.718 13.8892C51.496 13.7134 51.4588 13.3918 51.635 13.1708C51.8113 12.9499 52.1341 12.9132 52.3562 13.089C52.5782 13.2649 52.6154 13.5865 52.4392 13.8075Z" fill="#244550"></path><path d="M51.6783 12.0711C51.3521 12.3117 50.8915 12.2431 50.6495 11.9179C50.4075 11.5927 50.4759 11.1339 50.8021 10.8933C51.1283 10.6526 51.5889 10.7212 51.8309 11.0464C52.0728 11.3717 52.0045 11.8305 51.6783 12.0711Z" stroke="url(#paint46_linear_3251_9620)" stroke-width="0.488283" stroke-linecap="round" stroke-linejoin="round"></path><path d="M52.4929 12.9171C52.1754 12.6658 51.7138 12.7181 51.4619 13.034C51.2099 13.3499 51.2631 13.8098 51.5805 14.0611C51.898 14.3125 52.3596 14.2601 52.6115 13.9442C52.8635 13.6283 52.8104 13.1684 52.4929 12.9171Z" stroke="url(#paint47_linear_3251_9620)" stroke-width="0.488283" stroke-linecap="round" stroke-linejoin="round"></path><path d="M50.5625 12.8157C50.3654 12.4472 49.906 12.3074 49.5363 12.5033C49.1665 12.6992 49.0267 13.1565 49.2238 13.525C49.421 13.8935 49.8803 14.0334 50.25 13.8375C50.6197 13.6416 50.7596 13.1842 50.5625 12.8157Z" stroke="url(#paint48_linear_3251_9620)" stroke-width="0.488283" stroke-linecap="round" stroke-linejoin="round"></path><path d="M52.6061 14.8176C51.4532 15.6679 49.8253 15.4255 48.9701 14.2762C48.115 13.1268 48.3564 11.5056 49.5093 10.6552C50.6622 9.8048 52.2901 10.0472 53.1452 11.1966C54.0004 12.3459 53.759 13.9672 52.6061 14.8176Z" stroke="url(#paint49_linear_3251_9620)" stroke-width="0.488283" stroke-linecap="round" stroke-linejoin="round"></path><g opacity="0.5"><path d="M49.2008 10.2409C50.5832 9.22124 52.5352 9.51189 53.5606 10.8901C54.5859 12.2683 54.2965 14.2122 52.9141 15.2319C51.5317 16.2516 49.5797 15.9609 48.5543 14.5827C47.5289 13.2045 47.8184 11.2606 49.2008 10.2409Z" stroke="url(#paint50_linear_3251_9620)" stroke-width="0.488283" stroke-linecap="round" stroke-linejoin="round"></path></g><path d="M57.8767 10.7104C57.5894 12.255 59.3248 15.2937 63.7525 14.652C66.2706 14.287 66.1612 11.0389 65.7232 9.83457C65.2852 8.63027 63.8255 6.69599 61.8912 7.02441C59.2874 7.4666 58.1687 9.14111 57.8767 10.7104Z" fill="url(#paint51_linear_3251_9620)"></path><path d="M57.8767 10.7104C57.5894 12.255 59.3248 15.2937 63.7525 14.652C66.2706 14.287 66.1612 11.0389 65.7232 9.83457C65.2852 8.63027 63.8255 6.69599 61.8912 7.02441C59.2874 7.4666 58.1687 9.14111 57.8767 10.7104Z" stroke="#244550" stroke-width="0.683594" stroke-linecap="round" stroke-linejoin="round"></path><path d="M57.8767 10.7104C57.5894 12.255 59.3248 15.2937 63.7525 14.652C66.2706 14.287 66.1612 11.0389 65.7232 9.83457C65.2852 8.63027 63.8255 6.69599 61.8912 7.02441C59.2874 7.4666 58.1687 9.14111 57.8767 10.7104Z" stroke="#244550" stroke-width="0.976562" stroke-linecap="round" stroke-linejoin="round" stroke-dasharray="0.2 0.68"></path><path d="M63.1205 7.56143C63.0617 7.56933 62.2229 7.67813 62.1664 7.69268C61.08 7.97223 60.4231 9.45878 60.6839 11.1295C60.9466 12.8131 62.0457 14.073 63.1825 14.0362C63.2324 14.0345 64.0637 13.9329 64.1137 13.9261C65.3022 13.767 66.0433 12.2131 65.7691 10.4556C65.4948 8.69807 64.309 7.4023 63.1205 7.56143Z" fill="#103C4B"></path><path d="M63.835 9.99216C63.6945 10.2868 63.3982 10.3265 63.1733 10.0807C62.9484 9.83502 62.8801 9.39683 63.0206 9.10217C63.1612 8.80751 63.4574 8.76787 63.6823 9.01359C63.9072 9.25931 63.9756 9.6975 63.835 9.99216Z" stroke="url(#paint52_linear_3251_9620)" stroke-width="0.488283" stroke-linecap="round" stroke-linejoin="round"></path><path d="M64.5332 10.5902C64.2801 10.4294 64.0123 10.5808 63.9349 10.9283C63.8576 11.2758 63.9999 11.6878 64.253 11.8485C64.5061 12.0093 64.7739 11.8579 64.8513 11.5104C64.9287 11.1629 64.7863 10.7509 64.5332 10.5902Z" stroke="url(#paint53_linear_3251_9620)" stroke-width="0.488283" stroke-linecap="round" stroke-linejoin="round"></path><path d="M63.3362 10.9275C63.1282 10.6319 62.8156 10.6056 62.6379 10.8687C62.4602 11.1318 62.4848 11.5848 62.6928 11.8804C62.9008 12.176 63.2133 12.2023 63.391 11.9392C63.5687 11.6761 63.5442 11.2231 63.3362 10.9275Z" stroke="url(#paint54_linear_3251_9620)" stroke-width="0.488283" stroke-linecap="round" stroke-linejoin="round"></path><path d="M63.5451 9.92197C63.4382 10.1459 63.2131 10.176 63.0423 9.98928C62.8714 9.80255 62.8194 9.46956 62.9262 9.24564C63.0331 9.02173 63.2582 8.9916 63.4291 9.17834C63.5999 9.36507 63.6519 9.69806 63.5451 9.92197Z" fill="white"></path><path d="M64.3304 10.7565C64.1345 10.6321 63.9271 10.7492 63.8671 11.0183C63.8072 11.2874 63.9175 11.6064 64.1134 11.7309C64.3094 11.8554 64.5168 11.7382 64.5767 11.4691C64.6367 11.2 64.5264 10.881 64.3304 10.7565Z" fill="white"></path><path d="M63.0911 11.0723C62.9305 10.8441 62.6889 10.8237 62.5517 11.0269C62.4145 11.2301 62.4336 11.58 62.5942 11.8083C62.7548 12.0365 62.9962 12.0569 63.1335 11.8537C63.2707 11.6504 63.2517 11.3006 63.0911 11.0723Z" fill="white"></path><path d="M65.0593 12.3165C64.5626 13.358 63.5155 13.4981 62.7208 12.6296C61.926 11.7612 61.6843 10.2128 62.181 9.17135C62.6777 8.12986 63.7248 7.98978 64.5195 8.85822C65.3143 9.72667 65.556 11.275 65.0593 12.3165Z" stroke="url(#paint55_linear_3251_9620)" stroke-width="0.488283" stroke-linecap="round" stroke-linejoin="round"></path><g opacity="0.5"><path d="M61.895 8.85816C62.4907 7.60941 63.746 7.44123 64.699 8.48261C65.6521 9.52399 65.9418 11.3806 65.3461 12.6293C64.7505 13.8781 63.4952 14.0462 62.5421 13.0049C61.5891 11.9635 61.2994 10.1069 61.895 8.85816Z" stroke="url(#paint56_linear_3251_9620)" stroke-width="0.488283" stroke-linecap="round" stroke-linejoin="round"></path></g><g opacity="0.5"><g opacity="0.5"><path d="M49.7005 34.8163C51.1325 38.0539 52.3778 41.1047 48.7666 37.1823C49.3355 38.0385 47.4234 40.879 49.0156 41.3538C52.0811 42.2677 60.2629 41.5631 64.9435 38.3938C68.1001 36.2565 68.3557 31.1577 68.192 31.3057L49.7005 34.8163Z" fill="#0E3B04"></path></g></g><path d="M44.0675 39.3493C43.258 41.1551 41.3807 45.5812 41.3004 46.322C41.2201 47.0628 45.1992 49.8802 46.163 47.7693C47.1268 45.6583 49.1086 41.7771 49.4087 40.635C50.4949 36.5006 45.5013 36.1509 44.0675 39.3493Z" fill="#558629"></path><path d="M44.0675 39.3493C43.258 41.1551 41.3807 45.5812 41.3004 46.322C41.2201 47.0628 45.1992 49.8802 46.163 47.7693C47.1268 45.6583 49.1086 41.7771 49.4087 40.635C50.4949 36.5006 45.5013 36.1509 44.0675 39.3493Z" stroke="#114804" stroke-width="0.683594" stroke-linecap="round" stroke-linejoin="round"></path><path d="M44.0675 39.3493C43.258 41.1551 41.3807 45.5812 41.3004 46.322C41.2201 47.0628 45.1992 49.8802 46.163 47.7693C47.1268 45.6583 49.1086 41.7771 49.4087 40.635C50.4949 36.5006 45.5013 36.1509 44.0675 39.3493Z" stroke="#114804" stroke-width="0.976562" stroke-linecap="round" stroke-linejoin="round" stroke-dasharray="0.2 0.68"></path><path d="M45.6209 43.4093C45.2533 42.571 44.7599 41.7514 44.1913 41.0386C42.8226 39.3226 41.0179 38.2258 39.4807 38.9773C37.3276 40.0298 37.3574 43.418 38.7668 45.9994C39.8577 47.9972 41.7747 49.5119 44.1459 49.087C45.4198 48.8588 46.0655 48.0721 46.2546 47.0271" fill="url(#paint57_linear_3251_9620)"></path><path d="M45.6209 43.4093C45.2533 42.571 44.7599 41.7514 44.1913 41.0386C42.8226 39.3226 41.0179 38.2258 39.4807 38.9773C37.3276 40.0298 37.3574 43.418 38.7668 45.9994C39.8577 47.9972 41.7747 49.5119 44.1459 49.087C45.4198 48.8588 46.0655 48.0721 46.2546 47.0271" stroke="#1B5E0E" stroke-width="0.683594" stroke-linecap="round" stroke-linejoin="round"></path><path d="M45.6209 43.4093C45.2533 42.571 44.7599 41.7514 44.1913 41.0386C42.8226 39.3226 41.0179 38.2258 39.4807 38.9773C37.3276 40.0298 37.3574 43.418 38.7668 45.9994C39.8577 47.9972 41.7747 49.5119 44.1459 49.087C45.4198 48.8588 46.0655 48.0721 46.2546 47.0271" stroke="#1B5E0E" stroke-width="0.976562" stroke-linecap="round" stroke-linejoin="round" stroke-dasharray="0.2 0.68"></path><path d="M39.1464 46.623C40.2746 48.2994 42.0297 49.4663 44.1469 49.087C45.4207 48.8587 46.0664 48.072 46.2555 47.027" stroke="#114804" stroke-width="0.683594" stroke-linecap="round" stroke-linejoin="round"></path><path d="M39.1464 46.623C40.2746 48.2994 42.0297 49.4663 44.1469 49.087C45.4207 48.8587 46.0664 48.072 46.2555 47.027" stroke="#114804" stroke-width="0.976562" stroke-linecap="round" stroke-linejoin="round" stroke-dasharray="0.2 0.68"></path><path d="M46.2546 47.0271C46.0655 48.0721 45.4198 48.8588 44.1459 49.087C41.7747 49.5119 39.8577 47.9972 38.7668 45.9994C37.3574 43.418 37.3276 40.0298 39.4807 38.9773C41.0179 38.2258 42.8226 39.3226 44.1913 41.0386C44.7599 41.7514 45.2533 42.571 45.6209 43.4093" stroke="#114804" stroke-width="0.683594" stroke-linecap="round" stroke-linejoin="round"></path><path d="M46.2546 47.0271C46.0655 48.0721 45.4198 48.8588 44.1459 49.087C41.7747 49.5119 39.8577 47.9972 38.7668 45.9994C37.3574 43.418 37.3276 40.0298 39.4807 38.9773C41.0179 38.2258 42.8226 39.3226 44.1913 41.0386C44.7599 41.7514 45.2533 42.571 45.6209 43.4093" stroke="#114804" stroke-width="0.976562" stroke-linecap="round" stroke-linejoin="round" stroke-dasharray="0.98 97.66"></path><g opacity="0.22"><path d="M39.5769 44.5349C38.8709 42.154 38.9298 40.6103 40.4007 39.9787" stroke="#C6FFAB" stroke-width="0.976562" stroke-linecap="round" stroke-linejoin="round"></path></g><g opacity="0.22"><path d="M44.7861 40.3394C45.1994 39.0006 45.9623 38.4245 46.8206 38.264" stroke="#C6FFAB" stroke-width="0.976562" stroke-linecap="round" stroke-linejoin="round"></path></g><path d="M61.5592 41.5503C52.8833 39.5547 48.5775 30.6756 51.2272 26.5888C53.877 22.502 58.6822 24.5678 59.7601 26.0049C62.3648 21.0199 66.3996 22.5954 67.8367 25.4696C69.2738 28.3439 69.5531 35.8916 61.5592 41.5503Z" fill="url(#paint58_linear_3251_9620)"></path><path d="M61.5592 41.5503C52.8833 39.5547 48.5775 30.6756 51.2272 26.5888C53.8769 22.502 58.6822 24.5678 59.7601 26.0049C62.3648 21.0199 66.3996 22.5954 67.8367 25.4696C69.2738 28.3439 69.5531 35.8916 61.5592 41.5503Z" stroke="#C30095" stroke-width="0.683594" stroke-linecap="round" stroke-linejoin="round"></path><path d="M61.5592 41.5503C52.8833 39.5547 48.5775 30.6756 51.2272 26.5888C53.8769 22.502 58.6822 24.5678 59.7601 26.0049C62.3648 21.0199 66.3996 22.5954 67.8367 25.4696C69.2738 28.3439 69.5531 35.8916 61.5592 41.5503Z" stroke="#C30095" stroke-width="0.976562" stroke-linecap="round" stroke-linejoin="round" stroke-dasharray="0.2 0.68"></path><path d="M65.6811 23.2228C66.5886 23.6974 67.3566 24.5113 67.8358 25.4697C69.2729 28.3439 69.5522 35.8917 61.5583 41.5504C58.5073 40.8486 55.9967 39.2955 54.139 37.399" stroke="#810062" stroke-width="0.683594" stroke-linecap="round" stroke-linejoin="round"></path><path d="M65.6811 23.2228C66.5886 23.6974 67.3566 24.5113 67.8358 25.4697C69.2729 28.3439 69.5522 35.8917 61.5583 41.5504C58.5073 40.8486 55.9967 39.2955 54.139 37.399" stroke="#810062" stroke-width="0.976562" stroke-linecap="round" stroke-linejoin="round" stroke-dasharray="0.2 0.68"></path><g opacity="0.3"><path d="M56.6191 39.5749C59.6466 39.6822 61.9352 39.2175 63.5755 38.5714C64.6853 38.1342 65.4983 37.6141 66.0424 37.1318C67.2888 35.1375 69.0339 30.6004 68.635 28.3567C66.3799 28.3018 61.5608 30.052 57.6927 31.6327C54.5482 32.9177 52.0321 34.0904 52.0321 34.0904C52.0321 34.0904 53.827 38.129 56.6191 39.5749Z" fill="#820063"></path></g><g opacity="0.5"><path d="M56.0245 24.2261C48.8991 24.8678 51.0014 37.2905 61.5596 41.5505" stroke="#A80080" stroke-width="0.488281" stroke-linecap="round" stroke-linejoin="round"></path></g><g opacity="0.22"><path d="M52.906 29.8871C52.63 28.2658 52.699 26.541 54.4928 25.5751" stroke="white" stroke-width="0.976562" stroke-linecap="round" stroke-linejoin="round"></path></g><path d="M58.1352 25.6236C55.2664 24.328 53.8855 24.8833 52.9259 26.7203C51.9663 28.5573 55.1193 30.7507 60.7947 28.8863C66.47 27.022 67.0733 26.5559 66.8539 25.4043C66.6346 24.2527 64.167 22.69 62.6042 23.6496C61.0414 24.6092 60.7672 26.4462 60.027 26.5284C59.2867 26.6106 58.9851 26.0075 58.1352 25.6236Z" fill="url(#paint59_linear_3251_9620)"></path><path d="M42.9723 31.8911C48.0747 38.424 58.4802 38.9193 64.0317 35.9272C66.9815 34.3373 65.4162 31.4393 63.3164 32.3984C59.5502 34.1188 49.8021 34.0091 45.9241 28.8987C43.5511 25.7717 41.528 30.0419 42.9723 31.8911Z" fill="url(#paint60_linear_3251_9620)"></path><path d="M42.9723 31.8911C48.0747 38.424 58.4802 38.9193 64.0317 35.9272C66.9815 34.3373 65.4162 31.4393 63.3164 32.3984C59.5502 34.1188 49.8021 34.0091 45.9241 28.8987C43.5511 25.7717 41.528 30.0419 42.9723 31.8911Z" stroke="#1B5E0E" stroke-width="0.683594" stroke-linecap="round" stroke-linejoin="round"></path><path d="M42.9723 31.8911C48.0747 38.424 58.4802 38.9193 64.0317 35.9272C66.9815 34.3373 65.4162 31.4393 63.3164 32.3984C59.5502 34.1188 49.8021 34.0091 45.9241 28.8987C43.5511 25.7717 41.528 30.0419 42.9723 31.8911Z" stroke="#1B5E0E" stroke-width="0.976562" stroke-linecap="round" stroke-linejoin="round" stroke-dasharray="0.2 0.68"></path><path d="M43.6852 32.73C48.9928 38.4613 58.7269 38.7858 64.0306 35.9273C66.9804 34.3373 65.4151 31.4393 63.3153 32.3984C62.0407 32.9807 60.0813 33.3532 57.8961 33.3934" stroke="#114804" stroke-width="0.683594" stroke-linecap="round" stroke-linejoin="round"></path><path d="M43.6852 32.73C48.9928 38.4613 58.7269 38.7858 64.0306 35.9273C66.9804 34.3373 65.4151 31.4393 63.3153 32.3984C62.0407 32.9807 60.0813 33.3532 57.8961 33.3934" stroke="#114804" stroke-width="0.976562" stroke-linecap="round" stroke-linejoin="round" stroke-dasharray="0.2 0.68"></path><g opacity="0.5"><path d="M42.9722 30.3715C44.0415 34.2746 54.7237 40.2996 64.9243 34.8106" stroke="#1B5E0E" stroke-width="0.488281" stroke-linecap="round" stroke-linejoin="round"></path></g><g opacity="0.22"><path d="M44.1865 28.9532C45.3628 30.6641 50.3747 33.7849 53.7432 34.0523" stroke="#C6FFAB" stroke-width="0.976562" stroke-linecap="round" stroke-linejoin="round"></path></g><path d="M68.2465 24.6761C69.5674 28.524 59.8042 30.9055 57.6583 30.9055C55.5124 30.9055 54.9879 34.2912 58.4689 34.1482C61.95 34.0051 68.0442 30.9014 69.904 29.3277C71.7638 27.7541 71.364 25.151 71.364 25.151" fill="#558629"></path><path d="M68.2465 24.6761C69.5674 28.524 59.8042 30.9055 57.6583 30.9055C55.5124 30.9055 54.9879 34.2912 58.4689 34.1482C61.95 34.0051 68.0442 30.9014 69.904 29.3277C71.7638 27.7541 71.364 25.151 71.364 25.151" stroke="#1B5E0E" stroke-width="0.683594" stroke-linecap="round" stroke-linejoin="round"></path><path d="M68.2465 24.6761C69.5674 28.524 59.8042 30.9055 57.6583 30.9055C55.5124 30.9055 54.9879 34.2912 58.4689 34.1482C61.95 34.0051 68.0442 30.9014 69.904 29.3277C71.7638 27.7541 71.364 25.151 71.364 25.151" stroke="#1B5E0E" stroke-width="0.976562" stroke-linecap="round" stroke-linejoin="round" stroke-dasharray="0.2 0.68"></path><path d="M56.1422 33.2333C56.4623 33.7837 57.1989 34.2001 58.4673 34.148C61.9484 34.0049 68.0426 30.9012 69.9024 29.3276C71.7621 27.7539 71.3623 25.1508 71.3623 25.1508" stroke="#114804" stroke-width="0.683594" stroke-linecap="round" stroke-linejoin="round"></path><path d="M56.1422 33.2333C56.4623 33.7837 57.1989 34.2001 58.4673 34.148C61.9484 34.0049 68.0426 30.9012 69.9024 29.3276C71.7621 27.7539 71.3623 25.1508 71.3623 25.1508" stroke="#114804" stroke-width="0.976562" stroke-linecap="round" stroke-linejoin="round" stroke-dasharray="0.2 0.68"></path><path d="M71.364 25.151C71.364 25.151 71.7638 27.7541 69.904 29.3277C68.0442 30.9014 61.95 34.0051 58.4689 34.1482C54.9879 34.2912 55.5124 30.9055 57.6583 30.9055C59.8042 30.9055 69.5674 28.524 68.2465 24.6761" stroke="#114804" stroke-width="0.976562" stroke-linecap="round" stroke-linejoin="round" stroke-dasharray="0.98 97.66"></path><g opacity="0.22"><path d="M57.4194 31.9596C60.4137 31.8526 64.7048 30.6485 66.4277 29.3276" stroke="#C6FFAB" stroke-width="0.976562" stroke-linecap="round" stroke-linejoin="round"></path></g></g></g></g><defs><linearGradient id="paint0_linear_3251_9620" x1="22.5354" y1="19.6381" x2="29.0459" y2="47.3649" gradientUnits="userSpaceOnUse"><stop stop-color="#E9F5F3"></stop><stop offset="0.17" stop-color="#C5DED8" stop-opacity="0.8"></stop><stop offset="0.35" stop-color="#A1C6BD" stop-opacity="0.6"></stop><stop offset="0.51" stop-color="#D0E2DE" stop-opacity="0.65"></stop><stop offset="0.67" stop-color="white" stop-opacity="0.7"></stop><stop offset="0.84" stop-color="#DFEDEB" stop-opacity="0.85"></stop><stop offset="1" stop-color="#C0DCD6"></stop></linearGradient><linearGradient id="paint1_linear_3251_9620" x1="25.2048" y1="27.5765" x2="24.576" y2="23.3112" gradientUnits="userSpaceOnUse"><stop stop-color="white" stop-opacity="0.2"></stop><stop offset="0.5" stop-color="#A4C5BB" stop-opacity="0.3"></stop><stop offset="1" stop-color="#498A77" stop-opacity="0.4"></stop></linearGradient><linearGradient id="paint2_linear_3251_9620" x1="27.6751" y1="44.2764" x2="24.5097" y2="26.3244" gradientUnits="userSpaceOnUse"><stop stop-color="#FDED9F"></stop><stop offset="0.09" stop-color="#F7DD7E"></stop><stop offset="0.19" stop-color="#F0CC5E"></stop><stop offset="0.23" stop-color="#EABA49"></stop><stop offset="0.28" stop-color="#E4A835"></stop><stop offset="0.47" stop-color="#E8AE37"></stop><stop offset="0.66" stop-color="#ECB438"></stop><stop offset="0.83" stop-color="#D79229"></stop><stop offset="1" stop-color="#C2701A"></stop></linearGradient><linearGradient id="paint3_linear_3251_9620" x1="24.6795" y1="27.7486" x2="24.4041" y2="25.5983" gradientUnits="userSpaceOnUse"><stop stop-color="#FFEED9"></stop><stop offset="0.5" stop-color="#FFD199"></stop><stop offset="1" stop-color="#FFB459"></stop></linearGradient><linearGradient id="paint4_linear_3251_9620" x1="27.4824" y1="43.1999" x2="24.6045" y2="26.8784" gradientUnits="userSpaceOnUse"><stop stop-color="#FFD461"></stop><stop offset="0.09" stop-color="#FFC45D"></stop><stop offset="0.19" stop-color="#FFB459"></stop><stop offset="0.23" stop-color="#F59E2D"></stop><stop offset="0.28" stop-color="#EA8800"></stop><stop offset="0.47" stop-color="#E2921B"></stop><stop offset="0.66" stop-color="#DB9B35"></stop><stop offset="0.83" stop-color="#C67927"></stop><stop offset="1" stop-color="#B15719"></stop></linearGradient><linearGradient id="paint5_linear_3251_9620" x1="18.1864" y1="40.8722" x2="15.931" y2="28.0812" gradientUnits="userSpaceOnUse"><stop stop-color="#FDED9F"></stop><stop offset="0.33" stop-color="#F5D16C"></stop><stop offset="0.66" stop-color="#ECB438"></stop><stop offset="0.83" stop-color="#D79229"></stop><stop offset="1" stop-color="#C2701A"></stop></linearGradient><linearGradient id="paint6_linear_3251_9620" x1="19.2714" y1="47.0273" x2="17.3299" y2="36.0162" gradientUnits="userSpaceOnUse"><stop stop-color="#FDED9F"></stop><stop offset="0.5" stop-color="#F5D16C"></stop><stop offset="1" stop-color="#ECB438"></stop></linearGradient><linearGradient id="paint7_linear_3251_9620" x1="17.301" y1="32.6986" x2="15.952" y2="25.0482" gradientUnits="userSpaceOnUse"><stop stop-color="#F1971F"></stop><stop offset="0.5" stop-color="#F7C25F"></stop><stop offset="1" stop-color="#FDED9F"></stop></linearGradient><linearGradient id="paint8_linear_3251_9620" x1="34.1186" y1="33.1444" x2="32.2738" y2="22.6819" gradientUnits="userSpaceOnUse"><stop stop-color="#FDED9F"></stop><stop offset="0.5" stop-color="#F7C25F"></stop><stop offset="1" stop-color="#F1971F"></stop></linearGradient><linearGradient id="paint9_linear_3251_9620" x1="36.253" y1="43.0017" x2="33.9328" y2="29.8432" gradientUnits="userSpaceOnUse"><stop stop-color="#F1971F"></stop><stop offset="0.5" stop-color="#F7C25F"></stop><stop offset="1" stop-color="#FDED9F"></stop></linearGradient><linearGradient id="paint10_linear_3251_9620" x1="25.5431" y1="22.757" x2="17.6573" y2="24.1376" gradientUnits="userSpaceOnUse"><stop stop-color="#F1F1F1"></stop><stop offset="0.5" stop-color="#F8DAA7"></stop><stop offset="1" stop-color="#FFC35D"></stop></linearGradient><linearGradient id="paint11_linear_3251_9620" x1="32.3406" y1="21.7171" x2="24.8991" y2="23.0199" gradientUnits="userSpaceOnUse"><stop stop-color="#FFC35D"></stop><stop offset="0.5" stop-color="#FFCB5F"></stop><stop offset="1" stop-color="#FFD461"></stop></linearGradient><linearGradient id="paint12_linear_3251_9620" x1="23.4356" y1="29.2372" x2="25.544" y2="39.0973" gradientUnits="userSpaceOnUse"><stop stop-color="#C2701A" stop-opacity="0"></stop><stop offset="0.5" stop-color="#BA6C1A" stop-opacity="0.3"></stop><stop offset="1" stop-color="#B2691A" stop-opacity="0.6"></stop></linearGradient><linearGradient id="paint13_linear_3251_9620" x1="20.7805" y1="47.4753" x2="35.3075" y2="44.0927" gradientUnits="userSpaceOnUse"><stop stop-color="#E6E6E6" stop-opacity="0"></stop><stop offset="0.23" stop-color="#F3F3F3" stop-opacity="0.5"></stop><stop offset="0.45" stop-color="white"></stop><stop offset="0.59" stop-color="white"></stop><stop offset="0.74" stop-color="white"></stop><stop offset="0.87" stop-color="#ECECEC" stop-opacity="0.5"></stop><stop offset="1" stop-color="#D9D9D9" stop-opacity="0"></stop></linearGradient><radialGradient id="paint14_radial_3251_9620" cx="0" cy="0" r="1" gradientUnits="userSpaceOnUse" gradientTransform="translate(22.3766 23.2362) rotate(-10) scale(9.6001)"><stop stop-color="white" stop-opacity="0.1"></stop><stop offset="0.5" stop-color="white" stop-opacity="0.55"></stop><stop offset="1" stop-color="white"></stop></radialGradient><linearGradient id="paint15_linear_3251_9620" x1="21.2158" y1="15.746" x2="24.1592" y2="15.227" gradientUnits="userSpaceOnUse"><stop stop-color="#EFC674"></stop><stop offset="0.1" stop-color="#F7DAA1"></stop><stop offset="0.19" stop-color="#FFEDCE"></stop><stop offset="0.2" stop-color="#FFF4DE"></stop><stop offset="0.21" stop-color="#FFFAED"></stop><stop offset="0.28" stop-color="#FFFCF6"></stop><stop offset="0.35" stop-color="white"></stop><stop offset="0.36" stop-color="#F1DFBB"></stop><stop offset="0.38" stop-color="#E4C077"></stop><stop offset="0.41" stop-color="#C59854"></stop><stop offset="0.45" stop-color="#A67032"></stop><stop offset="0.57" stop-color="#CA984F"></stop><stop offset="0.69" stop-color="#EEC16C"></stop><stop offset="0.71" stop-color="#F7DF9F"></stop><stop offset="0.72" stop-color="#FFFED1"></stop></linearGradient><linearGradient id="paint16_linear_3251_9620" x1="20.9336" y1="20.0001" x2="25.9373" y2="19.1178" gradientUnits="userSpaceOnUse"><stop stop-color="#EFC674"></stop><stop offset="0.1" stop-color="#F7DAA1"></stop><stop offset="0.19" stop-color="#FFEDCE"></stop><stop offset="0.2" stop-color="#FFF4DE"></stop><stop offset="0.21" stop-color="#FFFAED"></stop><stop offset="0.28" stop-color="#FFFCF6"></stop><stop offset="0.35" stop-color="white"></stop><stop offset="0.36" stop-color="#F1DFBB"></stop><stop offset="0.38" stop-color="#E4C077"></stop><stop offset="0.41" stop-color="#C59854"></stop><stop offset="0.45" stop-color="#A67032"></stop><stop offset="0.57" stop-color="#CA984F"></stop><stop offset="0.69" stop-color="#EEC16C"></stop><stop offset="0.71" stop-color="#F7DF9F"></stop><stop offset="0.72" stop-color="#FFFED1"></stop></linearGradient><linearGradient id="paint17_linear_3251_9620" x1="16.2557" y1="25.8623" x2="36.1462" y2="44.0516" gradientUnits="userSpaceOnUse"><stop stop-color="white" stop-opacity="0.6"></stop><stop offset="0.25" stop-color="white" stop-opacity="0.3"></stop><stop offset="0.5" stop-color="white" stop-opacity="0"></stop><stop offset="0.75" stop-color="white" stop-opacity="0.4"></stop><stop offset="1" stop-color="white" stop-opacity="0.8"></stop></linearGradient><linearGradient id="paint18_linear_3251_9620" x1="19.8776" y1="21.2175" x2="27.5471" y2="19.8651" gradientUnits="userSpaceOnUse"><stop stop-color="#EFC674"></stop><stop offset="0.1" stop-color="#F7DAA1"></stop><stop offset="0.19" stop-color="#FFEDCE"></stop><stop offset="0.2" stop-color="#FFF4DE"></stop><stop offset="0.21" stop-color="#FFFAED"></stop><stop offset="0.28" stop-color="#FFFCF6"></stop><stop offset="0.35" stop-color="white"></stop><stop offset="0.36" stop-color="#F1DFBB"></stop><stop offset="0.38" stop-color="#E4C077"></stop><stop offset="0.41" stop-color="#C59854"></stop><stop offset="0.45" stop-color="#A67032"></stop><stop offset="0.55" stop-color="#D2B782"></stop><stop offset="0.65" stop-color="#FFFED1"></stop><stop offset="0.69" stop-color="#F7DF9F"></stop><stop offset="0.74" stop-color="#EEC16C"></stop></linearGradient><linearGradient id="paint19_linear_3251_9620" x1="19.7372" y1="21.3216" x2="27.8192" y2="19.8966" gradientUnits="userSpaceOnUse"><stop stop-color="#E1F0EE"></stop><stop offset="0.21" stop-color="#F0F8F7"></stop><stop offset="0.42" stop-color="white"></stop><stop offset="0.59" stop-color="#E5F0EF"></stop><stop offset="0.75" stop-color="#CCE2DF"></stop><stop offset="0.88" stop-color="#E4F0EE"></stop><stop offset="1" stop-color="#FCFEFE"></stop></linearGradient><linearGradient id="paint20_linear_3251_9620" x1="19.905" y1="17.3254" x2="26.9194" y2="16.0886" gradientUnits="userSpaceOnUse"><stop stop-color="#E1F0EE"></stop><stop offset="0.23" stop-color="#F0F8F7" stop-opacity="0.85"></stop><stop offset="0.45" stop-color="white" stop-opacity="0.7"></stop><stop offset="0.59" stop-color="white" stop-opacity="0.779"></stop><stop offset="0.74" stop-color="white" stop-opacity="0.858"></stop><stop offset="0.87" stop-color="#E8F3F0" stop-opacity="0.858"></stop><stop offset="1" stop-color="#D1E6E2" stop-opacity="0.858"></stop></linearGradient><linearGradient id="paint21_linear_3251_9620" x1="18.6231" y1="19.0587" x2="27.8427" y2="17.433" gradientUnits="userSpaceOnUse"><stop stop-color="#ECF7F5" stop-opacity="0.8"></stop><stop offset="0.25" stop-color="#F6FBFA" stop-opacity="0.7"></stop><stop offset="0.5" stop-color="white" stop-opacity="0.6"></stop><stop offset="0.75" stop-color="#EBF6F4" stop-opacity="0.7"></stop><stop offset="1" stop-color="#D7ECE8" stop-opacity="0.8"></stop></linearGradient><linearGradient id="paint22_linear_3251_9620" x1="18.0464" y1="14.8769" x2="26.9887" y2="13.1563" gradientUnits="userSpaceOnUse"><stop stop-color="#E1F0EE"></stop><stop offset="0.23" stop-color="#F0F8F7" stop-opacity="0.8"></stop><stop offset="0.45" stop-color="white" stop-opacity="0.6"></stop><stop offset="0.59" stop-color="white" stop-opacity="0.729"></stop><stop offset="0.74" stop-color="white" stop-opacity="0.858"></stop><stop offset="0.87" stop-color="#E8F3F0" stop-opacity="0.858"></stop><stop offset="1" stop-color="#D1E6E2" stop-opacity="0.858"></stop></linearGradient><linearGradient id="paint23_linear_3251_9620" x1="15.9869" y1="15.7953" x2="17.4786" y2="15.5322" gradientUnits="userSpaceOnUse"><stop stop-color="white"></stop><stop offset="0.5" stop-color="#E0EDEB" stop-opacity="0.9"></stop><stop offset="1" stop-color="#C1DBD6" stop-opacity="0.8"></stop></linearGradient><linearGradient id="paint24_linear_3251_9620" x1="28.5643" y1="14.6881" x2="28.6882" y2="15.3903" gradientUnits="userSpaceOnUse"><stop stop-color="white"></stop><stop offset="0.5" stop-color="#E0EDEB" stop-opacity="0.9"></stop><stop offset="1" stop-color="#C1DBD6" stop-opacity="0.8"></stop></linearGradient><linearGradient id="paint25_linear_3251_9620" x1="29.2971" y1="13.4483" x2="27.971" y2="13.6821" gradientUnits="userSpaceOnUse"><stop stop-color="white"></stop><stop offset="0.5" stop-color="#C1D5D1" stop-opacity="0.9"></stop><stop offset="1" stop-color="#83ACA2" stop-opacity="0.8"></stop></linearGradient><linearGradient id="paint26_linear_3251_9620" x1="27.7092" y1="13.8869" x2="17.6922" y2="15.6532" gradientUnits="userSpaceOnUse"><stop stop-color="white"></stop><stop offset="0.05" stop-color="white"></stop><stop offset="0.1" stop-color="white"></stop><stop offset="0.18" stop-color="#E0EDEB"></stop><stop offset="0.25" stop-color="#C1DBD6"></stop><stop offset="0.35" stop-color="#C8E0DC" stop-opacity="0.8"></stop><stop offset="0.45" stop-color="#D0E5E1" stop-opacity="0.6"></stop><stop offset="0.58" stop-color="#AAC8C2" stop-opacity="0.65"></stop><stop offset="0.71" stop-color="#83ACA2" stop-opacity="0.7"></stop><stop offset="0.82" stop-color="#BAD2CD" stop-opacity="0.75"></stop><stop offset="0.92" stop-color="#F2F9F8" stop-opacity="0.8"></stop><stop offset="0.96" stop-color="#F9FCFB" stop-opacity="0.9"></stop><stop offset="1" stop-color="white"></stop></linearGradient><radialGradient id="paint27_radial_3251_9620" cx="0" cy="0" r="1" gradientUnits="userSpaceOnUse" gradientTransform="translate(91.2723 28.7115) rotate(10) scale(18.9066)"><stop stop-color="white"></stop><stop offset="0.1" stop-color="white"></stop><stop offset="0.2" stop-color="white"></stop><stop offset="0.53" stop-color="white" stop-opacity="0.5"></stop><stop offset="0.94" stop-color="white" stop-opacity="0"></stop><stop offset="0.97" stop-color="white" stop-opacity="0"></stop><stop offset="1" stop-color="white" stop-opacity="0"></stop></radialGradient><radialGradient id="paint28_radial_3251_9620" cx="0" cy="0" r="1" gradientUnits="userSpaceOnUse" gradientTransform="translate(91.2716 28.7114) rotate(10) scale(18.9066)"><stop offset="0.2" stop-color="#51BEFF"></stop><stop offset="0.53" stop-color="#51BEFF"></stop><stop offset="0.94" stop-color="#51BEFF"></stop></radialGradient><linearGradient id="paint29_linear_3251_9620" x1="102.005" y1="24.6496" x2="101.842" y2="15.5318" gradientUnits="userSpaceOnUse"><stop offset="0.09" stop-color="white" stop-opacity="0"></stop><stop offset="0.1" stop-color="white" stop-opacity="0.5"></stop><stop offset="0.12" stop-color="white"></stop><stop offset="0.23" stop-color="white"></stop><stop offset="0.35" stop-color="white"></stop><stop offset="0.37" stop-color="white" stop-opacity="0.5"></stop><stop offset="0.39" stop-color="white" stop-opacity="0"></stop><stop offset="0.43" stop-color="white" stop-opacity="0"></stop><stop offset="0.47" stop-color="white" stop-opacity="0"></stop><stop offset="0.48" stop-color="white" stop-opacity="0.5"></stop><stop offset="0.5" stop-color="white"></stop><stop offset="0.54" stop-color="white"></stop><stop offset="0.58" stop-color="white"></stop><stop offset="0.6" stop-color="white" stop-opacity="0.5"></stop><stop offset="0.62" stop-color="white" stop-opacity="0"></stop></linearGradient><linearGradient id="paint30_linear_3251_9620" x1="102.005" y1="24.6497" x2="101.842" y2="15.5319" gradientUnits="userSpaceOnUse"><stop stop-color="white"></stop><stop offset="0.5" stop-color="white"></stop><stop offset="1" stop-color="white"></stop></linearGradient><linearGradient id="paint31_linear_3251_9620" x1="84.7949" y1="36.5479" x2="96.7711" y2="29.2246" gradientUnits="userSpaceOnUse"><stop stop-color="#0080F1"></stop><stop offset="0.73" stop-color="#1E7FF8" stop-opacity="0.5"></stop><stop offset="1" stop-color="#3B7EFF" stop-opacity="0"></stop></linearGradient><linearGradient id="paint32_linear_3251_9620" x1="84.9342" y1="37.9864" x2="104.387" y2="14.8038" gradientUnits="userSpaceOnUse"><stop offset="0.13" stop-color="#307BE7"></stop><stop offset="0.52" stop-color="#2B95EF"></stop><stop offset="0.93" stop-color="#26AFF8"></stop></linearGradient><linearGradient id="paint33_linear_3251_9620" x1="87.171" y1="33.0164" x2="80.31" y2="25.8909" gradientUnits="userSpaceOnUse"><stop offset="0.09" stop-color="white" stop-opacity="0"></stop><stop offset="0.1" stop-color="white" stop-opacity="0.5"></stop><stop offset="0.12" stop-color="white"></stop><stop offset="0.23" stop-color="white"></stop><stop offset="0.35" stop-color="white"></stop><stop offset="0.37" stop-color="white" stop-opacity="0.5"></stop><stop offset="0.39" stop-color="white" stop-opacity="0"></stop><stop offset="0.43" stop-color="white" stop-opacity="0"></stop><stop offset="0.47" stop-color="white" stop-opacity="0"></stop><stop offset="0.48" stop-color="white" stop-opacity="0.5"></stop><stop offset="0.5" stop-color="white"></stop><stop offset="0.54" stop-color="white"></stop><stop offset="0.58" stop-color="white"></stop><stop offset="0.6" stop-color="white" stop-opacity="0.5"></stop><stop offset="0.62" stop-color="white" stop-opacity="0"></stop></linearGradient><linearGradient id="paint34_linear_3251_9620" x1="87.1714" y1="33.0166" x2="80.3103" y2="25.8911" gradientUnits="userSpaceOnUse"><stop stop-color="white"></stop><stop offset="0.5" stop-color="white"></stop><stop offset="1" stop-color="white"></stop></linearGradient><linearGradient id="paint35_linear_3251_9620" x1="78.392" y1="42.4713" x2="81.6757" y2="27.0144" gradientUnits="userSpaceOnUse"><stop stop-color="#0080F1"></stop><stop offset="0.73" stop-color="#1E7FF8" stop-opacity="0.5"></stop><stop offset="1" stop-color="#3B7EFF" stop-opacity="0"></stop></linearGradient><linearGradient id="paint36_linear_3251_9620" x1="87.1324" y1="41.7054" x2="78.7088" y2="18.5617" gradientUnits="userSpaceOnUse"><stop offset="0.13" stop-color="#307BE7"></stop><stop offset="0.52" stop-color="#2B95EF"></stop><stop offset="0.93" stop-color="#26AFF8"></stop></linearGradient><linearGradient id="paint37_linear_3251_9620" x1="98.3857" y1="40.5304" x2="89.925" y2="34.1541" gradientUnits="userSpaceOnUse"><stop offset="0.09" stop-color="white" stop-opacity="0"></stop><stop offset="0.1" stop-color="white" stop-opacity="0.5"></stop><stop offset="0.12" stop-color="white"></stop><stop offset="0.23" stop-color="white"></stop><stop offset="0.35" stop-color="white"></stop><stop offset="0.37" stop-color="white" stop-opacity="0.5"></stop><stop offset="0.39" stop-color="white" stop-opacity="0"></stop><stop offset="0.43" stop-color="white" stop-opacity="0"></stop><stop offset="0.47" stop-color="white" stop-opacity="0"></stop><stop offset="0.48" stop-color="white" stop-opacity="0.5"></stop><stop offset="0.5" stop-color="white"></stop><stop offset="0.54" stop-color="white"></stop><stop offset="0.58" stop-color="white"></stop><stop offset="0.6" stop-color="white" stop-opacity="0.5"></stop><stop offset="0.62" stop-color="white" stop-opacity="0"></stop></linearGradient><linearGradient id="paint38_linear_3251_9620" x1="98.3857" y1="40.5304" x2="89.925" y2="34.1541" gradientUnits="userSpaceOnUse"><stop stop-color="white"></stop><stop offset="0.5" stop-color="white"></stop><stop offset="1" stop-color="white"></stop></linearGradient><linearGradient id="paint39_linear_3251_9620" x1="86.9076" y1="36.9631" x2="92.769" y2="40.5153" gradientUnits="userSpaceOnUse"><stop stop-color="#0080F1"></stop><stop offset="0.73" stop-color="#1E7FF8" stop-opacity="0.5"></stop><stop offset="1" stop-color="#3B7EFF" stop-opacity="0"></stop></linearGradient><linearGradient id="paint40_linear_3251_9620" x1="88.3245" y1="47.5483" x2="99.2659" y2="34.509" gradientUnits="userSpaceOnUse"><stop offset="0.13" stop-color="#307BE7"></stop><stop offset="0.52" stop-color="#2B95EF"></stop><stop offset="0.93" stop-color="#26AFF8"></stop></linearGradient><linearGradient id="paint41_linear_3251_9620" x1="71.8588" y1="38.1877" x2="75.6335" y2="24.8862" gradientUnits="userSpaceOnUse"><stop stop-color="#558629"></stop><stop offset="0.5" stop-color="#69A038"></stop><stop offset="1" stop-color="#7DBB46"></stop></linearGradient><radialGradient id="paint42_radial_3251_9620" cx="0" cy="0" r="1" gradientUnits="userSpaceOnUse" gradientTransform="translate(58.7714 8.10919) scale(14.199 14.199)"><stop stop-color="#7FD037"></stop><stop offset="0.5" stop-color="#6AAB30"></stop><stop offset="1" stop-color="#558629"></stop></radialGradient><radialGradient id="paint43_radial_3251_9620" cx="0" cy="0" r="1" gradientUnits="userSpaceOnUse" gradientTransform="translate(57.7942 22.8554) scale(8.77021)"><stop stop-color="#7FD037"></stop><stop offset="0.5" stop-color="#6AAB30"></stop><stop offset="1" stop-color="#558629"></stop></radialGradient><linearGradient id="paint44_linear_3251_9620" x1="55.8412" y1="20.6095" x2="55.7656" y2="10.8267" gradientUnits="userSpaceOnUse"><stop offset="0.09" stop-color="#E83C2B"></stop><stop offset="0.55" stop-color="#F49E95"></stop><stop offset="1" stop-color="white"></stop></linearGradient><linearGradient id="paint45_linear_3251_9620" x1="51.5454" y1="15.824" x2="50.9982" y2="7.89078" gradientUnits="userSpaceOnUse"><stop stop-color="#B1D3E2"></stop><stop offset="0.22" stop-color="#D8E9F0"></stop><stop offset="0.44" stop-color="white"></stop></linearGradient><linearGradient id="paint46_linear_3251_9620" x1="51.5268" y1="12.1153" x2="50.7543" y2="10.8547" gradientUnits="userSpaceOnUse"><stop stop-color="#00798D"></stop><stop offset="0.5" stop-color="#003C46"></stop><stop offset="1"></stop></linearGradient><linearGradient id="paint47_linear_3251_9620" x1="52.5114" y1="14.1164" x2="51.6757" y2="12.8639" gradientUnits="userSpaceOnUse"><stop stop-color="#00798D"></stop><stop offset="0.5" stop-color="#003C46"></stop><stop offset="1"></stop></linearGradient><linearGradient id="paint48_linear_3251_9620" x1="50.2457" y1="13.8428" x2="49.3901" y2="12.5182" gradientUnits="userSpaceOnUse"><stop stop-color="#00798D"></stop><stop offset="0.5" stop-color="#003C46"></stop><stop offset="1"></stop></linearGradient><linearGradient id="paint49_linear_3251_9620" x1="52.4685" y1="14.8524" x2="49.9324" y2="10.5837" gradientUnits="userSpaceOnUse"><stop stop-color="#00798D"></stop><stop offset="0.5" stop-color="#003C46"></stop><stop offset="1"></stop></linearGradient><linearGradient id="paint50_linear_3251_9620" x1="49.6861" y1="9.99739" x2="52.7901" y2="15.4704" gradientUnits="userSpaceOnUse"><stop stop-color="#00798D"></stop><stop offset="0.5" stop-color="#003C46"></stop><stop offset="1"></stop></linearGradient><linearGradient id="paint51_linear_3251_9620" x1="62.0897" y1="15.0429" x2="61.5425" y2="7.10967" gradientUnits="userSpaceOnUse"><stop stop-color="#B1D3E2"></stop><stop offset="0.22" stop-color="#D8E9F0"></stop><stop offset="0.44" stop-color="white"></stop></linearGradient><linearGradient id="paint52_linear_3251_9620" x1="63.8631" y1="10.12" x2="62.9314" y2="8.8046" gradientUnits="userSpaceOnUse"><stop stop-color="#00798D"></stop><stop offset="0.5" stop-color="#003C46"></stop><stop offset="1"></stop></linearGradient><linearGradient id="paint53_linear_3251_9620" x1="64.6887" y1="12.067" x2="63.8529" y2="10.8145" gradientUnits="userSpaceOnUse"><stop stop-color="#00798D"></stop><stop offset="0.5" stop-color="#003C46"></stop><stop offset="1"></stop></linearGradient><linearGradient id="paint54_linear_3251_9620" x1="63.4445" y1="12.0736" x2="62.5359" y2="10.8627" gradientUnits="userSpaceOnUse"><stop stop-color="#00798D"></stop><stop offset="0.5" stop-color="#003C46"></stop><stop offset="1"></stop></linearGradient><linearGradient id="paint55_linear_3251_9620" x1="64.6483" y1="12.8031" x2="62.1122" y2="8.53432" gradientUnits="userSpaceOnUse"><stop stop-color="#00798D"></stop><stop offset="0.5" stop-color="#003C46"></stop><stop offset="1"></stop></linearGradient><linearGradient id="paint56_linear_3251_9620" x1="61.8665" y1="7.94784" x2="64.9705" y2="13.4209" gradientUnits="userSpaceOnUse"><stop stop-color="#00798D"></stop><stop offset="0.5" stop-color="#003C46"></stop><stop offset="1"></stop></linearGradient><linearGradient id="paint57_linear_3251_9620" x1="42.9498" y1="46.3904" x2="38.5063" y2="37.1925" gradientUnits="userSpaceOnUse"><stop stop-color="#558629"></stop><stop offset="0.5" stop-color="#74A24A"></stop><stop offset="1" stop-color="#93BF6C"></stop></linearGradient><linearGradient id="paint58_linear_3251_9620" x1="59.4554" y1="29.1052" x2="59.7101" y2="13.1411" gradientUnits="userSpaceOnUse"><stop offset="0.09" stop-color="#D64FC3"></stop><stop offset="0.55" stop-color="#EAA7E1"></stop><stop offset="1" stop-color="white"></stop></linearGradient><linearGradient id="paint59_linear_3251_9620" x1="58.9665" y1="20.6094" x2="60.118" y2="29.2732" gradientUnits="userSpaceOnUse"><stop stop-color="white"></stop><stop offset="0.5" stop-color="white" stop-opacity="0.5"></stop><stop offset="1" stop-color="white" stop-opacity="0"></stop></linearGradient><linearGradient id="paint60_linear_3251_9620" x1="53.577" y1="35.2497" x2="54.9912" y2="28.7403" gradientUnits="userSpaceOnUse"><stop stop-color="#558629"></stop><stop offset="0.5" stop-color="#69A235"></stop><stop offset="1" stop-color="#7CBF41"></stop></linearGradient><clipPath id="clip0_3251_9620"><rect width="40" height="40" fill="white" transform="translate(2 12.946) rotate(-10)"></rect></clipPath><clipPath id="clip1_3251_9620"><rect width="40" height="40" fill="white" transform="translate(2 12.946) rotate(-10)"></rect></clipPath><clipPath id="clip2_3251_9620"><rect width="40" height="40" fill="white" transform="translate(74.9453 6) rotate(10)"></rect></clipPath><clipPath id="clip3_3251_9620"><rect width="40" height="40" fill="white" transform="translate(74.9453 6) rotate(10)"></rect></clipPath><clipPath id="clip4_3251_9620"><rect width="50" height="50" fill="white" transform="translate(34)"></rect></clipPath><clipPath id="clip5_3251_9620"><rect width="50" height="50" fill="white" transform="translate(34)"></rect></clipPath></defs></svg>