<svg width="118" height="77" viewBox="0 0 118 77" fill="none" xmlns="http://www.w3.org/2000/svg"><g clip-path="url(#clip0_3251_8365)"><g clip-path="url(#clip1_3251_8365)"><mask id="mask0_3251_8365" maskUnits="userSpaceOnUse" x="2" y="6" width="47" height="47" style="mask-type: luminance;"><path d="M41.3923 6.00012L2 12.946L8.94593 52.3384L48.3382 45.3924L41.3923 6.00012Z" fill="white"></path></mask><g mask="url(#mask0_3251_8365)"><path d="M6.52803 13.4915C6.52803 13.4915 7.09104 17.8978 3.61451 18.6466C3.61451 18.6466 7.09206 17.7601 8.43717 23.7203C8.43717 23.7203 6.93123 18.2548 10.8839 17.3909C10.8839 17.3909 7.88322 18.0633 6.52803 13.4915Z" fill="#FFFED7"></path><path d="M6.52803 13.4915C6.52803 13.4915 7.09104 17.8978 3.61451 18.6466C3.61451 18.6466 7.09206 17.7601 8.43717 23.7203C8.43717 23.7203 6.93123 18.2548 10.8839 17.3909C10.8839 17.3909 7.88322 18.0633 6.52803 13.4915Z" stroke="url(#paint0_radial_3251_8365)" stroke-width="1.01562" stroke-linecap="round" stroke-linejoin="round"></path><path d="M41.0213 16.1007L41.0215 16.1005L38.8453 15.0221L37.7062 16.2755L17.3454 18.0391C16.6978 18.0952 16.1913 18.6216 16.1602 19.271L15.1135 41.1342L13.5033 42.906L15.7069 43.9909L15.7078 43.9898C15.8747 44.0814 16.0637 44.139 16.2666 44.1491L40.1402 45.3452C40.8746 45.382 41.4931 44.8024 41.5039 44.0671L41.8967 17.3477C41.9053 16.7672 41.5336 16.2776 41.0213 16.1007Z" fill="#A69FBF"></path><path d="M41.0213 16.1007L41.0215 16.1005L38.8453 15.0221L37.7062 16.2755L17.3454 18.0391C16.6978 18.0952 16.1913 18.6216 16.1602 19.271L15.1135 41.1342L13.5033 42.906L15.7069 43.9909L15.7078 43.9898C15.8747 44.0814 16.0637 44.139 16.2666 44.1491L40.1402 45.3452C40.8746 45.382 41.4931 44.8024 41.5039 44.0671L41.8967 17.3477C41.9053 16.7672 41.5336 16.2776 41.0213 16.1007Z" stroke="#7F7699" stroke-width="1.01562" stroke-linecap="round" stroke-linejoin="round"></path><path d="M14.0389 43.0515L37.9124 44.2475C38.6469 44.2843 39.2654 43.7047 39.2762 42.9695L39.669 16.2501C39.6803 15.4811 39.0245 14.8707 38.2582 14.9371L15.1177 16.9415C14.47 16.9976 13.9636 17.5239 13.9325 18.1733L12.8065 41.6922C12.7722 42.4075 13.3236 43.0156 14.0389 43.0515Z" fill="url(#paint1_linear_3251_8365)"></path><g opacity="0.6"><path d="M38.5311 20.0492L38.1603 43.7486" stroke="white" stroke-width="1.01562" stroke-linecap="round" stroke-linejoin="round"></path></g><g opacity="0.6"><path d="M13.5033 42.9059L14.5978 23.1469" stroke="white" stroke-width="1.01562" stroke-linecap="round" stroke-linejoin="round"></path></g><g opacity="0.4"><path d="M19.1782 32.4105L19.088 33.9163C19.0528 34.5056 18.5672 34.9668 17.9768 34.9718L16.4685 34.9844C15.8184 34.9897 15.2996 34.4436 15.3385 33.7947L15.4286 32.2889C15.4638 31.6996 15.9495 31.2384 16.5399 31.2334L18.0482 31.2208C18.6982 31.2155 19.217 31.7616 19.1782 32.4105Z" fill="#A69FBF"></path></g><g opacity="0.4"><path d="M18.8406 38.0366L18.7506 39.5404C18.715 40.1362 18.2194 40.5998 17.6226 40.5959L16.1158 40.5859C15.4724 40.5816 14.9642 40.0385 15.0027 39.3962L15.0927 37.8924C15.1283 37.2966 15.6239 36.833 16.2207 36.8369L17.7275 36.8469C18.3709 36.8512 18.8791 37.3943 18.8406 38.0366Z" fill="#A69FBF"></path></g><g opacity="0.4"><path d="M36.9835 26.2028L36.9592 27.7094C36.9495 28.3087 36.4707 28.7947 35.8716 28.8133L34.3659 28.8601C33.7253 28.88 33.1981 28.3606 33.2085 27.7198L33.233 26.2136C33.2426 25.6143 33.7213 25.1285 34.3203 25.1097L35.8259 25.0625C36.4665 25.0425 36.9939 25.5619 36.9835 26.2028Z" fill="#A69FBF"></path></g><g opacity="0.4"><path d="M36.885 32.2152L36.8606 33.7201C36.8508 34.3293 36.3568 34.8194 35.7476 34.8246L34.2421 34.8373C33.6112 34.8426 33.0999 34.3272 33.1102 33.6963L33.1347 32.1911C33.1447 31.5819 33.6388 31.0918 34.248 31.0868L35.7533 31.0745C36.384 31.0693 36.8951 31.5845 36.885 32.2152Z" fill="#A69FBF"></path></g><g opacity="0.4"><path d="M36.7901 38.1031L36.7657 39.6084C36.7558 40.2241 36.2518 40.7169 35.636 40.7129L34.1311 40.7032C33.5069 40.6992 33.0057 40.1866 33.0158 39.5624L33.0402 38.0572C33.0502 37.4415 33.5541 36.9487 34.1699 36.9527L35.6748 36.9624C36.2991 36.9664 36.8002 37.4789 36.7901 38.1031Z" fill="#A69FBF"></path></g><g opacity="0.4"><path d="M31.1078 26.3976L31.0683 27.9049C31.0527 28.4997 30.5757 28.979 29.981 28.9975L28.4742 29.0444C27.8292 29.0646 27.3 28.5381 27.317 27.893L27.3565 26.3857C27.3721 25.7909 27.849 25.3116 28.4438 25.293L29.9506 25.2461C30.5956 25.226 31.1248 25.7525 31.1078 26.3976Z" fill="#A69FBF"></path></g><g opacity="0.4"><path d="M30.9536 32.2757L30.914 33.7806C30.898 34.3853 30.4059 34.8687 29.801 34.8736L28.2952 34.8861C27.6599 34.8913 27.1469 34.369 27.1636 33.734L27.2032 32.2292C27.2192 31.6245 27.7113 31.1411 28.3162 31.1361L29.822 31.1236C30.4573 31.1184 30.9703 31.6408 30.9536 32.2757Z" fill="#A69FBF"></path></g><g opacity="0.4"><path d="M30.8008 38.0763L30.7611 39.581C30.7451 40.1921 30.2429 40.678 29.6315 40.674L28.1261 40.6641C27.4973 40.6599 26.9946 40.1403 27.0112 39.5119L27.0509 38.0075C27.067 37.3964 27.569 36.9105 28.1803 36.9144L29.6857 36.9241C30.3145 36.9281 30.8173 37.4477 30.8008 38.0763Z" fill="#A69FBF"></path></g><g opacity="0.4"><path d="M25.0304 26.5935L24.9832 28.1005C24.9646 28.693 24.4887 29.169 23.8962 29.1875L22.3896 29.2345C21.7422 29.2547 21.2121 28.7244 21.2325 28.0771L21.2799 26.5699C21.2986 25.9775 21.7746 25.5016 22.367 25.4832L23.8734 25.4362C24.5206 25.416 25.0507 25.9462 25.0304 26.5935Z" fill="#A69FBF"></path></g><g opacity="0.4"><path d="M24.8509 32.3323L24.8037 33.8372C24.7848 34.4397 24.2935 34.9197 23.6908 34.9247L22.1853 34.937C21.5479 34.9423 21.034 34.4164 21.054 33.7793L21.1012 32.2744C21.1201 31.672 21.6114 31.1919 22.214 31.187L23.7195 31.1746C24.3569 31.1693 24.8708 31.6952 24.8509 32.3323Z" fill="#A69FBF"></path></g><g opacity="0.4"><path d="M24.6723 38.0421L24.6249 39.5465C24.6058 40.1553 24.1047 40.6377 23.4957 40.6338L21.9905 40.6242C21.3595 40.6202 20.8558 40.097 20.8756 39.4663L20.923 37.9618C20.9421 37.3531 21.4431 36.8706 22.0522 36.8745L23.5574 36.8842C24.1884 36.8882 24.6921 37.4114 24.6723 38.0421Z" fill="#A69FBF"></path></g><g opacity="0.2"><path d="M39.6769 17.6527L39.5884 23.6974C38.011 31.4786 34.955 35.2343 33.5384 36.6169C33.1141 37.0312 32.5792 37.3136 31.9994 37.4356C23.957 39.1235 17.7803 40.0587 13.6201 40.5709C13.3576 40.6029 13.1029 40.6343 12.8558 40.6636L13.4981 27.2459C14.3512 23.6351 14.5524 20.9785 14.5701 20.7279C14.571 20.7151 14.5714 20.7086 14.5714 20.7086C14.603 20.0597 15.109 19.5326 15.7567 19.4763L38.8977 17.472C39.1822 17.448 39.4513 17.5164 39.6769 17.6527Z" fill="#8585CC"></path></g><path d="M14.0389 43.0515L37.9124 44.2475C38.6469 44.2843 39.2654 43.7047 39.2762 42.9695L39.669 16.2501C39.6803 15.4811 39.0245 14.8707 38.2582 14.9371L15.1177 16.9415C14.47 16.9976 13.9636 17.5239 13.9325 18.1733L12.8065 41.6922C12.7722 42.4075 13.3236 43.0156 14.0389 43.0515Z" stroke="#A19EAF" stroke-width="1.01562" stroke-linecap="round" stroke-linejoin="round"></path><path d="M14.0393 43.0513L37.9128 44.2473C38.6473 44.2841 39.2658 43.7045 39.2766 42.9693L39.6694 16.2499C39.6807 15.4809 39.0249 14.8706 38.2586 14.9369L15.1181 16.9413C14.4704 16.9974 13.964 17.5238 13.9329 18.1732" stroke="#7F7699" stroke-width="1.01562" stroke-linecap="round" stroke-linejoin="round"></path><path d="M39.6686 16.2505L39.5908 21.5278L13.6999 23.0177L13.9317 18.1731C13.9633 17.5242 14.4694 16.9978 15.1171 16.9415L38.2574 14.9374C39.0238 14.8704 39.6797 15.4814 39.6686 16.2505Z" fill="#FF4D67"></path><path d="M39.6686 16.2505L39.5908 21.5278L13.6999 23.0177L13.9317 18.1731C13.9633 17.5242 14.4694 16.9978 15.1171 16.9415L38.2574 14.9374C39.0238 14.8704 39.6797 15.4814 39.6686 16.2505Z" stroke="#9E1835" stroke-width="1.01562" stroke-linecap="round" stroke-linejoin="round"></path><g opacity="0.4"><path d="M39.4815 17.9305L38.9463 16.1742C38.884 15.9699 38.6872 15.8373 38.4746 15.8561L15.2797 17.905C15.0623 17.9243 14.8895 18.096 14.8698 18.3134C14.6867 20.33 14.7626 22.0003 14.7817 22.0064" stroke="white" stroke-width="1.01562" stroke-linecap="round" stroke-linejoin="round"></path></g><path d="M41.896 17.3476L41.818 22.6328L39.5908 21.5278L39.6685 16.2505C39.6753 15.7717 39.424 15.3544 39.0486 15.1239L41.0209 16.1009C41.5329 16.278 41.9048 16.7677 41.896 17.3476Z" fill="#B51845"></path><path d="M41.896 17.3476L41.818 22.6328L39.5908 21.5278L39.6685 16.2505C39.6753 15.7717 39.424 15.3544 39.0486 15.1239L41.0209 16.1009C41.5329 16.278 41.9048 16.7677 41.896 17.3476Z" stroke="#89102F" stroke-width="1.01562" stroke-linecap="round" stroke-linejoin="round"></path><path d="M41.0813 45.0069C40.8348 45.2324 40.5018 45.3632 40.1407 45.3452L16.2669 44.1487C16.0639 44.1389 15.8752 44.0815 15.7081 43.9899L15.7066 43.9906L13.5033 42.9062C13.6646 42.9902 13.8454 43.0416 14.0386 43.0518L37.912 44.2475C38.3177 44.268 38.6882 44.1001 38.9406 43.8226L41.0813 45.0069Z" fill="#7F7699"></path><path d="M41.0813 45.0069C40.8348 45.2324 40.5018 45.3632 40.1407 45.3452L16.2669 44.1487C16.0639 44.1389 15.8752 44.0815 15.7081 43.9899L15.7066 43.9906L13.5033 42.9062C13.6646 42.9902 13.8454 43.0416 14.0386 43.0518L37.912 44.2475C38.3177 44.268 38.6882 44.1001 38.9406 43.8226L41.0813 45.0069Z" stroke="#7F7699" stroke-width="1.01562" stroke-linecap="round" stroke-linejoin="round"></path><path d="M33.9741 15.3078C33.6246 10.9683 29.9564 10.5221 29.0113 13.8389C28.2149 16.6338 29.2262 19.116 29.7902 19.5103C30.538 20.033 32.0147 18.923 31.8027 17.9825C31.5488 16.8564 31.4166 16.2084 31.5542 15.2607C31.7115 14.1773 32.1318 15.0856 32.1392 15.4667L33.9741 15.3078Z" fill="url(#paint2_linear_3251_8365)"></path><g opacity="0.85"><path d="M29.0774 18.2557C29.0774 18.2557 28.4276 13.9934 30.6143 12.8124C32.696 11.6879 33.2208 15.288 33.2208 15.288" stroke="white" stroke-width="1.01562" stroke-linecap="round" stroke-linejoin="round"></path></g><path d="M22.6044 16.2925C22.2549 11.953 18.5867 11.5069 17.6416 14.8236C16.8452 17.6185 17.8565 20.1007 18.4205 20.495C19.1683 21.0177 20.645 19.9078 20.433 18.9672C20.1791 17.8411 20.0469 17.1931 20.1845 16.2454C20.3418 15.162 20.7621 16.0703 20.7695 16.4515L22.6044 16.2925Z" fill="url(#paint3_linear_3251_8365)"></path><g opacity="0.85"><path d="M17.7179 19.2712C17.7179 19.2712 17.0665 14.6088 19.4227 13.7247C21.4452 12.9657 21.772 16.2125 21.772 16.2125" stroke="white" stroke-width="1.01562" stroke-linecap="round" stroke-linejoin="round"></path></g><path d="M33.9741 15.3078C33.6246 10.9683 29.9564 10.5221 29.0113 13.8389C28.2149 16.6338 29.2262 19.116 29.7902 19.5103C30.538 20.033 32.0147 18.923 31.8027 17.9825C31.5488 16.8564 31.4166 16.2084 31.5542 15.2607C31.7115 14.1773 32.1318 15.0856 32.1392 15.4667L33.9741 15.3078Z" stroke="#BC5900" stroke-width="1.01562" stroke-linecap="round" stroke-linejoin="round"></path><path d="M22.6044 16.2925C22.2549 11.953 18.5867 11.5069 17.6416 14.8236C16.8452 17.6185 17.8565 20.1007 18.4205 20.495C19.1683 21.0177 20.645 19.9078 20.433 18.9672C20.1791 17.8411 20.0469 17.1931 20.1845 16.2454C20.3418 15.162 20.7621 16.0703 20.7695 16.4515L22.6044 16.2925Z" stroke="#BC5900" stroke-width="1.01562" stroke-linecap="round" stroke-linejoin="round"></path><path d="M32.1387 15.4669L35.0803 15.212" stroke="#9E1835" stroke-width="1.01562" stroke-linecap="round" stroke-linejoin="round"></path><path d="M20.769 16.4515L25.2328 16.0651" stroke="#9E1835" stroke-width="1.01562" stroke-linecap="round" stroke-linejoin="round"></path><path d="M29.7902 19.5103C30.5379 20.033 32.0147 18.9231 31.8027 17.9826C31.5488 16.8565 31.4165 16.2084 31.5541 15.2607C31.7114 14.1773 32.1318 15.0856 32.1392 15.4668" stroke="#9E4000" stroke-width="1.01562" stroke-linecap="round" stroke-linejoin="round"></path><path d="M18.4203 20.4952C19.1681 21.0179 20.6448 19.908 20.4328 18.9674C20.1789 17.8413 20.0467 17.1933 20.1843 16.2455C20.3416 15.1622 20.7619 16.0705 20.7693 16.4516" stroke="#9E4000" stroke-width="1.01562" stroke-linecap="round" stroke-linejoin="round"></path><path d="M38.2578 14.9368L15.1169 16.9411C14.4695 16.9973 13.9631 17.5239 13.9318 18.1731C13.9318 18.1731 13.9316 18.1795 13.9306 18.1926C13.8954 18.6971 13.117 28.9267 7.79136 37.0845C7.37345 37.7247 7.8708 38.5649 8.63247 38.4989C9.67223 38.4088 11.126 38.264 12.9804 38.0352C17.1407 37.5233 23.3176 36.5878 31.36 34.8999C31.9399 34.7782 32.4748 34.4954 32.8988 34.0815C34.5852 32.4354 38.5974 27.424 39.6678 16.259C39.6684 16.2527 39.6688 16.2465 39.6688 16.2403C39.6744 15.4756 39.0209 14.8711 38.2578 14.9368Z" fill="white"></path><path d="M39.6684 16.2498C39.4952 18.0638 39.2433 19.715 38.9372 21.2162L13.1787 23.2594L13.1779 23.2597C13.7639 20.406 13.9147 18.4082 13.9303 18.1928C13.9314 18.1797 13.9315 18.1732 13.9315 18.1732C13.9628 17.5241 14.4692 16.9975 15.1166 16.9414L38.2576 14.937C39.0238 14.871 39.6794 15.4806 39.6684 16.2498Z" fill="#FF4D67"></path><g opacity="0.4"><path d="M39.48 17.9306L38.9448 16.1743C38.8825 15.9701 38.6857 15.8375 38.4731 15.8562L15.2781 17.9052C15.0607 17.9244 14.888 18.0962 14.8683 18.3135C14.6851 20.3302 13.5385 30.1058 7.99735 38.315" stroke="white" stroke-width="1.01562" stroke-linecap="round" stroke-linejoin="round"></path></g><path d="M38.2578 14.9368L15.1169 16.9411C14.4695 16.9973 13.9631 17.5239 13.9318 18.1731C13.9318 18.1731 13.9316 18.1795 13.9306 18.1926C13.8954 18.6971 13.117 28.9267 7.79136 37.0845C7.37345 37.7247 7.8708 38.5649 8.63247 38.4989C9.67223 38.4088 11.126 38.264 12.9804 38.0352C17.1407 37.5233 23.3176 36.5878 31.36 34.8999C31.9399 34.7782 32.4748 34.4954 32.8988 34.0815C34.5852 32.4354 38.5974 27.424 39.6678 16.259C39.6684 16.2527 39.6688 16.2465 39.6688 16.2403C39.6744 15.4756 39.0209 14.8711 38.2578 14.9368Z" stroke="#9591AF" stroke-width="1.01562" stroke-linecap="round" stroke-linejoin="round"></path><path d="M39.6684 16.2498C39.4952 18.0638 39.2433 19.715 38.9372 21.2162L13.1787 23.2594L13.1779 23.2597C13.7639 20.406 13.9147 18.4082 13.9303 18.1928C13.9314 18.1797 13.9315 18.1732 13.9315 18.1732C13.9628 17.5241 14.4692 16.9975 15.1166 16.9414L38.2576 14.937C39.0238 14.871 39.6794 15.4806 39.6684 16.2498Z" stroke="#9E1835" stroke-width="1.01562" stroke-linecap="round" stroke-linejoin="round"></path><path d="M33.9734 15.308C33.6238 10.9685 29.9556 10.5223 29.0105 13.8391C28.2142 16.634 29.2255 19.1162 29.7895 19.5105C30.5372 20.0332 32.0139 18.9232 31.8019 17.9826C31.5481 16.8566 31.4158 16.2086 31.5534 15.2608C31.7107 14.1775 32.131 15.0858 32.1384 15.4669L33.9734 15.308Z" fill="url(#paint4_linear_3251_8365)"></path><g opacity="0.85"><path d="M29.077 18.2558C29.077 18.2558 28.4272 13.9936 30.6139 12.8125C32.6955 11.6881 33.2204 15.2881 33.2204 15.2881" stroke="white" stroke-width="1.01562" stroke-linecap="round" stroke-linejoin="round"></path></g><path d="M22.604 16.2926C22.2544 11.9531 18.5862 11.5069 17.6412 14.8237C16.8448 17.6186 17.8561 20.1008 18.4201 20.4951C19.1679 21.0178 20.6446 19.9079 20.4326 18.9673C20.1787 17.8412 20.0465 17.1932 20.184 16.2455C20.3414 15.1621 20.7616 16.0704 20.769 16.4515L22.604 16.2926Z" fill="url(#paint5_linear_3251_8365)"></path><g opacity="0.85"><path d="M17.7176 19.2712C17.7176 19.2712 17.0662 14.6088 19.4223 13.7247C21.4448 12.9657 21.7716 16.2125 21.7716 16.2125" stroke="white" stroke-width="1.01562" stroke-linecap="round" stroke-linejoin="round"></path></g><path d="M33.9734 15.308C33.6238 10.9685 29.9556 10.5223 29.0105 13.8391C28.2142 16.634 29.2255 19.1162 29.7895 19.5105C30.5372 20.0332 32.0139 18.9232 31.8019 17.9826C31.5481 16.8566 31.4158 16.2086 31.5534 15.2608C31.7107 14.1775 32.131 15.0858 32.1384 15.4669L33.9734 15.308Z" stroke="#BC5900" stroke-width="1.01562" stroke-linecap="round" stroke-linejoin="round"></path><path d="M22.604 16.2926C22.2544 11.9531 18.5862 11.5069 17.6412 14.8237C16.8448 17.6186 17.8561 20.1008 18.4201 20.4951C19.1679 21.0178 20.6446 19.9079 20.4326 18.9673C20.1787 17.8412 20.0465 17.1932 20.184 16.2455C20.3414 15.1621 20.7616 16.0704 20.769 16.4515L22.604 16.2926Z" stroke="#BC5900" stroke-width="1.01562" stroke-linecap="round" stroke-linejoin="round"></path><path d="M32.1381 15.467L35.0797 15.2122" stroke="#9E1835" stroke-width="1.01562" stroke-linecap="round" stroke-linejoin="round"></path><path d="M20.7686 16.4517L25.2325 16.0652" stroke="#9E1835" stroke-width="1.01562" stroke-linecap="round" stroke-linejoin="round"></path><path d="M29.7896 19.5104C30.5373 20.0331 32.0141 18.9233 31.8021 17.9827C31.5482 16.8566 31.4159 16.2086 31.5535 15.2608C31.7108 14.1774 32.1312 15.0857 32.1386 15.4669" stroke="#9E4000" stroke-width="1.01562" stroke-linecap="round" stroke-linejoin="round"></path><path d="M18.4199 20.4953C19.1676 21.018 20.6444 19.9081 20.4323 18.9675C20.1785 17.8415 20.0462 17.1934 20.1838 16.2457C20.3411 15.1623 20.7615 16.0706 20.7689 16.4517" stroke="#9E4000" stroke-width="1.01562" stroke-linecap="round" stroke-linejoin="round"></path><g opacity="0.7"><path d="M19.1038 25.873C19.8235 25.5419 20.5853 25.2375 21.3814 24.9676C27.252 22.9771 33.066 23.5204 33.7084 26.3692C34.2527 28.783 31.0817 32.3036 25.2112 34.2941C19.3406 36.2846 12.9651 36.4531 12.449 33.5776C11.9437 30.7621 15.9164 28.719 18.9671 28.1052" stroke="#B5FF00" stroke-width="1.01562" stroke-linecap="round" stroke-linejoin="round"></path></g><path d="M17.0787 29.5809C18.5671 28.1409 19.3443 24.8118 16.3313 26.0554C15.6368 26.2654 14.2251 30.2801 13.8512 30.8501C13.0433 33.0296 11.2881 35.2957 12.5399 35.3161C14.6508 35.2567 18.1159 32.0772 17.0787 29.5809ZM17.2012 27.5153C17.1488 28.3469 16.1103 29.0761 15.5812 29.3783L16.4345 27.477C16.7927 27.4029 17.0853 27.3291 17.2012 27.5153ZM15.7791 32.0085C15.4555 32.8236 14.3501 33.3673 13.7091 33.55C13.9187 33.083 14.2015 32.4529 14.7645 31.1982C15.6147 30.7996 16.5138 30.5164 15.7791 32.0085Z" fill="#843DF4"></path><path d="M19.8215 31.0311C20.357 30.9968 21.1088 29.5681 20.2787 29.4722C18.9351 29.659 18.4078 29.3778 17.9283 30.4219C17.4646 31.7512 18.9479 30.9986 19.8215 31.0311Z" fill="#843DF4"></path><path d="M24.7547 29.8486C25.8788 27.7125 25.1029 25.4115 23.3593 25.424C22.4345 25.2319 20.0871 33.0306 19.7176 33.4286C19.3411 35.7016 23.8452 32.6594 24.7547 29.8486ZM24.1089 28.0962C24.3154 29.7621 22.0739 32.3418 21.1766 32.4721C21.5061 31.6251 22.8436 28.1849 23.2769 27.0708C23.6498 27.207 24.0432 27.4938 24.1089 28.0962Z" fill="#843DF4"></path><path d="M28.9289 25.1777C27.7878 24.7094 27.5983 25.3848 25.5118 29.1326C24.4715 31.5067 23.6203 32.3432 23.7391 33.4366C24.7396 34.1673 25.0312 32.0207 26.0448 30.2599C26.0447 30.2597 27.5987 30.0689 27.5987 30.0689C27.3516 31.3154 27.0829 32.4049 27.0706 32.4547C26.8686 33.5319 28.1063 33.0936 28.1979 32.3004C28.3621 31.8439 29.7411 25.3713 28.9289 25.1777ZM28.0428 26.6662C28.0631 26.926 28.0509 27.4737 27.8669 28.5941L26.8245 28.7136C27.4683 27.4825 27.8461 26.9185 28.0428 26.6662Z" fill="#843DF4"></path><path d="M33.9748 24.7463C32.9838 23.9753 32.891 26.0444 31.6117 27.9404C31.2196 27.1612 31.2065 25.8042 31.2403 25.2961C31.2179 24.242 30.0801 25.0469 30.1222 25.7252C30.1201 25.7497 29.9385 28.1152 30.7657 29.2886C30.2574 30.3971 28.5275 31.5105 28.6536 32.6499C28.8163 33.0249 29.2553 32.9098 29.486 32.6216C32.8041 28.4447 34.0627 25.9128 33.9748 24.7463Z" fill="#843DF4"></path><path d="M31.5732 34.9023C28.8531 35.8975 14.1286 38.0972 7.83787 38.4132C7.90803 38.3611 7.80619 38.4584 7.84466 38.4516C16.31 37.8713 28.7106 35.764 31.6117 34.8955C31.6117 34.8955 31.58 34.9408 31.5732 34.9023Z" fill="url(#paint6_linear_3251_8365)"></path><path d="M31.5732 34.9023C28.8531 35.8976 14.1286 38.0972 7.83787 38.4132C7.90803 38.3611 7.80619 38.4584 7.84466 38.4516C16.31 37.8713 28.7106 35.764 31.6117 34.8955C31.6117 34.8955 31.58 34.9408 31.5732 34.9023Z" stroke="#9591AF" stroke-width="1.01562" stroke-linecap="round" stroke-linejoin="round"></path></g></g></g><g clip-path="url(#clip2_3251_8365)"><g clip-path="url(#clip3_3251_8365)"><mask id="mask1_3251_8365" maskUnits="userSpaceOnUse" x="67" y="6" width="48" height="47" style="mask-type: luminance;"><path d="M114.338 12.9459L74.9453 6L67.9994 45.3923L107.392 52.3382L114.338 12.9459Z" fill="white"></path></mask><g mask="url(#mask1_3251_8365)"><path d="M75.9705 30.1387C75.9705 30.1387 74.1361 35.705 72.537 35.724C71.7427 35.7335 70.513 35.9559 70.5913 36.2833C70.6436 36.5023 71.7012 37.1097 71.7012 37.1097C71.7012 37.1097 71.0227 37.9305 71.142 38.2728C71.2612 38.6151 73.1301 38.6962 73.1301 38.6962C73.1301 38.6962 73.1469 39.2127 73.6433 39.5083C74.1598 39.8159 76.4791 39.4086 77.318 38.8713C77.9799 38.4473 79.9507 35.986 80.638 33.138" fill="#43AA22"></path><path d="M75.9705 30.1387C75.9705 30.1387 74.1361 35.705 72.537 35.724C71.7427 35.7335 70.513 35.9559 70.5913 36.2833C70.6436 36.5023 71.7012 37.1097 71.7012 37.1097C71.7012 37.1097 71.0227 37.9305 71.142 38.2728C71.2612 38.6151 73.1301 38.6962 73.1301 38.6962C73.1301 38.6962 73.1469 39.2127 73.6433 39.5083C74.1598 39.8159 76.4791 39.4086 77.318 38.8713C77.9799 38.4473 79.9507 35.986 80.638 33.138" stroke="#216B0F" stroke-width="1.40625" stroke-linecap="round" stroke-linejoin="round"></path><path d="M77.7562 26.3793C76.843 19.2515 81.2525 18.3806 81.2525 18.3806C81.2525 18.3806 82.4904 14.7704 85.6424 14.808C88.0673 14.8369 88.8751 16.9771 88.8751 16.9771C90.653 17.146 92.369 17.6655 92.369 17.6655C92.369 17.6655 94.5192 16.01 97.0259 16.679C100.958 17.7282 101.616 21.844 101.74 23.6012C101.74 23.6012 111.597 29.8217 108.591 39.3038C105.958 47.6065 84.0719 44.0735 78.4354 40.2161C71.6677 35.5845 77.7562 26.3793 77.7562 26.3793Z" fill="url(#paint7_linear_3251_8365)"></path><g opacity="0.5"><path d="M79.3848 19.4738C79.3848 19.4738 83.5035 18.7775 90.1897 24.4727" stroke="#FFF792" stroke-width="1.40625" stroke-linecap="round" stroke-linejoin="round"></path></g><g opacity="0.3"><path d="M107.912 40.6786C103.38 47.1794 83.7327 43.8405 78.4362 40.2158C73.5115 36.8461 75.394 31.0531 76.7846 28.1494C75.0074 37.2538 91.2303 40.4357 100.097 37.6246L107.912 40.6786Z" fill="url(#paint8_linear_3251_8365)"></path></g><path d="M104.31 25.6838C102.24 24.3394 99.8461 31.3797 104.926 35.8438C108.734 39.1912 109.029 35.9677 109.029 35.9677C109.029 35.9677 109.342 28.9526 104.31 25.6838Z" fill="#39962B"></path><g opacity="0.5"><path d="M77.7736 23.8922C78.2298 19.882 81.2451 19.3513 81.2451 19.3513C81.2451 19.3513 82.4356 15.9887 85.5631 16.0566C87.9691 16.1089 88.7928 18.1183 88.7928 18.1183C90.5584 18.2946 92.2662 18.7982 92.2662 18.7982C92.2662 18.7982 94.3822 17.2727 96.8761 17.9243C100.788 18.9462 101.484 22.8011 101.625 24.4453C101.625 24.4453 111.469 30.3637 108.585 39.1979C108.441 39.6375 108.236 40.0406 107.974 40.4095" stroke="#FFF792" stroke-width="1.35429" stroke-linecap="round" stroke-linejoin="round"></path></g><g opacity="0.2"><path d="M85.6242 29.3135C85.8472 28.118 83.5756 28.8048 81.5161 27.6744C79.5532 26.5971 79.3456 29.5236 82.0071 30.2907C84.2311 30.9317 85.5181 29.8828 85.6242 29.3135Z" fill="#39962B"></path></g><path d="M81.2852 18.3448C81.2852 18.3448 87.0758 19.7606 90.0834 24.4742" stroke="#10351B" stroke-width="1.40625" stroke-linecap="round" stroke-linejoin="round"></path><path d="M77.7562 26.3793C76.843 19.2515 81.2525 18.3806 81.2525 18.3806C81.2525 18.3806 82.4904 14.7704 85.6424 14.808C88.0673 14.8369 88.8751 16.9771 88.8751 16.9771C90.653 17.146 92.369 17.6655 92.369 17.6655C92.369 17.6655 94.5192 16.01 97.0259 16.679C100.958 17.7282 101.616 21.844 101.74 23.6012C101.74 23.6012 111.597 29.8217 108.591 39.3038C105.958 47.6065 84.0719 44.0735 78.4354 40.2161C71.6677 35.5845 77.7562 26.3793 77.7562 26.3793Z" stroke="url(#paint9_linear_3251_8365)" stroke-width="1.40625" stroke-linecap="round" stroke-linejoin="round"></path><g opacity="0.5"><path d="M102.15 35.9062C102.831 35.9806 103.43 34.8925 102.371 34.5581C101.311 34.2237 101.145 35.7963 102.15 35.9062Z" fill="#39962B"></path></g><path d="M95.7 27.7606C95.1789 27.8232 94.8107 27.4076 94.1308 27.5373C93.0859 27.7367 90.5231 30.5236 91.2375 31.1624C91.7139 31.5885 94.0303 30.7307 95.1794 30.5013C96.3285 30.272 96.9656 30.0414 98.892 30.2634C100.119 30.4048 100.799 30.2767 100.867 29.8863C101.009 29.0734 98.3601 27.3828 97.1207 27.1888C96.3304 27.0652 96.371 27.6798 95.7 27.7606Z" fill="#FF3D3D"></path><path d="M96.6201 32.4404C96.6201 32.4404 95.2637 31.4892 93.5008 31.9651C91.8987 32.3975 91.8467 32.8089 91.9471 33.0061C92.0475 33.2033 93.7577 34.4435 95.5595 34.7206C97.0564 34.9507 98.0187 34.6755 99.0403 34.105C100.062 33.5345 100.922 32.0678 100.902 31.8259C100.883 31.584 98.1976 30.7748 96.6201 32.4404Z" fill="#FF3D3D"></path><g opacity="0.5"><path d="M95.4562 24.765C95.4562 24.765 96.581 25.5538 97.8175 24.0589" stroke="#5DB226" stroke-width="1.40625" stroke-linecap="round" stroke-linejoin="round"></path></g><path d="M96.4452 19.3354C98.2471 19.6531 99.4502 21.3714 99.1325 23.1732C98.8148 24.9751 97.0966 26.1783 95.2947 25.8605C93.4928 25.5428 92.2897 23.8246 92.6074 22.0227C92.9251 20.2208 94.6433 19.0177 96.4452 19.3354Z" fill="white"></path><path d="M96.4452 19.3354C98.2471 19.6531 99.4502 21.3714 99.1325 23.1732C98.8148 24.9751 97.0966 26.1783 95.2947 25.8605C93.4928 25.5428 92.2897 23.8246 92.6074 22.0227C92.9251 20.2208 94.6433 19.0177 96.4452 19.3354Z" stroke="#10351B" stroke-width="1.40625" stroke-linecap="round" stroke-linejoin="round"></path><path d="M96.2009 20.7198C97.2381 20.9027 97.9306 21.8917 97.7477 22.9289C97.5648 23.9661 96.5758 24.6587 95.5386 24.4758C94.5014 24.2929 93.8089 23.3039 93.9917 22.2667C94.1746 21.2295 95.1637 20.5369 96.2009 20.7198Z" fill="#10351B"></path><path d="M82.2947 16.4764C81.7871 17.0024 81.5346 17.6078 81.5037 17.6627C81.4727 17.7176 81.7131 17.1971 82.1901 16.6431C82.667 16.0891 83.0963 15.6564 83.1381 15.6093C83.18 15.5622 82.8024 15.9504 82.2947 16.4764Z" fill="white"></path><path d="M82.2723 16.5005C82.0556 16.7251 81.9311 16.9652 81.918 16.9887C81.9048 17.0121 81.9909 16.798 82.2076 16.5734C82.4243 16.3488 82.6146 16.1504 82.6325 16.1302C82.6504 16.11 82.4891 16.2759 82.2723 16.5005Z" fill="#10351B"></path><path d="M102.01 37.5573C102.01 37.5573 99.962 37.9791 96.4595 41.2352L95.1235 40.0121L94.2749 41.4141L92.5196 41.2455C92.5196 41.2455 92.7071 44.342 94.5575 45.6475C95.9317 46.6171 105.506 46.5989 108.32 39.9803" fill="#6DEC51"></path><g opacity="0.5"><path d="M92.5196 41.2454L94.4472 42.4431L95.3083 41.4512L96.4571 42.4126C96.4571 42.4126 98.2532 40.4209 101.605 37.6853" stroke="#FFF792" stroke-width="1.40625" stroke-linecap="round" stroke-linejoin="round"></path></g><path d="M102.01 37.5573C102.01 37.5573 99.962 37.9791 96.4595 41.2352L95.1235 40.0121L94.2749 41.4141L92.5196 41.2455C92.5196 41.2455 92.7071 44.342 94.5575 45.6475C95.9317 46.6171 105.506 46.5989 108.32 39.9803" stroke="#348922" stroke-width="1.40625" stroke-linecap="round" stroke-linejoin="round"></path><g opacity="0.5"><path d="M103.981 41.4184C105.78 41.9863 107.057 38.5851 105.367 38.153C103.677 37.7209 102.182 40.8504 103.981 41.4184Z" fill="#39962B"></path></g><path d="M82.5673 33.7782C82.5673 33.7782 81.3161 39.6462 79.7171 39.6652C78.9228 39.6747 77.6931 39.8971 77.7713 40.2246C77.8236 40.4436 78.8812 41.0509 78.8812 41.0509C78.8812 41.0509 78.2028 41.8718 78.322 42.2141C78.4413 42.5564 80.3102 42.6375 80.3102 42.6375C80.3102 42.6375 80.3269 43.154 80.8234 43.4496C81.3398 43.7572 83.6591 43.3499 84.498 42.8126C85.1599 42.3886 87.1307 39.9273 87.818 37.0793" fill="#6DEC51"></path><g opacity="0.5"><path d="M78.0399 40.5036C78.0399 40.5036 80.6147 41.1596 81.2746 39.8396C83.0471 36.294 82.568 33.7784 82.568 33.7784" stroke="#FFF792" stroke-width="1.40625" stroke-linecap="round" stroke-linejoin="round"></path></g><path d="M82.5673 33.7782C82.5673 33.7782 81.3161 39.6462 79.7171 39.6652C78.9228 39.6747 77.6931 39.8971 77.7713 40.2246C77.8236 40.4436 78.8812 41.0509 78.8812 41.0509C78.8812 41.0509 78.2028 41.8718 78.322 42.2141C78.4413 42.5564 80.3102 42.6375 80.3102 42.6375C80.3102 42.6375 80.3269 43.154 80.8234 43.4496C81.3398 43.7572 83.6591 43.3499 84.498 42.8126C85.1599 42.3886 87.1307 39.9273 87.818 37.0793" stroke="#348D25" stroke-width="1.40625" stroke-linecap="round" stroke-linejoin="round"></path></g></g></g><g clip-path="url(#clip4_3251_8365)"><g clip-path="url(#clip5_3251_8365)"><mask id="mask2_3251_8365" maskUnits="userSpaceOnUse" x="34" y="0" width="50" height="50" style="mask-type: luminance;"><path d="M84 0H34V50H84V0Z" fill="white"></path></mask><g mask="url(#mask2_3251_8365)"><path d="M72.9902 7.81055C73.0618 5.54982 71.2866 3.66809 69.0252 3.60763C66.7638 3.54716 64.8724 5.33082 64.8008 7.59155C64.7291 9.85227 66.5043 11.734 68.7657 11.7945C71.0272 11.8549 72.9185 10.0713 72.9902 7.81055Z" fill="url(#paint10_radial_3251_8365)"></path><path d="M72.9902 7.81055C73.0618 5.54982 71.2866 3.66809 69.0252 3.60763C66.7638 3.54716 64.8724 5.33082 64.8008 7.59155C64.7291 9.85227 66.5043 11.734 68.7657 11.7945C71.0272 11.8549 72.9185 10.0713 72.9902 7.81055Z" stroke="url(#paint11_linear_3251_8365)" stroke-width="0.781253" stroke-linecap="round" stroke-linejoin="round"></path><path d="M67.421 7.1136C66.8541 8.34633 67.345 9.77854 68.5173 10.3126C69.6897 10.8467 71.0996 10.2803 71.6665 9.0476C72.2333 7.81488 71.7424 6.38267 70.5701 5.84859C69.3978 5.31452 67.9878 5.88088 67.421 7.1136Z" fill="url(#paint12_linear_3251_8365)"></path><g opacity="0.2"><path d="M65.6172 5.12367C68.9212 5.68237 71.0977 8.1963 72.205 10.3378C69.8115 14.0156 62.8401 11.036 65.6172 5.12367Z" fill="#B61060"></path></g><path d="M48.1017 2.74724C53.5139 2.41663 53.9736 10.5912 48.5614 10.9218C43.1492 11.2524 42.6895 3.07786 48.1017 2.74724Z" fill="url(#paint13_radial_3251_8365)"></path><path d="M48.1017 2.74724C53.5139 2.41663 53.9736 10.5912 48.5614 10.9218C43.1492 11.2524 42.6895 3.07786 48.1017 2.74724Z" stroke="url(#paint14_linear_3251_8365)" stroke-width="0.781253" stroke-linecap="round" stroke-linejoin="round"></path><path d="M50.1687 5.6896C50.7655 6.90233 50.2145 8.39808 48.9381 9.03035C47.6618 9.66261 46.1434 9.192 45.5466 7.97927C44.9498 6.76654 45.5008 5.27079 46.7771 4.63852C48.0535 4.00626 49.5719 4.47688 50.1687 5.6896Z" fill="url(#paint15_linear_3251_8365)"></path><g opacity="0.2"><path d="M45.1954 9.40656C46.2218 7.83212 48.7073 5.5892 52.0625 5.21676C55.7655 10.9981 46.5342 12.7612 45.1954 9.40656Z" fill="#B61060"></path></g><path d="M71.748 36.2168C73.226 48.7813 44.3384 49.691 45.0704 37.0611C45.4856 29.8986 51.0341 24.8116 57.3971 24.2883C62.2243 23.8913 70.7342 27.5993 71.748 36.2168Z" fill="url(#paint16_radial_3251_8365)"></path><path d="M71.748 36.2168C73.226 48.7813 44.3384 49.691 45.0704 37.0611C45.4856 29.8986 51.0341 24.8116 57.3971 24.2883C62.2243 23.8913 70.7342 27.5993 71.748 36.2168Z" stroke="url(#paint17_linear_3251_8365)" stroke-width="0.78125" stroke-linecap="round" stroke-linejoin="round"></path><path d="M65.9035 39.5514C65.7288 44.2929 52.8717 45.4218 51.9983 39.8094C51.5079 36.6588 53.3504 32.3575 59.2167 31.8338C64.5409 31.3586 66.0328 36.0432 65.9035 39.5514Z" fill="url(#paint18_linear_3251_8365)"></path><g opacity="0.33"><path d="M58.9688 44.0599C53.2442 44.1752 47.1836 40.5765 45.1963 35.4935C45.0869 37.3588 45.4863 40.6351 46.9385 42.601C49.8486 46.5414 59.1914 46.1771 59.4443 46.1615C63.6104 45.9076 68.4824 44.5385 70.499 41.2035C71.4395 39.6488 72.583 36.4769 71.1387 33.3529C70.1904 37.2582 67.0078 43.8969 58.9688 44.0599Z" fill="#B61060"></path></g><g opacity="0.2"><path d="M53.301 29.2821C52.114 29.8652 50.1729 30.8389 49.6369 31.7758C49.1133 32.6912 49.9292 33.5715 54.0938 34.0203C53.1644 35.2516 52.0965 36.3981 52.0965 36.3981L56.6277 38.8381L58.5993 32.7947L60.4292 32.4765L62.0537 38.3402L66.2012 36.9396C66.2012 36.9396 65.3488 33.8853 64.2615 33.0853C72.8872 34.6839 67.7037 30.5855 67.7037 30.5855C67.8045 30.6255 59.5128 29.388 53.301 29.2821Z" fill="#B61060"></path></g><path d="M72.6723 16.9197C73.6006 23.3748 67.0471 27.4094 59.2906 27.8832C51.534 28.357 44.1622 25.2773 44.3609 18.7534C44.5437 12.7471 48.3654 4.65017 57.8015 4.15431C67.7823 3.62985 71.8175 10.9767 72.6723 16.9197Z" fill="url(#paint19_radial_3251_8365)"></path><path d="M72.6723 16.9197C73.6006 23.3748 67.0471 27.4094 59.2906 27.8832C51.534 28.357 44.1622 25.2773 44.3609 18.7534C44.5437 12.7471 48.3654 4.65017 57.8015 4.15431C67.7823 3.62985 71.8175 10.9767 72.6723 16.9197Z" stroke="url(#paint20_linear_3251_8365)" stroke-width="0.781253" stroke-linecap="round" stroke-linejoin="round"></path><g opacity="0.33"><path d="M71.964 13.611C74.3729 26.4869 42.9716 29.5194 45.2756 14.0819C40.156 29.2098 58.8973 27.9073 59.2875 27.8835C66.5778 27.4382 75.9699 23.5078 71.964 13.611Z" fill="#B61060"></path></g><path d="M49.4261 28.8714C47.8048 27.9591 43.7987 31.1716 42.5456 33.8497C41.0198 37.1107 46.569 39.6882 48.0156 36.327C49.4623 32.9659 50.1865 29.2992 49.4261 28.8714Z" fill="url(#paint21_radial_3251_8365)"></path><path d="M49.4261 28.8714C47.8048 27.9591 43.7987 31.1716 42.5456 33.8497C41.0198 37.1107 46.569 39.6882 48.0156 36.327C49.4623 32.9659 50.1865 29.2992 49.4261 28.8714Z" stroke="url(#paint22_linear_3251_8365)" stroke-width="0.78125" stroke-linecap="round" stroke-linejoin="round"></path><g opacity="0.3"><path d="M43.4063 34.054C44.1117 32.4373 45.317 31.2321 47.0807 30.2327" stroke="white" stroke-width="0.78125" stroke-linecap="round" stroke-linejoin="round"></path></g><path d="M47.646 35.915C47.646 37.8337 43.7251 38.0246 43.7251 36.318C43.7251 34.6829 47.646 34.5759 47.646 35.915Z" fill="url(#paint23_linear_3251_8365)"></path><path d="M67.8001 27.9643C69.3643 27.1452 75.0557 31.1208 75.5331 33.8252C76.2219 37.7266 71.4017 38.8312 69.9075 35.5151C68.6308 32.6816 66.9955 28.3857 67.8001 27.9643Z" fill="url(#paint24_radial_3251_8365)"></path><path d="M67.8001 27.9643C69.3643 27.1452 75.0557 31.1208 75.5331 33.8252C76.2219 37.7266 71.4017 38.8312 69.9075 35.5151C68.6308 32.6816 66.9955 28.3857 67.8001 27.9643Z" stroke="url(#paint25_linear_3251_8365)" stroke-width="0.78125" stroke-linecap="round" stroke-linejoin="round"></path><g opacity="0.3"><path d="M71.1975 29.894C72.2962 30.6174 73.5601 31.7242 74.1913 32.8024" stroke="white" stroke-width="0.78125" stroke-linecap="round" stroke-linejoin="round"></path></g><path d="M74.5433 35.7308C74.5433 37.6737 70.5136 37.5487 70.5136 35.4886C70.5136 33.6692 74.5433 33.8775 74.5433 35.7308Z" fill="url(#paint26_linear_3251_8365)"></path><g opacity="0.5"><path d="M68.2613 9.66799C68.2486 12.2389 63.9764 14.323 58.7191 14.3229C53.4618 14.3228 49.2102 12.2387 49.2229 9.66774C49.2356 7.09683 53.5096 4.65661 58.7669 4.65668C64.0242 4.65675 68.274 7.09708 68.2613 9.66799Z" fill="url(#paint27_radial_3251_8365)"></path></g><g opacity="0.3"><path d="M46.0818 13.9205C46.7702 11.4518 50.3295 5.16262 58.3857 5.13334" stroke="white" stroke-width="0.781253" stroke-linecap="round" stroke-linejoin="round"></path></g><g opacity="0.5"><path d="M54.89 18.6495C54.4924 20.0626 53.1608 20.9834 51.9157 20.7062C50.6706 20.429 49.9836 19.0587 50.3811 17.6456C50.7787 16.2325 52.1104 15.3117 53.3555 15.5889C54.6006 15.8661 55.2875 17.2364 54.89 18.6495Z" fill="#B61060"></path></g><g opacity="0.5"><path d="M62.1873 18.6495C62.5708 20.0626 63.8934 20.9835 65.1413 20.7063C66.3891 20.4291 67.0896 19.0588 66.706 17.6457C66.3224 16.2326 64.9998 15.3118 63.752 15.589C62.5042 15.8661 61.8037 17.2364 62.1873 18.6495Z" fill="#B61060"></path></g><path d="M63.8602 22.3796C63.8377 24.2665 62.9469 25.9664 58.5047 25.9543C54.2013 25.9424 53.195 24.0773 53.2175 22.1904C53.24 20.3035 55.8274 18.1658 58.5513 18.1849C61.2751 18.204 63.8827 20.4927 63.8602 22.3796Z" fill="url(#paint28_linear_3251_8365)"></path><g opacity="0.2"><path d="M58.6514 24.1815C56.4136 24.1815 56.4096 24.9909 58.6474 24.9909C60.8852 24.9909 60.8892 24.1815 58.6514 24.1815ZM62.9131 20.2352C63.5075 20.9137 63.8671 21.6743 63.8587 22.3802C63.8357 24.2665 63.9209 26.6039 58.5769 26.6038C52.6684 26.6037 53.1927 24.077 53.2157 22.1907C53.2224 21.641 53.4479 21.0708 53.8295 20.5377C53.6995 21.1587 53.5934 21.477 53.8461 22.1301C54.3726 23.4951 56.6175 22.6515 58.6858 22.7668C59.4269 22.8088 62.3358 23.3897 62.9328 21.9692C63.2096 21.3121 63.036 20.6521 62.9131 20.2352Z" fill="#B71060"></path></g><path d="M61.7865 22.1816C60.8634 24.7463 56.2339 24.7004 55.4794 22.4982" stroke="#B3115F" stroke-width="0.781253" stroke-linecap="round" stroke-linejoin="round"></path><path d="M58.4867 24.0776C58.4955 23.4565 58.5179 22.8064 58.5609 22.2325" stroke="#B3115F" stroke-width="0.781253" stroke-linecap="round" stroke-linejoin="round"></path><path d="M57.3579 21.5252C55.5187 21.3868 56.0011 19.2043 58.2957 19.1351C61.3927 19.0417 61.3835 21.2242 59.8835 21.5776C59.4843 22.2978 57.5383 22.215 57.3579 21.5252Z" fill="url(#paint29_linear_3251_8365)"></path><path d="M57.3579 21.5252C55.5187 21.3868 56.0011 19.2043 58.2957 19.1351C61.3927 19.0417 61.3835 21.2242 59.8835 21.5776C59.4843 22.2978 57.5383 22.215 57.3579 21.5252Z" stroke="black" stroke-width="0.85264" stroke-linecap="round" stroke-linejoin="round"></path><path d="M57.3569 21.5251C57.4236 21.2146 57.5971 21.0551 57.7672 20.9924" stroke="black" stroke-width="0.85264" stroke-linecap="round" stroke-linejoin="round"></path><path d="M59.8825 21.5777C59.8124 21.1636 59.4081 20.9237 59.4081 20.9237" stroke="black" stroke-width="0.85264" stroke-linecap="round" stroke-linejoin="round"></path><g opacity="0.1"><path d="M58.9649 19.8575C58.2132 19.8074 57.5832 19.8873 57.1609 20.3133" stroke="white" stroke-width="0.85264" stroke-linecap="round" stroke-linejoin="round"></path></g><path d="M54.8477 18.01C54.4501 19.4231 53.1184 20.3439 51.8733 20.0667C50.6282 19.7895 49.9413 18.4192 50.3388 17.0061C50.7364 15.593 52.0681 14.6722 53.3131 14.9494C54.5582 15.2266 55.2452 16.5969 54.8477 18.01Z" fill="black"></path><path d="M54.247 16.3284C54.2264 16.8061 53.6314 17.1596 52.9183 17.1179C52.2052 17.0762 51.6439 16.6552 51.6646 16.1774C51.6853 15.6997 52.2803 15.3462 52.9933 15.3879C53.7064 15.4296 54.2677 15.8506 54.247 16.3284Z" fill="url(#paint30_linear_3251_8365)"></path><path d="M62.2495 18.0102C62.633 19.4233 63.9556 20.3441 65.2035 20.067C66.4513 19.7898 67.1518 18.4195 66.7682 17.0064C66.3847 15.5933 65.0621 14.6724 63.8142 14.9496C62.5664 15.2268 61.8659 16.5971 62.2495 18.0102Z" fill="black"></path><path d="M62.8654 16.3289C62.8813 16.8066 63.4728 17.1601 64.1863 17.1184C64.8998 17.0767 65.4653 16.6557 65.4493 16.178C65.4333 15.7003 64.8419 15.3468 64.1284 15.3885C63.4149 15.4301 62.8494 15.8511 62.8654 16.3289Z" fill="url(#paint31_linear_3251_8365)"></path><path d="M72.1329 46.6472C69.7466 45.4962 68.9403 44.3588 68.222 43.7096C66.508 42.1602 68.8504 36.0644 72.6705 37.9394C73.8896 38.5378 75.3678 39.1973 76.0664 39.7814C78.8453 42.1049 75.6165 48.3275 72.1329 46.6472Z" fill="url(#paint32_radial_3251_8365)"></path><path d="M72.1329 46.6472C69.7466 45.4962 68.9403 44.3588 68.222 43.7096C66.508 42.1602 68.8504 36.0644 72.6705 37.9394C73.8896 38.5378 75.3678 39.1973 76.0664 39.7814C78.8453 42.1049 75.6165 48.3275 72.1329 46.6472Z" stroke="url(#paint33_linear_3251_8365)" stroke-width="0.78125" stroke-linecap="round" stroke-linejoin="round"></path><path d="M73.6041 48.4843C81.6415 50.6009 85.4556 35.2693 77.4947 33.0885C71.2514 31.3783 65.7018 46.4034 73.6041 48.4843Z" fill="url(#paint34_radial_3251_8365)"></path><path d="M73.6041 48.4843C81.6415 50.6009 85.4556 35.2693 77.4947 33.0885C71.2514 31.3783 65.7018 46.4034 73.6041 48.4843Z" stroke="url(#paint35_linear_3251_8365)" stroke-width="0.78125" stroke-linecap="round" stroke-linejoin="round"></path><path d="M76.9227 47.119C80.2543 46.0371 81.5143 42.3833 81.4957 40.1206C81.4784 38.0082 78.6224 37.0099 77.2758 39.7113C76.189 37.5978 73.9118 37.0459 72.7981 40.0811C72.0875 42.0175 73.3639 46.0799 76.9227 47.119Z" fill="url(#paint36_linear_3251_8365)"></path><g opacity="0.66"><path d="M71.3242 38.5917C71.3242 41.1018 73.9299 43.1436 76.2707 43.1436C78.6115 43.1436 81.0756 40.8186 81.0756 38.3085C81.0756 35.7983 78.834 33.4227 76.4932 33.4227C74.1523 33.4227 71.3242 36.0815 71.3242 38.5917Z" fill="url(#paint37_radial_3251_8365)"></path></g><g opacity="0.3"><path d="M76.9858 33.8027C77.8938 33.9889 79.9426 34.827 80.711 37.132" stroke="white" stroke-width="0.78125" stroke-linecap="round" stroke-linejoin="round"></path></g><path d="M46.5331 47.6466C47.7254 47.1139 49.5702 45.7741 50.2896 45.2197C52.0063 43.8968 50.2637 38.0244 46.5537 39.4971C45.3697 39.9671 44.0556 40.4424 43.3594 40.9373C40.59 42.906 43.2208 49.1265 46.5331 47.6466Z" fill="url(#paint38_radial_3251_8365)"></path><path d="M46.5331 47.6466C47.7254 47.1139 49.5702 45.7741 50.2896 45.2197C52.0063 43.8968 50.2637 38.0244 46.5537 39.4971C45.3697 39.9671 44.0556 40.4424 43.3594 40.9373C40.59 42.906 43.2208 49.1265 46.5331 47.6466Z" stroke="url(#paint39_linear_3251_8365)" stroke-width="0.78125" stroke-linecap="round" stroke-linejoin="round"></path><path d="M44.9669 48.7637C37.5921 51.2916 32.6568 37.7326 39.817 34.7871C46.1601 32.1778 52.8984 46.045 44.9669 48.7637Z" fill="url(#paint40_radial_3251_8365)"></path><path d="M44.9669 48.7637C37.5921 51.2916 32.6568 37.7326 39.817 34.7871C46.1601 32.1778 52.8984 46.045 44.9669 48.7637Z" stroke="url(#paint41_linear_3251_8365)" stroke-width="0.78125" stroke-linecap="round" stroke-linejoin="round"></path><path d="M42.4439 47.8075C39.1061 47.4456 37.4042 44.6933 37.0083 42.4722C36.6388 40.3987 38.6346 38.637 40.3972 41.0019C40.9182 38.4576 43.0378 37.1963 44.642 39.937C45.6654 41.6856 45.6083 46.0434 42.4439 47.8075Z" fill="url(#paint42_linear_3251_8365)"></path><g opacity="0.66"><path d="M46.0969 40.1494C46.0969 42.6595 43.4913 44.7013 41.1505 44.7013C38.8097 44.7013 36.9121 42.6664 36.9121 40.1563C36.9121 37.6461 38.5872 34.9804 40.9281 34.9804C43.2689 34.9804 46.0969 37.6392 46.0969 40.1494Z" fill="url(#paint43_radial_3251_8365)"></path></g><path d="M58.5181 29.4142C57.7112 30.581 56.5064 37.2776 56.5064 37.2776L52.2757 35.0462C52.2757 35.0462 56.5296 29.3732 57.7341 28.653" fill="#EF0B00"></path><path d="M58.5181 29.4142C57.7112 30.581 56.5064 37.2776 56.5064 37.2776L52.2757 35.0462C52.2757 35.0462 56.5296 29.3732 57.7341 28.653" stroke="#990700" stroke-width="0.78125" stroke-linecap="round" stroke-linejoin="round"></path><path d="M59.9885 29.8763C61.1939 31.1573 62.1027 36.0838 62.474 37.1662C63.6711 36.7191 65.993 35.4624 65.993 35.4624C64.8153 32.4543 61.7677 29.6563 61.7677 29.6563" fill="#EF0B00"></path><path d="M59.9885 29.8763C61.1939 31.1573 62.1027 36.0838 62.474 37.1662C63.6711 36.7191 65.993 35.4624 65.993 35.4624C64.8153 32.4543 61.7677 29.6563 61.7677 29.6563" stroke="#990700" stroke-width="0.78125" stroke-linecap="round" stroke-linejoin="round"></path><path d="M59.0052 29.5079C62.2555 30.705 66.752 33.2239 68.4829 32.9982C70.972 32.6738 70.7908 25.0069 67.9718 24.4982C65.923 24.1285 62.4857 27.2422 59.1488 28.885C54.7208 26.3453 51.7024 23.2908 49.7281 23.7739C46.8569 24.4764 46.6923 31.6989 49.8812 32.3179C51.8031 32.6908 55.8774 31.2674 59.0052 29.5079Z" fill="#EF0B00"></path><path d="M59.0052 29.5079C62.2555 30.705 66.752 33.2239 68.4829 32.9982C70.972 32.6738 70.7908 25.0069 67.9718 24.4982C65.923 24.1285 62.4857 27.2422 59.1488 28.885C54.7208 26.3453 51.7024 23.2908 49.7281 23.7739C46.8569 24.4764 46.6923 31.6989 49.8812 32.3179C51.8031 32.6908 55.8774 31.2674 59.0052 29.5079Z" stroke="#990700" stroke-width="0.78125" stroke-linecap="round" stroke-linejoin="round"></path><path d="M49.1983 31.9333C49.9331 32.9321 53.9475 32.0031 58.2127 30.1352C53.9178 29.8343 48.4214 30.8773 49.1983 31.9333Z" fill="#B50000"></path><path d="M49.1983 31.9333C49.9331 32.9321 53.9475 32.0031 58.2127 30.1352C53.9178 29.8343 48.4214 30.8773 49.1983 31.9333Z" stroke="#7C0000" stroke-width="0.78125" stroke-linecap="round" stroke-linejoin="round"></path><path d="M61.1479 30.2607C65.9004 30.7409 69.1448 31.237 68.9487 32.6502C68.7525 34.0634 63.4352 31.6812 61.1479 30.2607Z" fill="#B50000"></path><path d="M61.1479 30.2607C65.9004 30.7409 69.1448 31.237 68.9487 32.6502C68.7525 34.0634 63.4352 31.6812 61.1479 30.2607Z" stroke="#7C0000" stroke-width="0.78125" stroke-linecap="round" stroke-linejoin="round"></path><path d="M58.0652 27.7714C56.6642 29.0783 57.4563 30.4691 57.6264 30.9865C59.2233 31.3316 61.0806 31.5182 61.0806 31.5182C61.4135 30.1652 60.2802 27.7468 60.2802 27.7468L58.0652 27.7714Z" fill="#EF0B00"></path><path d="M58.0652 27.7714C56.6642 29.0783 57.4563 30.4691 57.6264 30.9865C59.2233 31.3316 61.0806 31.5182 61.0806 31.5182C61.4135 30.1652 60.2802 27.7468 60.2802 27.7468L58.0652 27.7714Z" stroke="#990700" stroke-width="0.78125" stroke-linecap="round" stroke-linejoin="round"></path><g opacity="0.3"><path d="M37.3474 38.6338C37.8092 36.9019 39.368 35.1123 41.6484 35.4297" stroke="white" stroke-width="0.78125" stroke-linecap="round" stroke-linejoin="round"></path></g><g opacity="0.44"><path d="M48.4616 29.0122C48.1113 27.1956 48.874 24.739 49.9971 24.4593C51.1202 24.1797 54.7468 26.9122 55.8851 27.6083" stroke="white" stroke-width="0.78125" stroke-linecap="round" stroke-linejoin="round"></path></g><g opacity="0.44"><path d="M61.7872 28.2735C63.0583 27.5787 66.9261 24.4514 68.2242 25.2978" stroke="white" stroke-width="0.78125" stroke-linecap="round" stroke-linejoin="round"></path></g></g></g></g><defs><radialGradient id="paint0_radial_3251_8365" cx="0" cy="0" r="1" gradientUnits="userSpaceOnUse" gradientTransform="translate(33.7581 82.8992) rotate(-10) scale(4.93214)"><stop stop-color="#FFFF8D"></stop><stop offset="0.5" stop-color="#FFE346"></stop><stop offset="1" stop-color="#FFC800"></stop></radialGradient><linearGradient id="paint1_linear_3251_8365" x1="26.9504" y1="41.6053" x2="26.5939" y2="34.9078" gradientUnits="userSpaceOnUse"><stop stop-color="white"></stop><stop offset="0.45" stop-color="#F3F1F9"></stop><stop offset="0.89" stop-color="#E7E4F2"></stop></linearGradient><linearGradient id="paint2_linear_3251_8365" x1="30.3451" y1="9.11563" x2="31.9793" y2="19.3574" gradientUnits="userSpaceOnUse"><stop offset="0.33" stop-color="#FDFF04"></stop><stop offset="0.77" stop-color="#FECD02"></stop><stop offset="0.94" stop-color="#FF9A00"></stop></linearGradient><linearGradient id="paint3_linear_3251_8365" x1="19.0854" y1="10.9424" x2="20.7195" y2="21.1842" gradientUnits="userSpaceOnUse"><stop offset="0.33" stop-color="#FDFF04"></stop><stop offset="0.77" stop-color="#FECD02"></stop><stop offset="0.94" stop-color="#FF9A00"></stop></linearGradient><linearGradient id="paint4_linear_3251_8365" x1="30.3443" y1="9.11581" x2="31.9785" y2="19.3576" gradientUnits="userSpaceOnUse"><stop offset="0.33" stop-color="#FDFF04"></stop><stop offset="0.77" stop-color="#FECD02"></stop><stop offset="0.94" stop-color="#FF9A00"></stop></linearGradient><linearGradient id="paint5_linear_3251_8365" x1="19.0849" y1="10.9425" x2="20.7191" y2="21.1842" gradientUnits="userSpaceOnUse"><stop offset="0.33" stop-color="#FDFF04"></stop><stop offset="0.77" stop-color="#FECD02"></stop><stop offset="0.94" stop-color="#FF9A00"></stop></linearGradient><linearGradient id="paint6_linear_3251_8365" x1="20.1927" y1="29.6302" x2="21.0759" y2="37.6063" gradientUnits="userSpaceOnUse"><stop stop-color="#D9D7EE"></stop><stop offset="0.72" stop-color="#BAB8D6"></stop><stop offset="1" stop-color="#9C98BE"></stop></linearGradient><linearGradient id="paint7_linear_3251_8365" x1="95.9015" y1="18.9767" x2="91.5768" y2="37.4904" gradientUnits="userSpaceOnUse"><stop offset="0.21" stop-color="#BFFF77"></stop><stop offset="0.53" stop-color="#95F663"></stop><stop offset="0.87" stop-color="#6CEC50"></stop></linearGradient><linearGradient id="paint8_linear_3251_8365" x1="90.3523" y1="43.7012" x2="91.9974" y2="34.3712" gradientUnits="userSpaceOnUse"><stop offset="0.28" stop-color="#216B0F"></stop><stop offset="0.7" stop-color="#216B0F" stop-opacity="0.5"></stop><stop offset="1" stop-color="#216B0F" stop-opacity="0"></stop></linearGradient><linearGradient id="paint9_linear_3251_8365" x1="90.4336" y1="44.5882" x2="95.5417" y2="15.6187" gradientUnits="userSpaceOnUse"><stop offset="0.12" stop-color="#297A18"></stop><stop offset="0.27" stop-color="#318821"></stop><stop offset="0.41" stop-color="#39962B"></stop><stop offset="0.83" stop-color="#61A939"></stop><stop offset="1" stop-color="#8ABC47"></stop></linearGradient><radialGradient id="paint10_radial_3251_8365" cx="0" cy="0" r="1" gradientUnits="userSpaceOnUse" gradientTransform="translate(69.29 4.73472) scale(5.31516 5.31281)"><stop offset="0.49" stop-color="#FFBFD1"></stop><stop offset="0.67" stop-color="#FF8BBD"></stop><stop offset="0.84" stop-color="#FF57AA"></stop></radialGradient><linearGradient id="paint11_linear_3251_8365" x1="66.611" y1="13.1978" x2="66.7878" y2="2.34939" gradientUnits="userSpaceOnUse"><stop stop-color="#890A4D"></stop><stop offset="0.5" stop-color="#B61362"></stop><stop offset="1" stop-color="#E31B78"></stop></linearGradient><linearGradient id="paint12_linear_3251_8365" x1="69.532" y1="5.43568" x2="69.4919" y2="11.2106" gradientUnits="userSpaceOnUse"><stop stop-color="white"></stop><stop offset="0.5" stop-color="#F7DDFF"></stop><stop offset="1" stop-color="#EEBBFF"></stop></linearGradient><radialGradient id="paint13_radial_3251_8365" cx="0" cy="0" r="1" gradientUnits="userSpaceOnUse" gradientTransform="translate(47.0636 3.1652) scale(5.46471 5.4623)"><stop offset="0.49" stop-color="#FFBFD1"></stop><stop offset="0.67" stop-color="#FF8BBD"></stop><stop offset="0.84" stop-color="#FF57AA"></stop></radialGradient><linearGradient id="paint14_linear_3251_8365" x1="46.0397" y1="13.819" x2="46.2165" y2="1.4149" gradientUnits="userSpaceOnUse"><stop stop-color="#890A4D"></stop><stop offset="0.5" stop-color="#B61362"></stop><stop offset="1" stop-color="#E31B78"></stop></linearGradient><linearGradient id="paint15_linear_3251_8365" x1="47.0504" y1="4.34816" x2="48.2547" y2="10.4576" gradientUnits="userSpaceOnUse"><stop stop-color="white"></stop><stop offset="0.5" stop-color="#F7DDFF"></stop><stop offset="1" stop-color="#EEBBFF"></stop></linearGradient><radialGradient id="paint16_radial_3251_8365" cx="0" cy="0" r="1" gradientUnits="userSpaceOnUse" gradientTransform="translate(58.3852 32.5341) scale(14.0005)"><stop offset="0.49" stop-color="#FFBFD1"></stop><stop offset="0.67" stop-color="#FF8BBD"></stop><stop offset="0.84" stop-color="#FF57AA"></stop></radialGradient><linearGradient id="paint17_linear_3251_8365" x1="56.173" y1="46.2895" x2="56.3497" y2="25.5718" gradientUnits="userSpaceOnUse"><stop stop-color="#890A4D"></stop><stop offset="0.5" stop-color="#B61362"></stop><stop offset="1" stop-color="#E31B78"></stop></linearGradient><linearGradient id="paint18_linear_3251_8365" x1="58.8221" y1="32.5058" x2="58.8221" y2="42.5863" gradientUnits="userSpaceOnUse"><stop stop-color="white"></stop><stop offset="0.5" stop-color="#F7DDFF"></stop><stop offset="1" stop-color="#EEBBFF"></stop></linearGradient><radialGradient id="paint19_radial_3251_8365" cx="0" cy="0" r="1" gradientUnits="userSpaceOnUse" gradientTransform="translate(57.7508 5.46457) scale(23.2871 23.2768)"><stop offset="0.49" stop-color="#FFBFD1"></stop><stop offset="0.67" stop-color="#FF8BBD"></stop><stop offset="0.84" stop-color="#FF57AA"></stop></radialGradient><linearGradient id="paint20_linear_3251_8365" x1="56.2589" y1="27.1373" x2="56.4358" y2="6.42333" gradientUnits="userSpaceOnUse"><stop stop-color="#890A4D"></stop><stop offset="0.5" stop-color="#B61362"></stop><stop offset="1" stop-color="#E31B78"></stop></linearGradient><radialGradient id="paint21_radial_3251_8365" cx="0" cy="0" r="1" gradientUnits="userSpaceOnUse" gradientTransform="translate(41.7805 29.4351) scale(6.99892)"><stop offset="0.49" stop-color="#FFBFD1"></stop><stop offset="0.67" stop-color="#FF8BBD"></stop><stop offset="0.84" stop-color="#FF57AA"></stop></radialGradient><linearGradient id="paint22_linear_3251_8365" x1="44.0536" y1="41.5137" x2="44.1303" y2="27.5674" gradientUnits="userSpaceOnUse"><stop stop-color="#890A4D"></stop><stop offset="0.5" stop-color="#B61362"></stop><stop offset="1" stop-color="#E31B78"></stop></linearGradient><linearGradient id="paint23_linear_3251_8365" x1="45.5286" y1="33.3893" x2="45.5907" y2="41.135" gradientUnits="userSpaceOnUse"><stop stop-color="white"></stop><stop offset="0.5" stop-color="#F7DDFF"></stop><stop offset="1" stop-color="#EEBBFF"></stop></linearGradient><radialGradient id="paint24_radial_3251_8365" cx="0" cy="0" r="1" gradientUnits="userSpaceOnUse" gradientTransform="translate(73.3667 28.4003) scale(7.87421)"><stop offset="0.49" stop-color="#FFBFD1"></stop><stop offset="0.67" stop-color="#FF8BBD"></stop><stop offset="0.84" stop-color="#FF57AA"></stop></radialGradient><linearGradient id="paint25_linear_3251_8365" x1="70.0542" y1="40.6218" x2="69.5783" y2="25.2571" gradientUnits="userSpaceOnUse"><stop stop-color="#890A4D"></stop><stop offset="0.5" stop-color="#B61362"></stop><stop offset="1" stop-color="#E31B78"></stop></linearGradient><linearGradient id="paint26_linear_3251_8365" x1="72.4936" y1="32.4325" x2="72.7203" y2="39.2472" gradientUnits="userSpaceOnUse"><stop stop-color="white"></stop><stop offset="0.5" stop-color="#F7DDFF"></stop><stop offset="1" stop-color="#EEBBFF"></stop></linearGradient><radialGradient id="paint27_radial_3251_8365" cx="0" cy="0" r="1" gradientUnits="userSpaceOnUse" gradientTransform="translate(57.7623 5.48842) scale(12.1619 12.1565)"><stop stop-color="white"></stop><stop offset="0.5" stop-color="white" stop-opacity="0.5"></stop><stop offset="1" stop-color="white" stop-opacity="0"></stop></radialGradient><linearGradient id="paint28_linear_3251_8365" x1="58.5621" y1="22.3943" x2="58.4433" y2="26.965" gradientUnits="userSpaceOnUse"><stop stop-color="white"></stop><stop offset="0.5" stop-color="#F7DDFF"></stop><stop offset="1" stop-color="#EEBBFF"></stop></linearGradient><linearGradient id="paint29_linear_3251_8365" x1="60.3592" y1="21.6008" x2="57.5868" y2="19.7802" gradientUnits="userSpaceOnUse"><stop stop-color="#231F20"></stop><stop offset="0.5" stop-color="#2F292B"></stop><stop offset="1" stop-color="#3B3336"></stop></linearGradient><linearGradient id="paint30_linear_3251_8365" x1="53.0334" y1="15.2303" x2="52.8118" y2="17.4772" gradientUnits="userSpaceOnUse"><stop stop-color="white"></stop><stop offset="0.5" stop-color="white" stop-opacity="0.5"></stop><stop offset="1" stop-color="white" stop-opacity="0"></stop></linearGradient><linearGradient id="paint31_linear_3251_8365" x1="64.0899" y1="15.2309" x2="64.311" y2="17.4756" gradientUnits="userSpaceOnUse"><stop stop-color="white"></stop><stop offset="0.5" stop-color="white" stop-opacity="0.5"></stop><stop offset="1" stop-color="white" stop-opacity="0"></stop></linearGradient><radialGradient id="paint32_radial_3251_8365" cx="0" cy="0" r="1" gradientUnits="userSpaceOnUse" gradientTransform="translate(71.4135 30.6536) scale(13.9101 13.9101)"><stop offset="0.49" stop-color="#FFBFD1"></stop><stop offset="0.67" stop-color="#EB6BA4"></stop><stop offset="0.84" stop-color="#D71877"></stop></radialGradient><linearGradient id="paint33_linear_3251_8365" x1="67.897" y1="46.6468" x2="70.5253" y2="32.5753" gradientUnits="userSpaceOnUse"><stop stop-color="#890A4D"></stop><stop offset="0.5" stop-color="#B61362"></stop><stop offset="1" stop-color="#E31B78"></stop></linearGradient><radialGradient id="paint34_radial_3251_8365" cx="0" cy="0" r="1" gradientUnits="userSpaceOnUse" gradientTransform="translate(74.6264 28.2587) scale(18.6652)"><stop offset="0.49" stop-color="#FFBFD1"></stop><stop offset="0.67" stop-color="#FF8BBD"></stop><stop offset="0.84" stop-color="#FF57AA"></stop></radialGradient><linearGradient id="paint35_linear_3251_8365" x1="72.4369" y1="49.6849" x2="73.7136" y2="31.2117" gradientUnits="userSpaceOnUse"><stop stop-color="#890A4D"></stop><stop offset="0.5" stop-color="#B61362"></stop><stop offset="1" stop-color="#E31B78"></stop></linearGradient><linearGradient id="paint36_linear_3251_8365" x1="76.5763" y1="38.707" x2="76.4575" y2="46.4898" gradientUnits="userSpaceOnUse"><stop stop-color="white"></stop><stop offset="0.5" stop-color="#F7DDFF"></stop><stop offset="1" stop-color="#EEBBFF"></stop></linearGradient><radialGradient id="paint37_radial_3251_8365" cx="0" cy="0" r="1" gradientUnits="userSpaceOnUse" gradientTransform="translate(75.1245 33.0058) scale(11.3209)"><stop stop-color="white"></stop><stop offset="0.5" stop-color="white" stop-opacity="0.5"></stop><stop offset="1" stop-color="white" stop-opacity="0"></stop></radialGradient><radialGradient id="paint38_radial_3251_8365" cx="0" cy="0" r="1" gradientUnits="userSpaceOnUse" gradientTransform="translate(45.0159 33.5684) scale(12.2991 12.2991)"><stop offset="0.49" stop-color="#FFBFD1"></stop><stop offset="0.67" stop-color="#EB6BA4"></stop><stop offset="0.84" stop-color="#D71877"></stop></radialGradient><linearGradient id="paint39_linear_3251_8365" x1="48.803" y1="46.2538" x2="44.9423" y2="36.88" gradientUnits="userSpaceOnUse"><stop stop-color="#890A4D"></stop><stop offset="0.5" stop-color="#B61362"></stop><stop offset="1" stop-color="#E31B78"></stop></linearGradient><radialGradient id="paint40_radial_3251_8365" cx="0" cy="0" r="1" gradientUnits="userSpaceOnUse" gradientTransform="translate(36.7773 32.0642) scale(14.8751)"><stop offset="0.49" stop-color="#FFBFD1"></stop><stop offset="0.67" stop-color="#FF8BBD"></stop><stop offset="0.84" stop-color="#FF57AA"></stop></radialGradient><linearGradient id="paint41_linear_3251_8365" x1="44.985" y1="48.3441" x2="39.4072" y2="35.2511" gradientUnits="userSpaceOnUse"><stop stop-color="#890A4D"></stop><stop offset="0.5" stop-color="#B61362"></stop><stop offset="1" stop-color="#E31B78"></stop></linearGradient><linearGradient id="paint42_linear_3251_8365" x1="41.081" y1="37.468" x2="41.081" y2="47.5485" gradientUnits="userSpaceOnUse"><stop stop-color="white"></stop><stop offset="0.5" stop-color="#F7DDFF"></stop><stop offset="1" stop-color="#EEBBFF"></stop></linearGradient><radialGradient id="paint43_radial_3251_8365" cx="0" cy="0" r="1" gradientUnits="userSpaceOnUse" gradientTransform="translate(40.4291 34.5635) scale(11.9559)"><stop stop-color="white"></stop><stop offset="0.5" stop-color="white" stop-opacity="0.5"></stop><stop offset="1" stop-color="white" stop-opacity="0"></stop></radialGradient><clipPath id="clip0_3251_8365"><rect width="40" height="40" fill="white" transform="translate(2 12.946) rotate(-10)"></rect></clipPath><clipPath id="clip1_3251_8365"><rect width="40" height="40" fill="white" transform="translate(2 12.946) rotate(-10)"></rect></clipPath><clipPath id="clip2_3251_8365"><rect width="40" height="40" fill="white" transform="translate(74.9453 6) rotate(10)"></rect></clipPath><clipPath id="clip3_3251_8365"><rect width="40" height="40" fill="white" transform="translate(74.9453 6) rotate(10)"></rect></clipPath><clipPath id="clip4_3251_8365"><rect width="50" height="50" fill="white" transform="translate(34)"></rect></clipPath><clipPath id="clip5_3251_8365"><rect width="50" height="50" fill="white" transform="translate(34)"></rect></clipPath></defs></svg>