<svg width="118" height="77" viewBox="0 0 118 77" fill="none" xmlns="http://www.w3.org/2000/svg"><g clip-path="url(#clip0_3251_9616)"><g clip-path="url(#clip1_3251_9616)"><mask id="mask0_3251_9616" maskUnits="userSpaceOnUse" x="2" y="5" width="47" height="48" style="mask-type: luminance;"><path d="M41.3931 5.99987L2.00079 12.9458L8.94672 52.3381L48.339 45.3922L41.3931 5.99987Z" fill="white"></path></mask><g mask="url(#mask0_3251_9616)"><path d="M18.136 20.2571C18.136 20.2571 17.6223 15.2972 18.6962 12.5225C18.6962 12.5225 23.3236 9.78267 29.3078 17.8062" fill="url(#paint0_linear_3251_9616)"></path><path d="M18.2116 20.8049C18.2116 20.8049 17.3228 15.6507 18.6357 12.7537C18.6357 12.7537 22.0141 11.4732 24.0587 18.0487L22.9727 18.4823C22.9727 18.4823 21.9649 14.1307 19.3101 14.0777C19.3101 14.0777 18.2923 16.2613 19.0418 20.0573L18.2116 20.8049Z" fill="url(#paint1_linear_3251_9616)"></path><path d="M19.7665 18.4868C19.7665 18.4868 21.3283 17.5701 22.4419 17.2935C22.4419 17.2935 22.0398 15.24 20.1992 14.1216C20.1992 14.1216 19.4056 15.9851 19.7665 18.4868Z" fill="url(#paint2_linear_3251_9616)"></path><path d="M19.6458 19.2692C19.6458 19.2692 19.1077 15.8768 20.0752 14.2031" stroke="#77004A" stroke-width="0.625" stroke-linecap="round" stroke-linejoin="round"></path><path d="M22.9461 15.1399C22.9461 15.1399 23.5622 15.8896 24.1393 17.8155C24.7164 19.7413 27.1017 17.3613 27.1751 16.6188C27.1751 16.6188 27.9869 16.875 25.452 14.5944C22.917 12.3137 21.3261 13.2913 22.9461 15.1399Z" fill="url(#paint3_linear_3251_9616)"></path><path d="M18.1357 20.2573C18.1357 20.2573 17.6219 15.2975 18.6959 12.5229" stroke="#77004A" stroke-width="0.625" stroke-linecap="round" stroke-linejoin="round"></path><path d="M18.6954 12.5228C18.6954 12.5228 23.3228 9.78282 29.307 17.8064" stroke="#510032" stroke-width="0.625" stroke-linecap="round" stroke-linejoin="round"></path><path d="M19.4678 13.8292C19.4678 13.8292 21.6219 14.1108 22.6331 18.1412" stroke="#77004A" stroke-width="0.625" stroke-linecap="round" stroke-linejoin="round"></path><path d="M12.6394 27.5184C12.6394 27.5184 10.8487 27.4697 10.7992 29.3856C10.7422 31.5972 15.4989 32.8239 15.4989 32.8239L12.6394 27.5184Z" fill="#9199A8"></path><path d="M12.6394 27.5184C12.6394 27.5184 10.8487 27.4697 10.7992 29.3856C10.7422 31.5972 15.4989 32.8239 15.4989 32.8239L12.6394 27.5184Z" stroke="#060707" stroke-width="0.625" stroke-linecap="round" stroke-linejoin="round"></path><path d="M19.4849 48.1245C19.4849 48.1245 17.9998 47.4592 17.0411 46.5412C15.9971 45.5415 14.9275 43.9284 13.9049 40.5001C13.5902 39.445 15.2603 36.5936 15.163 33.4842C15.079 30.8013 12.9535 30.9598 12.0147 29.9509C11.6903 29.6024 11.886 29.0852 11.9356 28.605C12.8614 19.6413 23.2406 16.0999 28.1299 16.0934C33.0192 16.0868 38.3089 19.7377 39.1587 25.9438C40.0085 32.1499 39.6612 35.688 39.6612 35.688C39.6612 35.688 38.5369 39.6392 31.1847 43.7061C24.583 47.3578 19.4849 48.1245 19.4849 48.1245Z" fill="url(#paint4_linear_3251_9616)"></path><g opacity="0.13"><path d="M23.774 46.4386C23.774 46.4386 18.9892 36.1791 19.995 27.715C20.6956 21.8195 25.1153 19.7776 25.1153 19.7776C25.1153 19.7776 30.027 19.7097 31.7264 22.5666C31.7264 22.5666 28.7209 27.439 29.1053 31.3394C29.8931 39.3332 29.8401 44.0161 29.8401 44.0161C29.8401 44.0161 25.2556 47.1694 23.774 46.4386Z" fill="white"></path></g><g opacity="0.43"><path d="M14.2066 40.5063C14.2066 40.5063 15.2471 43.4327 16.8554 45.7345C16.8554 45.7345 18.4467 47.2575 20.0964 47.7483" stroke="white" stroke-width="0.625" stroke-linecap="round" stroke-linejoin="round"></path></g><path d="M27.4959 36.4199C27.4959 36.4199 33.6654 33.8738 34.3497 28.3573C35.1389 21.9956 33.2984 19.8849 33.2984 19.8849C33.2984 19.8849 28.474 22.888 27.0531 27.378C25.8503 31.1787 27.4959 36.4199 27.4959 36.4199Z" fill="url(#paint5_linear_3251_9616)"></path><path d="M27.7606 38.9586C27.7606 38.9586 28.1099 41.8868 28.7475 44.4799C28.7475 44.4799 32.8225 43.0399 34.6903 41.3577C34.6903 41.3577 34.9637 36.2591 34.7736 34.6693C34.5834 33.0795 28.2702 35.6356 27.7346 39.2473" fill="url(#paint6_linear_3251_9616)"></path><g opacity="0.67"><path d="M12.0495 29.9904C12.0495 29.9904 12.0344 23.1896 19.2356 18.9208C24.2163 15.9683 30.3078 16.247 30.3078 16.247" stroke="url(#paint7_linear_3251_9616)" stroke-width="0.625" stroke-linecap="round" stroke-linejoin="round"></path></g><g opacity="0.57"><path d="M26.3394 28.5074C22.4989 31.3059 16.901 31.8341 14.8181 28.9756C12.7351 26.1172 14.4661 22.3701 18.3067 19.5716C22.1472 16.773 26.9491 16.8217 29.032 19.6801C31.115 22.5386 30.1799 25.7088 26.3394 28.5074Z" fill="url(#paint8_radial_3251_9616)"></path></g><path d="M38.9381 31.0588C38.9381 31.0588 39.1148 34.757 38.6833 35.7516C37.6288 38.1822 34.2056 41.2726 31.4425 42.4813C31.4425 42.4813 33.3184 37.1503 33.8793 36.2396C34.4403 35.329 38.9381 31.0588 38.9381 31.0588Z" fill="url(#paint9_linear_3251_9616)"></path><path d="M37.3173 21.5146C38.032 22.7361 38.538 24.1434 38.7535 25.7178C39.5896 31.8232 39.2152 35.156 39.2152 35.156C39.2152 35.156 38.1492 39.1117 30.9182 43.1124C24.4255 46.7046 20.4701 47.6527 20.4701 47.6527" stroke="#F943BC" stroke-width="0.635391" stroke-linecap="round" stroke-linejoin="round"></path><path d="M31.4425 42.4813C31.4425 42.4813 33.1577 37.4892 33.8793 36.2396C34.601 34.9901 38.9381 31.0588 38.9381 31.0588C38.9381 31.0588 34.9835 35.36 34.2882 36.645C34.2882 36.645 32.1214 40.4777 31.4425 42.4813Z" fill="#510032"></path><path d="M12.9501 29.9664C12.9501 29.9664 13.256 24.4647 17.4136 21.4469C17.4136 21.4469 18.9434 20.5759 20.83 20.3636C20.83 20.3636 16.2762 23.8621 16.6303 30.3031C16.9532 36.1751 12.9501 29.9664 12.9501 29.9664Z" fill="url(#paint10_radial_3251_9616)"></path><g opacity="0.5"><path d="M15.1503 42.7588C15.1503 42.7588 15.8979 43.5889 18.7002 43.4555C21.5025 43.3221 24.7132 42.0947 24.7132 42.0947C24.7132 42.0947 24.6903 45.7162 20.501 47.4168" stroke="#FFA4EE" stroke-width="1.40625" stroke-linecap="round" stroke-linejoin="round"></path><path d="M18.408 43.5068C18.408 43.5068 18.9113 45.7929 19.6382 47.5286" stroke="#FFA4EE" stroke-width="1.40625" stroke-linecap="round" stroke-linejoin="round"></path></g><path d="M18.3194 43.4529C15.8429 43.5453 14.8011 42.7108 14.8011 42.7108C14.8011 42.7108 15.6119 44.5975 16.5814 45.9338C17.2992 46.9233 18.9311 47.8994 19.6196 48.0713C24.1459 46.8808 24.6277 42.0796 24.6277 42.0796C24.6277 42.0796 21.1229 43.3482 18.3194 43.4529Z" stroke="#FFA4EE" stroke-width="0.625" stroke-linecap="round" stroke-linejoin="round"></path><path d="M18.3239 43.492C18.3239 43.492 18.8529 45.9239 19.5797 47.6596" stroke="#FFA4EE" stroke-width="0.625" stroke-linecap="round" stroke-linejoin="round"></path><g opacity="0.5"><path d="M35.2061 30.6375C35.2061 30.6375 37.1262 29.322 39.0253 28.2757" stroke="#FFA4EE" stroke-width="1.40625" stroke-linecap="round" stroke-linejoin="round"></path></g><path d="M35.0163 30.748C35.0163 30.748 36.8171 29.7091 39.3716 28.0562" stroke="#FFA4EE" stroke-width="0.625" stroke-miterlimit="10"></path><g opacity="0.5"><path d="M25.2518 29.9156C25.2518 29.9156 25.0671 25.7996 27.4342 22.857C29.8013 19.9144 32.4322 19.1499 32.4322 19.1499" stroke="#FFA4EE" stroke-width="1.40625" stroke-linecap="round" stroke-linejoin="round"></path></g><path d="M25.2469 29.8867C25.2469 29.8867 25.0623 25.7707 27.4293 22.8281C29.7964 19.8855 32.4273 19.121 32.4273 19.121" stroke="#FFA4EE" stroke-width="0.625" stroke-linecap="round" stroke-linejoin="round"></path><path d="M19.4849 48.1245C19.4849 48.1245 17.9998 47.4592 17.0411 46.5412C15.9971 45.5415 14.9275 43.9284 13.9049 40.5001C13.5902 39.445 15.2602 36.5936 15.1629 33.4843C15.0789 30.8013 12.9535 30.9598 12.0147 29.9509C11.6903 29.6024 11.886 29.0851 11.9356 28.6049C12.8614 19.6412 23.2405 16.0999 28.1298 16.0934C33.0192 16.0868 38.3089 19.7377 39.1587 25.9438C40.0085 32.1499 39.6612 35.688 39.6612 35.688C39.6612 35.688 38.5368 39.6392 31.1846 43.7061C24.583 47.3579 19.4849 48.1245 19.4849 48.1245Z" stroke="#930965" stroke-width="0.635391" stroke-linecap="round" stroke-linejoin="round"></path><path d="M37.7627 21.8027C38.4774 23.0242 38.9915 24.6499 39.207 26.2243C40.0431 32.3298 39.6687 35.6625 39.6687 35.6625C39.6687 35.6625 38.6026 39.6182 31.3716 43.6189C24.8789 47.2111 19.621 48.1192 19.621 48.1192" stroke="#510032" stroke-width="0.625" stroke-linecap="round" stroke-linejoin="round"></path><path d="M18.4264 32.0017C18.4264 32.0017 18.9223 34.3592 17.8907 36.4651C16.8592 38.571 15.9533 40.9352 15.9533 40.9352L18.1713 41.466C18.1713 41.466 24.2523 35.2632 28.3982 33.7706C32.5442 32.278 34.9062 32.2623 34.9062 32.2623C34.9062 32.2623 35.508 29.3104 33.3014 29.2986C31.0948 29.2868 28.4261 30.519 25.1561 31.296C21.8861 32.073 18.4264 32.0017 18.4264 32.0017Z" fill="url(#paint11_linear_3251_9616)"></path><path d="M19.1061 41.3008C19.1061 41.3008 18.8891 38.9341 22.8638 35.7883C26.8385 32.6424 32.3334 31.0722 34.1144 33.4437C34.1144 33.4437 28.4953 39.0841 23.8144 40.2702C19.1335 41.4563 19.1061 41.3008 19.1061 41.3008Z" fill="#160814"></path><path d="M17.8105 38.3936C17.8105 38.3936 18.7047 36.8679 19.5603 35.3594C20.7222 33.3108 20.146 32.0896 20.146 32.0896C20.146 32.0896 17.5256 32.231 16.3365 32.08C16.3365 32.08 16.9765 34.5725 16.313 36.4932C15.6496 38.4139 15.4003 39.4999 15.4003 39.4999C15.4003 39.4999 16.4248 38.7181 17.8105 38.3936Z" fill="url(#paint12_linear_3251_9616)"></path><path d="M16.0556 38.5521C16.0556 38.5521 16.3324 37.6215 16.7625 36.4234C17.1925 35.2253 17.3461 32.9135 16.9529 31.8204L15.725 31.6762C15.725 31.6762 16.3466 33.6107 15.6352 35.9407C14.9237 38.2707 14.544 39.2997 14.9372 39.7113L16.0556 38.5521Z" fill="#8E6E8D"></path><path d="M14.9461 39.7504C14.9461 39.7504 15.7763 38.3214 17.5279 38.253C19.2795 38.1847 21.1635 39.7764 22.0231 40.7873C22.0231 40.7873 15.8374 42.7598 14.9461 39.7504Z" fill="#594D57"></path><g opacity="0.24"><path d="M16.6514 40.4766C16.6514 40.4766 16.6095 39.3867 17.4328 38.941C18.256 38.4953 20.6085 39.6186 20.4175 40.3537C20.2265 41.0888 16.7394 40.862 16.6514 40.4766Z" fill="url(#paint13_linear_3251_9616)"></path></g><g opacity="0.67"><path d="M15.1635 40.2283C15.1635 40.2283 16.8059 38.12 18.9427 38.6451" stroke="url(#paint14_linear_3251_9616)" stroke-width="0.625" stroke-linecap="round" stroke-linejoin="round"></path></g><path d="M14.9652 39.8593C14.9652 39.8593 15.7954 38.4302 17.547 38.3619C19.2986 38.2936 21.1826 39.8853 22.0422 40.8962" stroke="#281F26" stroke-width="0.635391" stroke-linecap="round" stroke-linejoin="round"></path><path d="M18.4974 39.502C18.5279 39.6751 18.4189 39.839 18.2538 39.8681C18.0888 39.8972 17.9303 39.7805 17.8998 39.6074C17.8692 39.4343 17.9783 39.2704 18.1433 39.2413C18.3083 39.2122 18.4669 39.3289 18.4974 39.502Z" fill="#3A2E37"></path><path d="M19.9747 40.1564C20.0052 40.3295 19.8962 40.4935 19.7311 40.5226C19.5661 40.5517 19.4076 40.4349 19.377 40.2618C19.3465 40.0887 19.4556 39.9248 19.6206 39.8957C19.7856 39.8666 19.9442 39.9833 19.9747 40.1564Z" fill="#3A2E37"></path><path d="M17.2421 39.488C17.2234 39.6627 17.0858 39.7914 16.9347 39.7752C16.7837 39.759 16.6763 39.6042 16.695 39.4294C16.7137 39.2547 16.8514 39.126 17.0024 39.1422C17.1535 39.1585 17.2608 39.3133 17.2421 39.488Z" fill="#3A2E37"></path><path d="M16.0477 40.0803C16.0192 40.2451 15.9032 40.3626 15.7885 40.3429C15.6738 40.3231 15.6037 40.1735 15.6322 40.0087C15.6607 39.8439 15.7767 39.7263 15.8914 39.7461C16.0061 39.7658 16.0761 39.9155 16.0477 40.0803Z" fill="#3A2E37"></path><path d="M17.5637 40.355C17.5942 40.5281 17.4852 40.6921 17.3201 40.7212C17.1551 40.7503 16.9966 40.6335 16.966 40.4604C16.9355 40.2873 17.0446 40.1234 17.2096 40.0943C17.3746 40.0652 17.5332 40.1819 17.5637 40.355Z" fill="#3A2E37"></path><path d="M18.8011 40.4319C18.8341 40.6191 18.7162 40.7963 18.5377 40.8278C18.3592 40.8592 18.1878 40.733 18.1548 40.5458C18.1218 40.3586 18.2397 40.1814 18.4182 40.1499C18.5967 40.1185 18.7681 40.2447 18.8011 40.4319Z" fill="#3A2E37"></path><path d="M16.6641 40.336C16.6357 40.5007 16.5196 40.6183 16.4049 40.5985C16.2902 40.5788 16.2202 40.4291 16.2486 40.2644C16.2771 40.0996 16.3931 39.982 16.5078 40.0018C16.6226 40.0215 16.6926 40.1712 16.6641 40.336Z" fill="#3A2E37"></path><path d="M27.0561 38.6571C27.0561 38.6571 28.2781 31.9482 29.6252 30.2677C29.6252 30.2677 30.8646 29.5681 31.7999 29.6437C32.7351 29.7194 28.9313 37.9256 28.9313 37.9256C28.9313 37.9256 27.8016 38.5657 27.0561 38.6571Z" fill="#8E6E8D"></path><path d="M28.0497 38.1614C28.0497 38.1614 29.6753 31.1597 30.7355 29.7515C31.2226 29.1044 34.3666 29.4319 34.9404 30.4129C35.5143 31.3939 34.764 33.0494 32.7332 35.1711C30.7023 37.2929 28.0497 38.1614 28.0497 38.1614Z" fill="url(#paint15_linear_3251_9616)"></path><path d="M14.4409 31.2216L15.6825 31.4436C15.6825 31.4436 16.3361 34.0139 15.9426 35.6465C15.5491 37.279 14.1516 39.1287 15.2422 40.5398C16.3328 41.9508 20.108 41.7661 25.3447 39.6403C30.5814 37.5144 34.8626 33.152 35.4574 31.524C35.4574 31.524 35.7865 32.7085 34.428 34.5514C33.0695 36.3943 29.6665 39.5996 22.3078 41.7389C14.949 43.8783 13.4837 41.2507 13.8361 39.3848C14.1884 37.519 16.1165 34.8142 14.4409 31.2216Z" fill="url(#paint16_linear_3251_9616)"></path><path d="M13.9549 40.6056C13.9549 40.6056 13.5365 39.5971 14.137 38.2286C14.7375 36.8601 15.6914 33.7459 14.5598 31.4202" stroke="#510032" stroke-width="0.625" stroke-linecap="round" stroke-linejoin="round"></path><path d="M15.6349 31.6122C15.6349 31.6122 16.1904 32.7167 16.0026 34.8341C15.8148 36.9516 14.55 38.4171 14.8631 39.9653C15.1761 41.5134 18.3914 42.2622 24.3069 40.1038C30.8974 37.6992 34.321 33.9289 35.3046 31.5509" stroke="#510032" stroke-width="0.625" stroke-linecap="round" stroke-linejoin="round"></path><path d="M11.8774 29.8248C11.8774 29.8248 14.1198 32.0538 19.3822 31.8327C27.4393 31.4942 29.5181 29.9853 31.6447 29.43C33.7714 28.8746 35.1777 29.3482 35.5134 31.9344C35.8492 34.5207 31.3918 37.9225 26.839 40.1377C23.4797 41.7722 15.4292 44.1937 13.9548 40.6058" stroke="#930965" stroke-width="0.635391" stroke-linecap="round" stroke-linejoin="round"></path><path d="M11.8836 28.8236C9.94145 28.978 11.3436 32.2094 11.9087 31.5261C12.1839 30.2011 11.7076 28.9839 11.8836 28.8236Z" fill="#9199A8"></path><path d="M11.836 28.8401C11.836 28.8401 11.8084 30.0475 14.9186 30.7099C19.3873 31.6616 25.228 30.6609 30.8734 28.8201C34.0857 27.7727 35.2621 29.1586 35.4539 30.9285C35.4539 30.9285 21.8712 35.6283 17.8605 34.9326C13.8498 34.237 10.8818 32.7961 10.832 29.5582" fill="#9199A8"></path><path d="M11.836 28.8401C11.836 28.8401 11.8084 30.0475 14.9186 30.7099C19.3873 31.6616 25.228 30.6609 30.8734 28.8201C34.0857 27.7727 35.2621 29.1586 35.4539 30.9285C35.4539 30.9285 21.8712 35.6283 17.8605 34.9326C13.8498 34.237 10.8818 32.7961 10.832 29.5582" stroke="#060707" stroke-width="0.625" stroke-linecap="round" stroke-linejoin="round"></path><path d="M10.7702 29.2085C10.7702 29.2085 10.6872 31.1183 14.9223 31.8433C19.882 32.6923 25.2467 31.7464 31.023 29.7258C34.2953 28.5811 35.344 29.3905 35.5358 31.1604C35.7978 33.5768 33.9401 35.7087 31.3606 37.4881C26.9116 40.5573 21.5365 42.4671 17.9145 42.3843C14.2924 42.3014 13.1471 40.5794 13.1471 40.5794C13.1471 40.5794 10.4641 34.9742 10.7702 29.2085Z" fill="url(#paint17_linear_3251_9616)"></path><path d="M11.955 30.8595C11.955 30.8595 13.0682 38.076 14.5752 41.5079C14.5752 41.5079 17.3721 42.8785 20.984 41.8809L18.736 32.0999C18.736 32.0999 14.4055 31.8007 11.955 30.8595Z" fill="url(#paint18_linear_3251_9616)"></path><path d="M11.9718 30.8712C11.9718 30.8712 13.5724 32.1408 15.7813 32.0519C15.7813 32.0519 16.2042 37.598 18.1381 42.4277C18.1381 42.4277 15.3712 42.1941 14.4818 41.469C14.4818 41.469 12.661 36.4112 11.9718 30.8712Z" fill="url(#paint19_linear_3251_9616)"></path><path d="M11.4238 30.6362C11.4238 30.6362 12.7156 31.6849 16.5824 31.9312C20.4491 32.1774 25.8277 31.8008 30.5358 29.9117C33.2844 28.8087 34.3416 29.3454 34.5652 30.7056C34.8704 32.5626 33.4798 34.9556 31.3444 36.5089C27.6613 39.188 23.0042 41.3005 18.2937 41.4096C15.203 41.4812 13.3113 39.5225 13.3113 39.5225C13.3113 39.5225 11.3596 35.1297 11.4238 30.6362Z" fill="url(#paint20_linear_3251_9616)"></path><g opacity="0.24"><path d="M18.8789 31.987C18.8789 31.987 24.4349 31.9784 26.2941 31.2698C26.2941 31.2698 26.7598 35.2745 27.452 39.8822C27.452 39.8822 21.9834 41.8301 21.2059 41.9672C21.2059 41.9672 19.437 38.5623 18.8789 31.987Z" fill="url(#paint21_linear_3251_9616)"></path></g><g opacity="0.8"><path d="M21.8439 41.7548C22.955 41.451 25.3099 40.969 25.9697 40.267C26.6212 39.0071 26.8365 37.4692 27.1891 35.3399C27.4653 33.6721 27.6178 31.6123 27.5932 30.8491C26.8202 30.801 25.2056 31.2047 23.4468 31.7871C23.4023 32.4794 23.0203 35.4573 22.4731 37.3592C22.7394 37.3513 23.682 36.5108 24.057 36.0988C24.051 37.4831 23.1838 40.2081 21.8439 41.7548Z" fill="url(#paint22_linear_3251_9616)"></path></g><g opacity="0.74"><path d="M32.6974 31.5168C32.7577 31.5581 32.8407 31.5382 32.8705 31.4714C32.9769 31.2324 33.252 30.7745 33.7694 30.8701C34.4562 30.9969 34.5679 31.7615 34.2522 32.8693C34.0667 33.5201 33.8134 33.9822 33.6359 34.2529C33.5251 34.4219 33.3003 34.4713 33.1282 34.3654C32.546 34.0071 31.2985 33.1437 31.1899 32.2669C31.0562 31.1886 32.0481 31.0713 32.6974 31.5168Z" fill="#21D6D1"></path></g><g opacity="0.36"><path d="M32.2232 33.5459L33.4456 31.0156C33.4456 31.0156 33.9472 30.7919 34.2593 31.3682L32.9761 34.1497C32.9761 34.1497 32.4238 33.9164 32.2232 33.5459Z" fill="white"></path></g><g opacity="0.36"><path d="M31.8905 33.3591L32.8019 31.5951L32.5579 31.5179L31.7447 33.2144L31.8905 33.3591Z" fill="white"></path></g><path d="M32.6974 31.5168C32.7577 31.5581 32.8407 31.5382 32.8705 31.4714C32.9769 31.2324 33.252 30.7745 33.7694 30.8701C34.4562 30.9969 34.5679 31.7615 34.2522 32.8693C34.0667 33.5201 33.8134 33.9822 33.6359 34.2529C33.5251 34.4219 33.3003 34.4713 33.1282 34.3654C32.546 34.0071 31.2985 33.1437 31.1899 32.2669C31.0562 31.1886 32.0481 31.0713 32.6974 31.5168Z" stroke="#060707" stroke-width="0.390625" stroke-linecap="round" stroke-linejoin="round"></path><g opacity="0.4"><mask id="mask1_3251_9616" maskUnits="userSpaceOnUse" x="12" y="16" width="16" height="33" style="mask-type: luminance;"><path d="M24.1065 16.8805C15.948 21.2483 13.4986 25.0522 12.9829 29.6917C12.4395 29.7861 12.1645 30.2511 12.2566 30.6613C11.7117 31.9572 13.6735 40.1591 14.7507 42.0328C14.8935 42.1851 15.2544 42.3198 15.4622 42.3867C15.9398 44.0136 16.7565 45.7977 17.3135 46.6868C17.5686 47.0087 19.1151 48.2433 20.0293 47.973C19.3552 46.2871 18.8068 43.627 18.7234 42.7199C18.5467 42.7705 18.3651 42.753 18.2787 42.7178C16.8632 38.2282 15.9848 33.5837 16.0037 31.6665C16.006 31.4421 16.0304 30.918 16.3986 30.6158C16.235 24.3307 20.3769 19.0604 27.0354 16.6219C26.5195 16.3955 25.3043 16.5195 24.1065 16.8805Z" fill="url(#paint23_linear_3251_9616)"></path></mask><g mask="url(#mask1_3251_9616)"><path d="M24.1067 16.8808C15.9481 21.2486 13.4987 25.0526 12.983 29.692C12.4396 29.7864 12.1646 30.2514 12.2567 30.6616C11.7118 31.9575 13.6736 40.1594 14.7508 42.0331C14.8936 42.1854 15.2545 42.3201 15.4623 42.387C15.9399 44.0139 16.7566 45.798 17.3136 46.6871C17.5687 47.009 19.1152 48.2436 20.0294 47.9733C19.3553 46.2874 18.807 43.6274 18.7235 42.7202C18.5468 42.7708 18.3653 42.7533 18.2789 42.7181C16.8634 38.2285 15.9849 33.584 16.0038 31.6668C16.0061 31.4424 16.0305 30.9183 16.3987 30.6161C16.2351 24.331 20.377 19.0607 27.0355 16.6222C26.5196 16.3958 25.3044 16.5198 24.1067 16.8808Z" fill="url(#paint24_linear_3251_9616)"></path></g><mask id="mask2_3251_9616" maskUnits="userSpaceOnUse" x="21" y="18" width="16" height="29" style="mask-type: luminance;"><path d="M32.3716 18.0624C26.3705 19.1206 21.9822 23.365 22.304 30.4494C21.7606 30.5438 21.5354 31.1785 21.6275 31.5887C21.6505 33.1811 22.4835 39.4798 23.5018 41.5821C23.6446 41.7344 24.0344 41.5268 24.2258 41.5569C24.6824 43.1776 25.1563 44.5716 25.5696 46.1845C26.2664 45.9745 27.9342 45.0855 28.8289 44.6479C28.3143 43.0231 28.1109 41.0261 27.864 39.9792C27.6873 40.0299 27.5001 40.0926 27.4137 40.0575C25.9982 35.5679 25.761 32.8728 25.7799 30.9557C25.7821 30.7313 25.7919 30.0115 26.039 29.81C26.1333 24.299 30.0711 20.6496 36.0056 18.6512C35.4898 18.4249 33.27 17.9833 32.3716 18.0624Z" fill="url(#paint25_linear_3251_9616)"></path></mask><g mask="url(#mask2_3251_9616)"><path d="M32.3714 18.0624C26.3703 19.1206 21.982 23.365 22.3039 30.4494C21.7604 30.5438 21.5352 31.1785 21.6273 31.5887C21.6503 33.1811 22.4833 39.4798 23.5016 41.5821C23.6444 41.7344 24.0342 41.5268 24.2256 41.5569C24.6822 43.1776 25.1561 44.5716 25.5694 46.1845C26.2662 45.9745 27.934 45.0855 28.8287 44.6479C28.3141 43.0231 28.1107 41.0261 27.8638 39.9792C27.6872 40.0299 27.4999 40.0926 27.4135 40.0575C25.998 35.5679 25.7608 32.8728 25.7797 30.9557C25.782 30.7313 25.7917 30.0115 26.0389 29.81C26.1331 24.299 30.0709 20.6496 36.0055 18.6512C35.4896 18.4249 33.2698 17.9833 32.3714 18.0624Z" fill="url(#paint26_linear_3251_9616)"></path></g></g><path d="M10.7698 29.2079C10.7698 29.2079 10.687 31.1177 14.9221 31.8427C19.8817 32.6917 25.2463 31.7459 31.0227 29.7252C34.2949 28.5806 35.3437 29.39 35.5355 31.1599C35.7975 33.5762 33.9398 35.7082 31.3603 37.4876C26.9113 40.5568 21.5362 42.4666 17.9142 42.3837C14.2921 42.3009 13.1468 40.5789 13.1468 40.5789C13.1468 40.5789 10.4638 34.9737 10.7698 29.2079Z" stroke="#060707" stroke-width="0.625" stroke-linecap="round" stroke-linejoin="round"></path><path d="M10.7691 29.205C10.7691 29.205 10.6862 31.1149 14.9212 31.8398C19.8809 32.6888 25.2455 31.743 31.0218 29.7224C34.2941 28.5777 35.3428 29.3871 35.5347 31.157C35.7966 33.5734 33.939 35.7053 31.3596 37.4847C26.9105 40.5539 21.5354 42.4636 17.9134 42.3808C14.2913 42.298 13.1459 40.576 13.1459 40.576C13.1459 40.576 10.463 34.9708 10.7691 29.205Z" stroke="url(#paint27_linear_3251_9616)" stroke-width="0.625" stroke-linecap="round" stroke-linejoin="round"></path><g opacity="0.2"><path d="M22.1325 31.9292C23.891 31.7087 25.6938 31.33 27.5411 30.8187" stroke="url(#paint28_linear_3251_9616)" stroke-width="0.625" stroke-linecap="round" stroke-linejoin="round"></path></g><g opacity="0.2"><path d="M22.1325 31.9292C23.891 31.7087 25.6938 31.33 27.5411 30.8187" stroke="url(#paint29_linear_3251_9616)" stroke-width="0.625" stroke-linecap="round" stroke-linejoin="round"></path></g><g opacity="0.2"><path d="M22.1325 31.9292C23.891 31.7087 25.6938 31.33 27.5411 30.8187" stroke="url(#paint30_linear_3251_9616)" stroke-width="0.625" stroke-linecap="round" stroke-linejoin="round"></path></g><g opacity="0.2"><path d="M22.1325 31.9292C23.891 31.7087 25.6938 31.33 27.5411 30.8187" stroke="url(#paint31_linear_3251_9616)" stroke-width="0.625" stroke-linecap="round" stroke-linejoin="round"></path></g><path d="M22.1325 31.9292C23.891 31.7087 25.6938 31.33 27.5411 30.8187" stroke="url(#paint32_linear_3251_9616)" stroke-width="0.625" stroke-linecap="round" stroke-linejoin="round"></path><g opacity="0.2"><path d="M11.4545 30.4493C12.0127 30.9605 13.0254 31.5071 14.8615 31.8293" stroke="url(#paint33_linear_3251_9616)" stroke-width="0.625" stroke-linecap="round" stroke-linejoin="round"></path></g><g opacity="0.2"><path d="M11.4545 30.4493C12.0127 30.9605 13.0254 31.5071 14.8615 31.8293" stroke="url(#paint34_linear_3251_9616)" stroke-width="0.625" stroke-linecap="round" stroke-linejoin="round"></path></g><g opacity="0.2"><path d="M11.4545 30.4493C12.0127 30.9605 13.0254 31.5071 14.8615 31.8293" stroke="url(#paint35_linear_3251_9616)" stroke-width="0.625" stroke-linecap="round" stroke-linejoin="round"></path></g><g opacity="0.2"><path d="M11.4545 30.4493C12.0127 30.9605 13.0254 31.5071 14.8615 31.8293" stroke="url(#paint36_linear_3251_9616)" stroke-width="0.625" stroke-linecap="round" stroke-linejoin="round"></path></g><path d="M11.4545 30.4493C12.0127 30.9605 13.0254 31.5071 14.8615 31.8293" stroke="url(#paint37_linear_3251_9616)" stroke-width="0.625" stroke-linecap="round" stroke-linejoin="round"></path><path d="M34.2953 28.5987C35.375 32.4801 33.1038 36.5019 29.2224 37.5816C25.341 38.6613 21.3192 36.3901 20.2395 32.5087C19.1598 28.6273 21.431 24.6055 25.3124 23.5258C29.1938 22.4461 33.2156 24.7173 34.2953 28.5987Z" fill="url(#paint38_radial_3251_9616)"></path><path d="M26.515 27.496C26.515 27.496 27.1339 30.5935 28.424 30.366C28.424 30.366 27.0843 30.401 27.6701 33.7232C27.6701 33.7232 27.0402 30.6301 25.9006 30.8311C25.9006 30.8311 27.0301 30.4172 26.515 27.496Z" fill="white"></path><path d="M34.9683 24.2235C34.9683 24.2235 37.1765 24.4904 38.3886 23.2946C38.3886 23.2946 38.421 16.981 36.0101 14.2196C33.5992 11.4582 30.4962 10.3218 28.153 10.7951C28.153 10.7951 25.5881 14.1032 25.8979 18.5879C25.8979 18.5879 26.4809 19.5072 27.8169 19.2416C27.8169 19.2416 27.7045 14.0006 29.7077 13.2566C29.7077 13.2566 33.1682 15.833 33.4621 23.2967C33.4621 23.2967 34.1354 24.3303 34.9683 24.2235Z" fill="url(#paint39_linear_3251_9616)"></path><path d="M26.126 17.8421C26.126 17.8421 25.8481 19.3341 27.1126 19.2314C27.1126 19.2314 26.6756 15.1434 28.5785 12.5231C28.5785 12.5231 31.3062 14.1264 32.3348 17.2318C33.3633 20.3373 33.5375 23.3894 33.5375 23.3894C33.5375 23.3894 33.9158 24.2847 34.9703 24.2225C34.9703 24.2225 35.2098 21.1015 33.8942 17.4378C32.1616 12.6128 29.1406 11.2215 28.0431 10.9641C28.0431 10.9641 26.0993 12.9167 26.126 17.8421Z" fill="url(#paint40_linear_3251_9616)"></path><path d="M27.8285 19.1891C27.8285 19.1891 31.0938 19.2947 33.2451 22.4025C33.2451 22.4025 33.6896 16.5122 29.5123 13.2806C29.5123 13.2806 27.4632 14.8444 27.8285 19.1891Z" fill="url(#paint41_linear_3251_9616)"></path><path d="M33.0635 15.3998C33.0635 15.3998 34.315 18.065 34.6028 20.7199C34.8905 23.3747 34.8824 24.2379 34.8824 24.2379C34.8824 24.2379 37.5629 24.2663 37.8169 23.3197C37.8169 23.3197 38.4109 18.8459 35.7875 15.22C33.164 11.5942 31.4729 12.5738 33.0635 15.3998Z" fill="url(#paint42_linear_3251_9616)"></path><path d="M25.9667 18.5148C25.9667 18.5148 26.1389 13.0132 28.1526 10.7943C28.1526 10.7943 33.5423 10.2011 36.8126 15.5803C39.0685 19.2909 38.5037 23.2485 38.5037 23.2485" stroke="#77004A" stroke-width="0.625" stroke-linecap="round" stroke-linejoin="round"></path><path d="M28.1537 10.7946C28.1537 10.7946 33.5434 10.2014 36.8138 15.5806C39.0696 19.2912 38.5049 23.2488 38.5049 23.2488" stroke="#510032" stroke-width="0.625" stroke-linecap="round" stroke-linejoin="round"></path><g opacity="0.43"><path d="M29.5056 12.1832C30.7807 13.0609 32.3214 14.7877 33.3027 17.5267" stroke="white" stroke-width="0.625" stroke-linecap="round" stroke-linejoin="round"></path></g><g opacity="0.43"><path d="M33.8036 19.2288C33.9925 20.0352 34.1338 20.9106 34.2136 21.8576" stroke="white" stroke-width="0.625" stroke-linecap="round" stroke-linejoin="round"></path></g><path d="M29.4318 13.2745C27.4697 14.7629 27.8223 19.1498 27.8223 19.1498" stroke="#77004A" stroke-width="0.625" stroke-linecap="round" stroke-linejoin="round"></path><path d="M28.4044 12.5533C28.4044 12.5533 32.925 13.9808 33.5068 23.0771" stroke="#77004A" stroke-width="0.625" stroke-linecap="round" stroke-linejoin="round"></path></g></g></g><g clip-path="url(#clip2_3251_9616)"><g clip-path="url(#clip3_3251_9616)"><mask id="mask3_3251_9616" maskUnits="userSpaceOnUse" x="68" y="6" width="47" height="47" style="mask-type: luminance;"><path d="M114.338 12.9459L74.9462 6L68.0002 45.3923L107.393 52.3382L114.338 12.9459Z" fill="white"></path></mask><g mask="url(#mask3_3251_9616)"><path d="M76.2779 31.0905C74.682 37.2147 82.7788 40.999 88.8918 42.0779C95.0068 43.1572 103.635 42.489 104.509 36.0684C104.428 34.44 103.811 32.431 103.046 30.9666C98.2627 40.2734 80.5925 35.8318 79.5852 26.6315C78.3659 27.746 76.9113 29.5881 76.2779 31.0905Z" fill="url(#paint43_radial_3251_9616)"></path><path d="M76.2779 31.0905C74.682 37.2147 82.7788 40.999 88.8918 42.0779C95.0068 43.1572 103.635 42.489 104.509 36.0684C104.428 34.44 103.811 32.431 103.046 30.9666C98.2627 40.2734 80.5925 35.8318 79.5852 26.6315C78.3659 27.746 76.9113 29.5881 76.2779 31.0905Z" fill="url(#paint44_radial_3251_9616)"></path><path d="M76.2779 31.0905C74.682 37.2147 82.7788 40.999 88.8918 42.0779C95.0068 43.1572 103.635 42.489 104.509 36.0684C104.428 34.44 103.811 32.431 103.046 30.9666C98.2627 40.2734 80.5925 35.8318 79.5852 26.6315C78.3659 27.746 76.9113 29.5881 76.2779 31.0905Z" stroke="#757575" stroke-width="0.625" stroke-linecap="round" stroke-linejoin="round"></path><path d="M106.844 25.5494C105.897 22.1398 103.015 17.4062 102.339 16.3638L84.9831 13.3443C84.9831 13.3443 80.0053 17.2505 77.8329 20.1761C73.4457 26.0846 74.2988 31.7071 74.6314 32.9074C76.2563 19.6625 108.51 25.5225 105.51 38.3125C105.883 37.7375 108.93 33.0593 106.844 25.5494Z" fill="url(#paint45_radial_3251_9616)"></path><path d="M74.1693 31.9393C74.254 26.5669 81.3673 24.1649 83.3959 21.8364C82.8883 18.9048 83.735 14.9092 84.979 13.2923C83.1626 14.6219 79.74 17.7356 77.603 20.729C76.6555 22.0561 75.6325 23.6762 74.9468 25.7596C74.3824 27.4741 74.0465 29.5023 74.1693 31.9393Z" fill="url(#paint46_radial_3251_9616)"></path><path d="M74.1693 31.9393C74.254 26.5669 81.3673 24.1649 83.3959 21.8364C82.8883 18.9048 83.735 14.9092 84.979 13.2923C83.1626 14.6219 79.74 17.7356 77.603 20.729C76.6555 22.0561 75.6325 23.6762 74.9468 25.7596C74.3824 27.4741 74.0465 29.5023 74.1693 31.9393Z" fill="url(#paint47_radial_3251_9616)"></path><path d="M106.196 37.5874C107.954 32.5101 103.018 27.4112 101.212 24.9788C102.844 22.1327 102.988 17.7881 102.269 16.3023C103.58 18.2681 105.795 22.0106 106.876 25.6933C107.713 28.5455 108.298 32.6078 106.196 37.5874Z" fill="url(#paint48_radial_3251_9616)"></path><g opacity="0.5"><path d="M102.349 16.3457C103.16 18.0751 102.11 23.5694 101.226 24.909L83.3875 21.7952C82.8962 18.8246 83.6327 14.6412 84.9864 13.2936L102.349 16.3457Z" fill="url(#paint49_radial_3251_9616)"></path></g><path d="M106.844 25.5494C105.897 22.1398 103.015 17.4062 102.339 16.3638L84.9831 13.3443C84.9831 13.3443 80.0053 17.2505 77.8329 20.1761C73.4457 26.0846 74.2988 31.7071 74.6314 32.9074C76.2563 19.6625 108.51 25.5225 105.51 38.3125C105.883 37.7375 108.93 33.0593 106.844 25.5494Z" stroke="url(#paint50_linear_3251_9616)" stroke-width="0.625" stroke-linecap="round" stroke-linejoin="round"></path><path d="M102.966 35.5919C102.222 39.8091 96.0217 42.241 89.1168 41.0235C82.212 39.8059 77.2172 35.4001 77.9609 31.1828C78.7045 26.9655 84.9049 24.5337 91.8097 25.7512C98.7146 26.9688 103.709 31.3746 102.966 35.5919ZM83.2328 21.7563C82.052 22.5832 79.8299 23.6708 77.8953 25.2071C75.9606 26.7435 74.3134 28.7285 74.2825 31.3501C74.2495 34.1459 76.332 36.7338 79.1919 38.7582C82.0518 40.7826 85.6889 42.2436 88.7649 42.786C94.9169 43.8707 104.456 42.2739 106.306 36.9968C108.042 32.0487 102.698 27.2321 101.065 24.9007L83.2328 21.7563Z" fill="url(#paint51_linear_3251_9616)"></path><path d="M102.966 35.5919C102.222 39.8091 96.0217 42.241 89.1168 41.0235C82.212 39.8059 77.2172 35.4001 77.9609 31.1828C78.7045 26.9655 84.9049 24.5337 91.8097 25.7512C98.7146 26.9688 103.709 31.3746 102.966 35.5919ZM83.2328 21.7563C82.052 22.5832 79.8299 23.6708 77.8953 25.2071C75.9606 26.7435 74.3134 28.7285 74.2825 31.3501C74.2495 34.1459 76.332 36.7338 79.1919 38.7582C82.0518 40.7826 85.6889 42.2436 88.7649 42.786C94.9169 43.8707 104.456 42.2739 106.306 36.9968C108.042 32.0487 102.698 27.2321 101.065 24.9007L83.2328 21.7563Z" stroke="#955B1E" stroke-width="0.625" stroke-linecap="round" stroke-linejoin="round"></path><mask id="mask4_3251_9616" maskUnits="userSpaceOnUse" x="73" y="21" width="34" height="23" style="mask-type: luminance;"><path d="M83.2328 21.7563C82.052 22.5832 79.8299 23.6708 77.8953 25.2071C75.9606 26.7435 74.3134 28.7285 74.2825 31.3501C74.2495 34.1459 76.332 36.7338 79.1919 38.7582C82.0518 40.7826 85.6889 42.2436 88.7649 42.786C94.9169 43.8707 104.456 42.2739 106.306 36.9968C108.042 32.0487 102.698 27.2321 101.065 24.9007L83.2328 21.7563Z" fill="black" stroke="url(#paint52_linear_3251_9616)" stroke-width="0.632813" stroke-linecap="round" stroke-linejoin="round"></path></mask><g mask="url(#mask4_3251_9616)"><path d="M83.2326 21.7563C82.0518 22.5832 79.8297 23.6708 77.895 25.2071C75.9604 26.7435 74.3132 28.7285 74.2822 31.3501C74.2492 34.1459 76.3318 36.7338 79.1917 38.7582C82.0516 40.7826 85.6887 42.2436 88.7646 42.786C94.9166 43.8707 104.456 42.2739 106.306 36.9968C108.041 32.0487 102.698 27.2321 101.065 24.9007L83.2326 21.7563Z" stroke="url(#paint53_linear_3251_9616)" stroke-width="0.632813" stroke-linecap="round" stroke-linejoin="round"></path></g><mask id="mask5_3251_9616" maskUnits="userSpaceOnUse" x="77" y="25" width="27" height="17" style="mask-type: luminance;"><path d="M102.968 35.5925C102.224 39.8098 96.0235 42.2416 89.1186 41.0241C82.2137 39.8066 77.219 35.4008 77.9626 31.1835C78.7063 26.9662 84.9066 24.5344 91.8115 25.7519C98.7164 26.9694 103.711 31.3752 102.968 35.5925Z" fill="black" stroke="url(#paint54_linear_3251_9616)" stroke-width="0.632813" stroke-linecap="round" stroke-linejoin="round"></path></mask><g mask="url(#mask5_3251_9616)"><path d="M102.967 35.5924C102.224 39.8097 96.0231 42.2416 89.1183 41.024C82.2134 39.8065 77.2186 35.4007 77.9623 31.1834C78.7059 26.9661 84.9063 24.5343 91.8112 25.7518C98.716 26.9693 103.711 31.3752 102.967 35.5924Z" stroke="url(#paint55_linear_3251_9616)" stroke-width="0.632813" stroke-linecap="round" stroke-linejoin="round"></path></g><path d="M84.9725 13.3703L102.335 16.4225" stroke="#BC8126" stroke-width="0.625" stroke-linecap="round" stroke-linejoin="round"></path><path d="M97.1017 19.4456C96.7766 21.2894 94.6841 22.4615 92.4279 22.0637C90.1717 21.6658 88.6063 19.8487 88.9314 18.005C89.2565 16.1612 91.349 14.9891 93.6052 15.3869C95.8614 15.7847 97.4268 17.6019 97.1017 19.4456Z" fill="url(#paint56_linear_3251_9616)"></path><path d="M95.7807 17.064C95.7875 16.9614 95.7494 16.793 95.3813 16.804C94.8233 16.8207 93.1525 17.1178 90.1254 17.674C89.858 17.7152 89.711 17.7759 89.6841 17.8563C89.6624 17.9214 89.5721 18.5275 89.5587 18.5675C89.5072 18.7217 89.7632 18.8183 90.0797 18.9711C90.3377 19.0956 90.6872 19.2498 90.8765 19.2873C91.0483 19.3213 91.2516 19.2946 91.4865 19.2071C91.8982 19.0572 92.2856 18.7727 92.5946 18.6613C92.5542 18.6835 92.5267 18.6988 92.5168 18.7049C92.3056 18.8349 92.0863 18.924 92.0526 19.0618C92.0413 19.1077 91.9352 19.7322 91.9257 19.7794C91.908 19.8672 91.9652 19.9748 92.1459 20.1248C92.5541 20.4638 92.7892 20.6756 93.2101 21.0234C93.479 21.2457 93.6776 21.4879 93.991 21.5186C94.1352 21.5328 94.3028 21.4439 94.439 21.1142C94.505 20.9543 95.5231 18.4508 95.6446 17.8435C95.6464 17.8348 95.7787 17.095 95.7807 17.064Z" fill="url(#paint57_radial_3251_9616)"></path><path d="M90.128 17.6742C93.1552 17.118 94.8259 16.8209 95.384 16.8042C95.8636 16.7899 95.7832 17.0802 95.7727 17.1324C95.6512 17.7397 94.6331 20.2431 94.5671 20.4031C94.2266 21.2275 93.6758 20.5915 93.3381 20.3123C92.9172 19.9645 92.6822 19.7528 92.274 19.4137C91.8021 19.0219 92.1721 18.9191 92.5195 18.7051C92.5922 18.6603 93.5986 18.1262 94.0222 17.8665C94.312 17.6889 94.3085 17.5375 93.8051 17.7101C93.4349 17.837 92.7048 18.099 91.6146 18.4959C91.3797 18.5834 91.1764 18.6102 91.0047 18.5762C90.8153 18.5387 90.4658 18.3844 90.2078 18.2599C90.1875 18.2502 89.0855 17.8347 90.128 17.6742Z" fill="url(#paint58_linear_3251_9616)"></path></g></g></g><g clip-path="url(#clip4_3251_9616)"><mask id="mask6_3251_9616" maskUnits="userSpaceOnUse" x="34" y="-1" width="49" height="50" style="mask-type: luminance;"><path d="M82.6882 -0.00012207H34.0001V48.6879H82.6882V-0.00012207Z" fill="white"></path></mask><g mask="url(#mask6_3251_9616)"><path d="M71.3399 28.9828C71.3413 27.3917 70.1006 26.6405 68.471 26.4498L52.2213 24.4344C50.5568 24.2396 48.8169 24.4494 47.9317 25.5163L42.3594 33.0574C41.5425 33.9947 41.4041 34.645 41.1777 35.6793C41.027 36.4163 41.547 42.629 41.5897 42.9832C41.7274 44.1006 42.5431 44.8063 43.8836 45.0626L61.7735 47.5726C63.9639 47.7827 66.2479 47.2934 66.9384 45.5674L70.6889 37.1171C70.9065 36.6665 71.0061 36.3512 71.1467 35.7094C71.3531 34.7109 71.3398 29.1316 71.3399 28.9828Z" fill="url(#paint59_linear_3251_9616)"></path><path d="M71.3399 28.9828C71.3413 27.3917 70.1006 26.6405 68.471 26.4498L52.2213 24.4344C50.5568 24.2396 48.8169 24.4494 47.9317 25.5163L42.3594 33.0574C41.5425 33.9947 41.4041 34.645 41.1777 35.6793C41.027 36.4163 41.547 42.629 41.5897 42.9832C41.7274 44.1006 42.5431 44.8063 43.8836 45.0626L61.7735 47.5726C63.9639 47.7827 66.2479 47.2934 66.9384 45.5674L70.6889 37.1171C70.9065 36.6665 71.0061 36.3512 71.1467 35.7094C71.3531 34.7109 71.3398 29.1316 71.3399 28.9828Z" stroke="#006E87" stroke-width="0.599091" stroke-linecap="round" stroke-linejoin="round"></path><path d="M41.5748 40.9857C41.6267 42.1303 42.6024 43.1046 43.9472 43.3322L62.04 45.7902C64.2553 46.0128 66.4183 45.1551 67.0846 43.527L70.6729 35.5092C70.8906 35.0586 71.2843 34.3437 71.3426 33.4388" stroke="url(#paint60_linear_3251_9616)" stroke-width="0.299546" stroke-linecap="round" stroke-linejoin="round"></path><path d="M61.7725 47.572C63.9628 47.7821 66.2469 47.2929 66.9373 45.5669L70.6877 37.1166C70.9054 36.666 71.0112 36.3507 71.1455 35.7088C71.3411 34.7052 71.3395 29.1311 71.3389 28.9823C71.3323 27.3649 70.0995 26.64 68.47 26.4493" stroke="#254C50" stroke-width="0.599091" stroke-linecap="round" stroke-linejoin="round"></path><path d="M52.2214 24.4344C50.5569 24.2396 48.817 24.4494 47.9318 25.5163L42.3595 33.0573C41.5426 33.9946 41.4042 34.6148 41.1778 35.6792C41.027 36.4162 41.5452 42.6358 41.5898 42.9832" stroke="#00AAB7" stroke-width="0.599091" stroke-linecap="round" stroke-linejoin="round"></path><path d="M61.096 39.2337L44.0596 36.7515C42.2954 36.4452 41.7853 34.8269 42.6547 33.864L48.2834 26.3621C49.169 25.3326 50.4608 25.2612 52.5216 25.4574C53.6346 25.5634 65.4652 26.51 67.4443 26.7842C69.0981 27.0133 70.9536 28.0374 70.1824 29.3348L66.4497 37.3817C65.8221 38.5099 63.1898 39.5973 61.096 39.2337Z" fill="url(#paint61_linear_3251_9616)"></path><path d="M60.9564 38.2918L44.6849 35.916C43.0027 35.624 42.3479 34.6284 43.1769 33.7102L48.4773 26.3829C49.3217 25.4012 50.6592 24.9795 52.6519 24.7787C57.009 24.3397 65.2807 26.2751 66.9935 26.9879C68.1969 27.4887 69.8668 28.2742 69.4071 29.1005L65.6952 36.9531C65.0969 38.0288 62.9529 38.6385 60.9564 38.2918Z" fill="black"></path><path d="M60.9564 38.2918L44.6849 35.916C43.0027 35.624 42.3479 34.6284 43.1769 33.7102L48.4773 26.3829C49.3217 25.4012 50.6592 24.9795 52.6519 24.7787C57.009 24.3397 65.2807 26.2751 66.9935 26.9879C68.1969 27.4887 69.8668 28.2742 69.4071 29.1005L65.6952 36.9531C65.0969 38.0288 62.9529 38.6385 60.9564 38.2918Z" stroke="#212121" stroke-width="0.599091" stroke-linecap="round" stroke-linejoin="round"></path><path d="M60.7792 37.4003L45.2245 35.1242C43.6191 34.8454 42.9942 33.8955 43.7854 33.0192L48.7819 26.0758C49.5877 25.1389 50.8642 24.7366 52.7658 24.545C56.9239 24.1261 64.8441 25.9818 66.4787 26.662C67.6272 27.14 69.2208 27.8897 68.7821 28.6782L65.3015 36.1228C64.7305 37.1493 62.6845 37.7311 60.7792 37.4003Z" fill="url(#paint62_linear_3251_9616)"></path><path d="M60.7792 37.4003L45.2245 35.1242C43.6191 34.8454 42.9942 33.8955 43.7854 33.0192L48.7819 26.0758C49.5877 25.1389 50.8642 24.7366 52.7658 24.545C56.9239 24.1261 64.8441 25.9818 66.4787 26.662C67.6272 27.14 69.2208 27.8897 68.7821 28.6782L65.3015 36.1228C64.7305 37.1493 62.6845 37.7311 60.7792 37.4003Z" stroke="black" stroke-width="0.599091" stroke-linecap="round" stroke-linejoin="round"></path><path d="M43.2836 34.0898C43.5011 34.6874 44.4854 35.1953 45.4004 35.2917C46.3153 35.3882 60.673 37.6353 60.673 37.6353" stroke="url(#paint63_radial_3251_9616)" stroke-width="0.299546" stroke-linecap="round" stroke-linejoin="round"></path><g opacity="0.44"><path d="M45.6431 30.6155C47.8875 28.9655 51.1564 28.8978 57.324 29.7058C63.4915 30.5139 65.5587 31.8868 65.789 32.9456C59.1248 31.5426 50.2167 30.3992 45.6431 30.6155Z" fill="#0F020E"></path></g><path d="M48.7595 7.57381C48.7647 7.47726 48.9645 13.9503 49.1151 19.3379C49.2079 22.6602 51.6061 23.7172 52.3477 23.8861C55.6851 24.2759 71.8811 27.6507 72.3019 24.8323C72.7211 22.3468 74.3393 8.93634 72.3603 7.24301C70.383 5.55088 49.494 -0.493054 48.7595 7.57381Z" fill="url(#paint64_linear_3251_9616)"></path><path d="M48.7595 7.57381C48.7647 7.47726 48.9645 13.9503 49.1151 19.3379C49.2079 22.6602 51.6061 23.7172 52.3477 23.8861C55.6851 24.2759 71.8811 27.6507 72.3019 24.8323C72.7211 22.3468 74.3393 8.93634 72.3603 7.24301C70.383 5.55088 49.494 -0.493054 48.7595 7.57381Z" stroke="black" stroke-width="0.599091" stroke-linecap="round" stroke-linejoin="round"></path><path d="M73.1461 20.2037C73.2915 21.8233 72.117 22.9566 70.5254 22.7385L54.768 20.9361C53.2053 20.7218 51.8514 19.4595 51.7681 17.7451C51.7024 17.0668 51.4746 5.86417 51.4746 5.86417C51.4527 4.22465 52.5515 3.0729 54.1296 3.2751L70.005 5.1173C71.6125 5.32329 73.0378 6.82751 73.1856 8.47401L73.1461 20.2037Z" fill="url(#paint65_linear_3251_9616)"></path><g opacity="0.22"><path d="M60.0803 10.1902L58.5632 10.0227L58.5657 10.2968L59.2126 10.3683L59.2286 12.2538L59.4862 12.2826L59.4706 10.3968L60.0825 10.4644L60.0803 10.1902Z" fill="white"></path><path d="M60.6358 10.7689C59.409 10.6806 59.8055 12.9177 61.1843 12.4321L61.0944 12.1649C60.6793 12.2772 60.2751 12.1314 60.1991 11.6657L61.2645 11.7841C61.3169 11.2434 60.9933 10.7946 60.6358 10.7689ZM60.201 11.3923C60.2952 10.9006 60.9508 10.9313 60.9956 11.4804L60.201 11.3923Z" fill="white"></path><path d="M61.6125 12.52L61.8708 12.5488L61.8548 10.2709L61.5962 10.2424L61.6125 12.52Z" fill="white"></path><path d="M64.8332 11.4486C63.4158 10.3359 63.4109 13.4513 64.8399 12.6974C64.9312 13.2459 64.3405 13.3686 63.9571 13.0938L63.8308 13.318C64.312 13.6759 65.1208 13.5395 65.0998 12.8513L65.092 11.3607L64.8326 11.3321L64.8332 11.4486ZM64.4054 12.5407C63.8794 12.5026 63.894 11.4236 64.3851 11.4924C64.9487 11.5321 64.9895 12.6287 64.4054 12.5407Z" fill="white"></path><path d="M65.7442 11.5862L65.7434 11.432L65.4838 11.4034L65.4916 12.9508L65.7509 12.9797C65.7606 12.5347 65.6299 11.6532 66.2456 11.6972L66.2443 11.4222C66.0437 11.4001 65.8727 11.4604 65.7442 11.5862Z" fill="white"></path><path d="M67.5196 12.2566C67.5338 11.5792 67.0367 11.3644 66.4523 11.5568L66.5514 11.8223C66.9338 11.7155 67.2343 11.7245 67.2588 12.1524C66.037 11.8653 66.1229 13.5285 67.2872 13.0118C67.2991 13.1192 67.3103 13.1766 67.3114 13.182L67.5653 13.1529C67.5647 13.1499 67.5072 12.8466 67.5196 12.2566ZM66.6353 12.6406C66.6658 12.361 67.0621 12.4026 67.2577 12.4276C67.3602 12.9038 66.5998 12.9663 66.6353 12.6406Z" fill="white"></path><path d="M69.7805 11.9137C69.5234 11.7523 69.2761 11.8514 69.1028 12.1121C68.9414 11.667 68.4093 11.6358 68.1888 12.01L68.1877 11.7007L67.9274 11.6721L67.9331 13.2214L68.1931 13.2502C68.1892 12.1211 68.5593 11.963 68.741 12.0471C68.977 12.1563 68.8647 12.8694 68.8814 13.3333L69.1415 13.3553C69.1135 12.8538 69.2212 11.9766 69.6544 12.1406C69.8453 12.2442 69.7217 13.2518 69.7564 13.4233L70.0169 13.4521C69.9701 13.1061 70.1665 12.1354 69.7805 11.9137Z" fill="white"></path><path d="M62.8627 11.0152C61.6328 10.927 62.0275 13.1666 63.4104 12.6803L63.3207 12.4127C62.9044 12.5252 62.4995 12.3793 62.4237 11.9131L63.4917 12.0315C63.5448 11.4902 63.221 11.0409 62.8627 11.0152ZM62.4259 11.6393C62.521 11.147 63.1783 11.1778 63.2226 11.7276L62.4259 11.6393Z" fill="white"></path><path d="M57.319 12.3709L57.8667 9.94164C57.8826 9.87105 57.8125 9.80225 57.7443 9.82152L54.7449 10.6673C54.6728 10.6877 54.6768 10.7929 54.7509 10.8241L55.542 11.157L57.3058 10.2213L55.9603 11.4027L57.1928 12.4066C57.2404 12.4454 57.3064 12.4268 57.319 12.3709Z" fill="white"></path></g><path d="M72.2172 2.50696C69.782 2.26353 55.8429 0.936244 55.8429 0.936244C54.4893 0.799352 53.1795 1.13474 52.4171 1.8859C51.8319 2.34311 49.1423 4.28227 48.6791 5.12359C48.3605 5.75264 48.298 6.29582 48.2784 7.2301C48.2418 8.97955 48.4812 18.2085 48.5724 20.2517C48.6636 22.2948 50.4106 23.9376 52.1895 24.177L70.1973 26.253C71.3134 26.4033 72.4555 25.5964 73.0539 24.7699C73.3865 24.304 74.9224 21.7754 75.1859 20.8863C75.3556 20.3538 75.5873 19.907 75.6485 17.764C75.7097 15.6211 75.7444 8.64875 75.7702 6.42911C75.7961 4.20948 74.6524 2.75039 72.2172 2.50696ZM72.0871 22.51C72.0871 24.1939 71.0114 25.2854 69.3452 25.0653L52.829 23.232C51.1932 23.0159 49.6918 21.5521 49.6573 19.9145C49.6573 19.9145 49.3595 8.59233 49.3595 8.12794C49.3457 6.2399 50.6461 5.09823 52.298 5.30222L68.9185 7.16959C70.6014 7.37748 72.1071 8.8786 72.1071 10.6586L72.0871 22.51Z" fill="url(#paint66_linear_3251_9616)"></path><path d="M72.2172 2.50696C69.782 2.26353 55.8429 0.936244 55.8429 0.936244C54.4893 0.799352 53.1795 1.13474 52.4171 1.8859C51.8319 2.34311 49.1423 4.28227 48.6791 5.12359C48.3605 5.75264 48.298 6.29582 48.2784 7.2301C48.2418 8.97955 48.4812 18.2085 48.5724 20.2517C48.6636 22.2948 50.4106 23.9376 52.1895 24.177L70.1973 26.253C71.3134 26.4033 72.4555 25.5964 73.0539 24.7699C73.3865 24.304 74.9224 21.7754 75.1859 20.8863C75.3556 20.3538 75.5873 19.907 75.6485 17.764C75.7097 15.6211 75.7444 8.64875 75.7702 6.42911C75.7961 4.20948 74.6524 2.75039 72.2172 2.50696ZM72.0871 22.51C72.0871 24.1939 71.0114 25.2854 69.3452 25.0653L52.829 23.232C51.1932 23.0159 49.6918 21.5521 49.6573 19.9145C49.6573 19.9145 49.3595 8.59233 49.3595 8.12794C49.3457 6.2399 50.6461 5.09823 52.298 5.30222L68.9185 7.16959C70.6014 7.37748 72.1071 8.8786 72.1071 10.6586L72.0871 22.51Z" stroke="#006E87" stroke-width="0.599091" stroke-linecap="round" stroke-linejoin="round"></path><path d="M74.6708 21.9829C74.9461 21.4089 75.0281 20.4086 75.0491 19.2027C75.1128 15.5378 75.075 11.6151 75.0811 7.55083C75.0846 5.18292 73.5288 3.89518 71.5625 3.58814C69.5962 3.28111 56.0566 1.99366 54.7227 1.87984C53.3889 1.76601 52.2033 2.0992 51.1534 2.96798" stroke="url(#paint67_linear_3251_9616)" stroke-width="0.299546" stroke-linecap="round" stroke-linejoin="round"></path><path d="M52.8148 24.2493C55.9973 24.6162 70.1948 26.253 70.1948 26.253C71.3109 26.4033 72.4529 25.5964 73.0513 24.7698C73.3839 24.304 74.9199 21.7754 75.1834 20.8862C75.353 20.3537 75.5848 19.9069 75.646 17.764C75.6998 15.88 75.7331 10.2636 75.7579 7.42535" stroke="#254C50" stroke-width="0.599091" stroke-linecap="round" stroke-linejoin="round"></path><path d="M72.2172 2.50696C69.782 2.26353 55.8429 0.936244 55.8429 0.936244C54.4893 0.799352 53.1795 1.13474 52.4171 1.8859C51.8319 2.34311 49.1423 4.28227 48.6791 5.12359C48.3605 5.75264 48.298 6.29582 48.2784 7.2301C48.2476 8.70187 48.4121 15.4672 48.5195 18.7943" stroke="#00AAB7" stroke-width="0.599091" stroke-linecap="round" stroke-linejoin="round"></path><path d="M50.1 25.8009C50.2248 23.5993 51.0931 20.5783 53.1455 20.3685C54.7168 20.2079 69.2854 22.1939 69.9715 22.3922C71.2359 22.7758 70.5538 24.1198 70.0896 24.4101C69.1412 24.7024 68.7122 27.7418 68.6289 28.3684" fill="url(#paint68_linear_3251_9616)"></path><path d="M50.1 25.8009C50.2248 23.5993 51.0931 20.5783 53.1455 20.3685C54.7168 20.2079 69.2854 22.1939 69.9715 22.3922C71.2359 22.7758 70.5538 24.1198 70.0896 24.4101C69.1412 24.7024 68.7122 27.7418 68.6289 28.3684" stroke="url(#paint69_linear_3251_9616)" stroke-width="0.599091" stroke-linecap="round" stroke-linejoin="round"></path><path d="M62.8821 32.1093C66.9588 27.6023 63.825 19.4554 56.8404 18.717C50.7634 18.0765 46.8159 25.4434 50.252 30.4332C51.0495 30.2534 51.8825 30.1266 51.8825 30.1266C49.9226 28.2284 50.5457 21.6314 56.3203 21.9104C62.1268 22.21 63.8568 27.9719 61.9355 31.6061C62.2702 31.7683 62.8821 32.1093 62.8821 32.1093Z" fill="url(#paint70_radial_3251_9616)"></path><path d="M62.8821 32.1093C66.9588 27.6023 63.825 19.4554 56.8404 18.717C50.7634 18.0765 46.8159 25.4434 50.252 30.4332C51.0495 30.2534 51.8825 30.1266 51.8825 30.1266C49.9226 28.2284 50.5457 21.6314 56.3203 21.9104C62.1268 22.21 63.8568 27.9719 61.9355 31.6061C62.2702 31.7683 62.8821 32.1093 62.8821 32.1093Z" stroke="url(#paint71_radial_3251_9616)" stroke-width="0.299546" stroke-linecap="round" stroke-linejoin="round"></path><path d="M49.5345 24.523C50.4838 20.0786 55.512 17.1315 60.2269 20.119C55.7368 18.3923 50.9724 20.3413 49.5345 24.523Z" fill="white"></path><path d="M62.2464 31.4684C63.3788 29.2562 63.7567 25.0489 59.817 22.5092C62.9711 23.068 64.9363 28.08 62.2464 31.4684Z" fill="#E6E6E6"></path><path d="M60.643 23.52C58.2298 21.5501 54.7302 20.9519 52.4206 23.0529C50.7092 24.5403 50.2732 27.6969 51.4126 29.8574C46.9681 24.3617 54.6553 16.4951 60.643 23.52Z" fill="url(#paint72_linear_3251_9616)"></path><g opacity="0.8"><path d="M55.083 15.1309L60.166 15.479L58.1948 19.0003L55.9689 18.8337L55.083 15.1309Z" fill="#F84AAA"></path><path d="M60.166 15.4785L55.083 15.1303L55.9869 13.6412L58.9122 13.8321L60.166 15.4785Z" fill="white"></path><path d="M59.3384 19.6324L61.9668 16.809L60.166 15.4791L58.1948 19.0003L59.3384 19.6324Z" fill="#CD2D8E"></path><path d="M60.1674 15.4785L58.9136 13.8321L60.6215 15.1512L61.9681 16.8085L60.1674 15.4785Z" fill="#A42B88"></path><path d="M55.9711 18.834L55.0853 15.1312L52.3311 15.9003L54.7125 19.2805L55.9711 18.834Z" fill="#A80244"></path><path d="M55.0853 15.1303L55.9892 13.6411L53.5737 14.4261L52.3311 15.8993L55.0853 15.1303Z" fill="#A42B88"></path><path d="M58.195 19L55.969 18.8335L54.7104 19.2799L55.4027 20.0805L57.6546 20.2861L59.3385 19.6321L58.195 19Z" fill="#EA6EC9"></path></g><g opacity="0.85"><path d="M58.8964 13.8235L55.9829 13.6465L53.5712 14.4184L54.853 16.1277L57.9533 16.3702L60.6254 15.175L58.8964 13.8235Z" fill="#EA6EC9"></path><path d="M54.7108 19.2733L52.3143 15.9001L53.7519 18.0962L55.4021 20.0719L54.7108 19.2733Z" fill="#CD2D8E"></path><path d="M57.666 20.2931L58.9345 18.564L53.7501 18.097L55.4004 20.0727L57.666 20.2931Z" fill="#A80244"></path><path d="M61.9692 16.8141L58.9363 18.5633L57.668 20.2924L59.3526 19.6358L61.9692 16.8141Z" fill="#65001A"></path><path d="M52.3104 15.9003L53.5747 14.4184L54.8565 16.1277L53.753 18.0965L52.3104 15.9003Z" fill="white"></path><path d="M57.9538 16.3699L58.9345 18.5631L53.7501 18.0962L54.8535 16.1274L57.9538 16.3699Z" fill="#F84AAA"></path><path d="M60.6249 15.1749L57.9528 16.3701L58.9334 18.5634L61.9663 16.8143L60.6249 15.1749Z" fill="#CD2D8E"></path></g><path d="M53.5763 14.4164L52.2877 15.904L54.7014 19.2868L55.4212 20.1078L57.6652 20.3124L59.3384 19.6282L61.9694 16.8106L60.6205 15.1543L58.9173 13.8135L55.9923 13.6506L53.5763 14.4164Z" stroke="#93005F" stroke-width="0.299546" stroke-linecap="round" stroke-linejoin="round"></path><path d="M54.4807 19.3082L55.4309 20.0983C55.4309 20.0983 55.8075 19.7931 56.5087 19.857C57.2287 19.9238 57.6185 20.3186 57.6185 20.3186L59.327 19.656L57.6685 20.4296L55.4029 20.2092L54.4807 19.3082Z" fill="#6A6A6A"></path><path d="M54.4807 19.3082L55.4309 20.0983C55.4309 20.0983 55.8075 19.7931 56.5087 19.857C57.2287 19.9238 57.6185 20.3186 57.6185 20.3186L59.327 19.656L57.6685 20.4296L55.4029 20.2092L54.4807 19.3082Z" stroke="url(#paint73_linear_3251_9616)" stroke-width="0.299546" stroke-linecap="round" stroke-linejoin="round"></path><path d="M65.653 35.2153C65.9708 34.6549 66.493 33.5542 66.545 33.1641C66.5195 32.7511 63.5104 30.9146 56.6996 30.1571C46.7929 29.0551 46.1565 29.8621 44.8213 31.7463L44.9134 31.9993" fill="url(#paint74_linear_3251_9616)"></path><path d="M65.653 35.2153C65.9708 34.6549 66.493 33.5542 66.545 33.1641C66.5195 32.7511 63.5104 30.9146 56.6996 30.1571C46.7929 29.0551 46.1565 29.8621 44.8213 31.7463L44.9134 31.9993" stroke="black" stroke-width="0.299546" stroke-linecap="round" stroke-linejoin="round"></path><path d="M46.2517 30.4722C47.4299 29.8239 49.1619 29.5406 54.244 30.0614C48.2594 29.8605 46.3564 30.3294 44.3177 33.1387C45.4135 31.727 45.6033 30.8289 46.2517 30.4722Z" fill="#64565D"></path><path d="M53.7891 40.8414C53.612 43.1694 50.1231 42.5066 50.2931 40.1446C50.4579 37.8143 53.9764 38.4578 53.7891 40.8414Z" fill="#BFD3D6"></path><path d="M53.7891 40.8414C53.612 43.1694 50.1231 42.5066 50.2931 40.1446C50.4579 37.8143 53.9764 38.4578 53.7891 40.8414Z" stroke="#485F60" stroke-width="0.599091" stroke-linecap="round" stroke-linejoin="round"></path><path d="M50.6161 40.4798C50.5735 39.1245 51.8157 38.8009 52.734 39.3724" stroke="white" stroke-width="0.299546" stroke-linecap="round" stroke-linejoin="round"></path><path d="M52.8332 41.0033C52.7367 42.5254 50.4122 42.0641 50.5524 40.5487C50.6888 39.051 52.9298 39.4796 52.8332 41.0033Z" fill="#A4BEC1"></path><path d="M52.8332 41.0033C52.7367 42.5254 50.4122 42.0641 50.5524 40.5487C50.6888 39.051 52.9298 39.4796 52.8332 41.0033Z" stroke="#84A0A5" stroke-width="0.599091" stroke-linecap="round" stroke-linejoin="round"></path><path d="M50.7865 40.8763C50.6802 40.0264 51.616 39.6595 52.2711 40.2461" stroke="white" stroke-width="0.299546" stroke-linecap="round" stroke-linejoin="round"></path><g opacity="0.5"><path d="M54.3659 41.9585C54.5889 41.4107 54.7068 40.1015 53.3843 39.3408C53.6213 40.2223 53.2988 40.9366 52.5913 40.6851C52.2021 41.4877 50.8382 41.566 50.4506 41.2949C50.5238 42.6519 52.1546 43.1211 52.7003 43.038C53.5384 44.0726 55.0124 43.1351 54.3659 41.9585Z" fill="#485F60"></path></g><path d="M52.1995 41.3659C52.1995 42.696 50.1827 42.6938 50.1827 41.3659C50.1827 40.038 52.1995 40.0344 52.1995 41.3659Z" fill="#BFD3D6"></path><path d="M52.1995 41.3659C52.1995 42.696 50.1827 42.6938 50.1827 41.3659C50.1827 40.038 52.1995 40.0344 52.1995 41.3659Z" stroke="#768E91" stroke-width="0.299546" stroke-linecap="round" stroke-linejoin="round"></path><path d="M51.3244 41.1874C51.3244 41.7015 50.5449 41.7006 50.5449 41.1874C50.5449 40.6742 51.3244 40.6728 51.3244 41.1874Z" fill="#FDFFFF"></path><path d="M56.2782 5.79689C58.3374 6.06702 63.9825 6.38895 66.9687 6.8962C65.0956 5.54872 58.5508 4.97918 56.2782 5.79689Z" fill="#53D8CA"></path><path d="M53.2561 5.3797L67.8412 7.00998" stroke="#254C50" stroke-width="0.57807" stroke-linecap="round" stroke-linejoin="round"></path></g></g><defs><linearGradient id="paint0_linear_3251_9616" x1="17.4459" y1="16.4095" x2="28.7" y2="14.4252" gradientUnits="userSpaceOnUse"><stop stop-color="#E82DA1"></stop><stop offset="0.5" stop-color="#C91688"></stop><stop offset="1" stop-color="#AB0070"></stop></linearGradient><linearGradient id="paint1_linear_3251_9616" x1="18.6896" y1="16.2697" x2="25.0965" y2="21.4308" gradientUnits="userSpaceOnUse"><stop stop-color="white" stop-opacity="0.7"></stop><stop offset="0.41" stop-color="white" stop-opacity="0.35"></stop><stop offset="0.95" stop-color="white" stop-opacity="0"></stop></linearGradient><linearGradient id="paint2_linear_3251_9616" x1="19.3453" y1="16.3922" x2="22.1443" y2="15.8987" gradientUnits="userSpaceOnUse"><stop stop-color="#480444"></stop><stop offset="0.5" stop-color="#330231"></stop><stop offset="1" stop-color="#1E001E"></stop></linearGradient><linearGradient id="paint3_linear_3251_9616" x1="27.1761" y1="18.5397" x2="24.3589" y2="13.0902" gradientUnits="userSpaceOnUse"><stop offset="0.29" stop-color="#8D005D"></stop><stop offset="0.71" stop-color="#8C0057" stop-opacity="0.6"></stop><stop offset="1" stop-color="#8B0052" stop-opacity="0.2"></stop></linearGradient><linearGradient id="paint4_linear_3251_9616" x1="12.523" y1="33.9372" x2="39.7206" y2="29.1415" gradientUnits="userSpaceOnUse"><stop stop-color="#E82DA1"></stop><stop offset="0.5" stop-color="#C91688"></stop><stop offset="1" stop-color="#AB0070"></stop></linearGradient><linearGradient id="paint5_linear_3251_9616" x1="48.7117" y1="30.8701" x2="35.2813" y2="29.7727" gradientUnits="userSpaceOnUse"><stop offset="0.19" stop-color="#AB0070" stop-opacity="0"></stop><stop offset="0.65" stop-color="#AB006F" stop-opacity="0.5"></stop><stop offset="1" stop-color="#AA006F"></stop></linearGradient><linearGradient id="paint6_linear_3251_9616" x1="37.118" y1="36.6607" x2="26.8069" y2="41.0942" gradientUnits="userSpaceOnUse"><stop offset="0.19" stop-color="#AB0070" stop-opacity="0"></stop><stop offset="0.65" stop-color="#AB006F" stop-opacity="0.5"></stop><stop offset="1" stop-color="#AA006F"></stop></linearGradient><linearGradient id="paint7_linear_3251_9616" x1="21.8248" y1="24.6017" x2="18.316" y2="19.0463" gradientUnits="userSpaceOnUse"><stop stop-color="white" stop-opacity="0"></stop><stop offset="0.48" stop-color="white" stop-opacity="0.5"></stop><stop offset="1" stop-color="white"></stop></linearGradient><radialGradient id="paint8_radial_3251_9616" cx="0" cy="0" r="1" gradientUnits="userSpaceOnUse" gradientTransform="translate(21.42 23.7242) rotate(-10) scale(6.89376 6.89375)"><stop stop-color="white" stop-opacity="0.8"></stop><stop offset="0.65" stop-color="white" stop-opacity="0.4"></stop><stop offset="1" stop-color="white" stop-opacity="0"></stop></radialGradient><linearGradient id="paint9_linear_3251_9616" x1="33.7069" y1="35.7546" x2="36.4438" y2="37.6186" gradientUnits="userSpaceOnUse"><stop offset="0.52" stop-color="#8D005D"></stop><stop offset="0.8" stop-color="#8C0057" stop-opacity="0.6"></stop><stop offset="1" stop-color="#8B0052" stop-opacity="0.2"></stop></linearGradient><radialGradient id="paint10_radial_3251_9616" cx="0" cy="0" r="1" gradientUnits="userSpaceOnUse" gradientTransform="translate(17.1319 26.7782) rotate(-10) scale(5.24117)"><stop stop-color="white" stop-opacity="0.7"></stop><stop offset="0.65" stop-color="white" stop-opacity="0.35"></stop><stop offset="1" stop-color="white" stop-opacity="0"></stop></radialGradient><linearGradient id="paint11_linear_3251_9616" x1="26.187" y1="38.9852" x2="23.9472" y2="29.9207" gradientUnits="userSpaceOnUse"><stop stop-color="#250B10"></stop><stop offset="0.68" stop-color="#371728"></stop><stop offset="1" stop-color="#482340"></stop></linearGradient><linearGradient id="paint12_linear_3251_9616" x1="14.7019" y1="35.9337" x2="20.6081" y2="34.8923" gradientUnits="userSpaceOnUse"><stop stop-color="#664C64"></stop><stop offset="0.49" stop-color="#564055"></stop><stop offset="0.72" stop-color="#473446"></stop></linearGradient><linearGradient id="paint13_linear_3251_9616" x1="16.5539" y1="40.1287" x2="20.2588" y2="39.4754" gradientUnits="userSpaceOnUse"><stop stop-color="white" stop-opacity="0.2"></stop><stop offset="0.65" stop-color="white" stop-opacity="0.4"></stop><stop offset="1" stop-color="white" stop-opacity="0.6"></stop></linearGradient><linearGradient id="paint14_linear_3251_9616" x1="14.7246" y1="39.6584" x2="19.2761" y2="38.8558" gradientUnits="userSpaceOnUse"><stop stop-color="white" stop-opacity="0"></stop><stop offset="0.48" stop-color="white" stop-opacity="0.5"></stop><stop offset="1" stop-color="white"></stop></linearGradient><linearGradient id="paint15_linear_3251_9616" x1="29.1019" y1="33.4739" x2="31.6903" y2="34.0596" gradientUnits="userSpaceOnUse"><stop stop-color="#664C64"></stop><stop offset="0.68" stop-color="#564055"></stop><stop offset="1" stop-color="#473446"></stop></linearGradient><linearGradient id="paint16_linear_3251_9616" x1="13.3026" y1="37.4495" x2="35.7899" y2="33.4843" gradientUnits="userSpaceOnUse"><stop offset="0.19" stop-color="#FFA4EE"></stop><stop offset="0.65" stop-color="#E16CC2"></stop><stop offset="1" stop-color="#C43396"></stop></linearGradient><linearGradient id="paint17_linear_3251_9616" x1="11.5303" y1="36.4129" x2="35.658" y2="32.1585" gradientUnits="userSpaceOnUse"><stop stop-color="#161717"></stop><stop offset="0.68" stop-color="#1D1F30"></stop><stop offset="1" stop-color="#242749"></stop></linearGradient><linearGradient id="paint18_linear_3251_9616" x1="5.696" y1="38.8697" x2="17.5046" y2="36.7875" gradientUnits="userSpaceOnUse"><stop stop-color="white"></stop><stop offset="0.5" stop-color="white" stop-opacity="0.517"></stop><stop offset="0.81" stop-color="white" stop-opacity="0.034"></stop><stop offset="0.87" stop-color="white" stop-opacity="0.017"></stop><stop offset="1" stop-color="white" stop-opacity="0"></stop></linearGradient><linearGradient id="paint19_linear_3251_9616" x1="16.342" y1="31.756" x2="12.6028" y2="45.7812" gradientUnits="userSpaceOnUse"><stop stop-color="white" stop-opacity="0"></stop><stop offset="0.65" stop-color="white" stop-opacity="0.5"></stop><stop offset="1" stop-color="white"></stop></linearGradient><linearGradient id="paint20_linear_3251_9616" x1="33.474" y1="26.2704" x2="12.8013" y2="38.8372" gradientUnits="userSpaceOnUse"><stop stop-color="#BDF3E4" stop-opacity="0.2"></stop><stop offset="0.5" stop-color="#DE79C4" stop-opacity="0.12"></stop><stop offset="0.81" stop-color="#FF00A3" stop-opacity="0.04"></stop><stop offset="0.87" stop-color="#FF80D1" stop-opacity="0.025"></stop><stop offset="1" stop-color="white" stop-opacity="0.01"></stop></linearGradient><linearGradient id="paint21_linear_3251_9616" x1="18.118" y1="37.3136" x2="34.3423" y2="33.9533" gradientUnits="userSpaceOnUse"><stop stop-color="white" stop-opacity="0.2"></stop><stop offset="0.65" stop-color="white" stop-opacity="0.4"></stop><stop offset="1" stop-color="white" stop-opacity="0.6"></stop></linearGradient><linearGradient id="paint22_linear_3251_9616" x1="27.3832" y1="51.1165" x2="24.625" y2="34.303" gradientUnits="userSpaceOnUse"><stop stop-color="#21D6D1"></stop><stop offset="0.68" stop-color="#21D6D1" stop-opacity="0.75"></stop><stop offset="1" stop-color="#21D6D1" stop-opacity="0.5"></stop></linearGradient><linearGradient id="paint23_linear_3251_9616" x1="19.1384" y1="46.9699" x2="21.0477" y2="51.274" gradientUnits="userSpaceOnUse"><stop offset="0.29" stop-color="white" stop-opacity="0.5"></stop><stop offset="0.3" stop-color="white"></stop><stop offset="0.45" stop-color="white"></stop><stop offset="0.6" stop-color="white"></stop><stop offset="0.61" stop-color="white" stop-opacity="0"></stop></linearGradient><linearGradient id="paint24_linear_3251_9616" x1="19.1386" y1="46.9702" x2="21.0478" y2="51.2743" gradientUnits="userSpaceOnUse"><stop stop-color="white"></stop><stop offset="0.5" stop-color="white"></stop><stop offset="1" stop-color="white"></stop></linearGradient><linearGradient id="paint25_linear_3251_9616" x1="27.2991" y1="45.5325" x2="29.2083" y2="49.8366" gradientUnits="userSpaceOnUse"><stop offset="0.29" stop-color="white" stop-opacity="0.5"></stop><stop offset="0.3" stop-color="white"></stop><stop offset="0.45" stop-color="white"></stop><stop offset="0.6" stop-color="white"></stop><stop offset="0.61" stop-color="white" stop-opacity="0"></stop></linearGradient><linearGradient id="paint26_linear_3251_9616" x1="27.2989" y1="45.5325" x2="29.2081" y2="49.8366" gradientUnits="userSpaceOnUse"><stop stop-color="white"></stop><stop offset="0.5" stop-color="white"></stop><stop offset="1" stop-color="white"></stop></linearGradient><linearGradient id="paint27_linear_3251_9616" x1="-10.4215" y1="15.0559" x2="14.3787" y2="10.6829" gradientUnits="userSpaceOnUse"><stop stop-color="#43FFF1"></stop><stop offset="0.68" stop-color="#32EBE1" stop-opacity="0.75"></stop><stop offset="1" stop-color="#21D6D1" stop-opacity="0.5"></stop></linearGradient><linearGradient id="paint28_linear_3251_9616" x1="-10.4198" y1="15.0562" x2="14.3803" y2="10.6833" gradientUnits="userSpaceOnUse"><stop stop-color="#43FFF1"></stop><stop offset="0.68" stop-color="#6CFCF3"></stop><stop offset="1" stop-color="#95F8F6"></stop></linearGradient><linearGradient id="paint29_linear_3251_9616" x1="-10.4198" y1="15.0562" x2="14.3803" y2="10.6833" gradientUnits="userSpaceOnUse"><stop stop-color="#43FFF1"></stop><stop offset="0.68" stop-color="#6CFCF3"></stop><stop offset="1" stop-color="#95F8F6"></stop></linearGradient><linearGradient id="paint30_linear_3251_9616" x1="-10.4198" y1="15.0562" x2="14.3803" y2="10.6833" gradientUnits="userSpaceOnUse"><stop stop-color="#43FFF1"></stop><stop offset="0.68" stop-color="#6CFCF3"></stop><stop offset="1" stop-color="#95F8F6"></stop></linearGradient><linearGradient id="paint31_linear_3251_9616" x1="-10.4198" y1="15.0562" x2="14.3803" y2="10.6833" gradientUnits="userSpaceOnUse"><stop stop-color="#43FFF1"></stop><stop offset="0.68" stop-color="#6CFCF3"></stop><stop offset="1" stop-color="#95F8F6"></stop></linearGradient><linearGradient id="paint32_linear_3251_9616" x1="-10.4198" y1="15.0562" x2="14.3803" y2="10.6833" gradientUnits="userSpaceOnUse"><stop stop-color="#43FFF1"></stop><stop offset="0.68" stop-color="#6CFCF3"></stop><stop offset="1" stop-color="#95F8F6"></stop></linearGradient><linearGradient id="paint33_linear_3251_9616" x1="-10.4212" y1="15.0558" x2="14.379" y2="10.6828" gradientUnits="userSpaceOnUse"><stop stop-color="#43FFF1"></stop><stop offset="0.68" stop-color="#6CFCF3"></stop><stop offset="1" stop-color="#95F8F6"></stop></linearGradient><linearGradient id="paint34_linear_3251_9616" x1="-10.4212" y1="15.0558" x2="14.379" y2="10.6828" gradientUnits="userSpaceOnUse"><stop stop-color="#43FFF1"></stop><stop offset="0.68" stop-color="#6CFCF3"></stop><stop offset="1" stop-color="#95F8F6"></stop></linearGradient><linearGradient id="paint35_linear_3251_9616" x1="-10.4212" y1="15.0558" x2="14.379" y2="10.6828" gradientUnits="userSpaceOnUse"><stop stop-color="#43FFF1"></stop><stop offset="0.68" stop-color="#6CFCF3"></stop><stop offset="1" stop-color="#95F8F6"></stop></linearGradient><linearGradient id="paint36_linear_3251_9616" x1="-10.4212" y1="15.0558" x2="14.379" y2="10.6828" gradientUnits="userSpaceOnUse"><stop stop-color="#43FFF1"></stop><stop offset="0.68" stop-color="#6CFCF3"></stop><stop offset="1" stop-color="#95F8F6"></stop></linearGradient><linearGradient id="paint37_linear_3251_9616" x1="-10.4212" y1="15.0558" x2="14.379" y2="10.6828" gradientUnits="userSpaceOnUse"><stop stop-color="#43FFF1"></stop><stop offset="0.68" stop-color="#6CFCF3"></stop><stop offset="1" stop-color="#95F8F6"></stop></linearGradient><radialGradient id="paint38_radial_3251_9616" cx="0" cy="0" r="1" gradientUnits="userSpaceOnUse" gradientTransform="translate(27.2598 30.5526) rotate(-10) scale(7.19166)"><stop offset="0.05" stop-color="white"></stop><stop offset="0.33" stop-color="white" stop-opacity="0.5"></stop><stop offset="0.62" stop-color="white" stop-opacity="0"></stop></radialGradient><linearGradient id="paint39_linear_3251_9616" x1="30.6428" y1="14.3207" x2="33.4888" y2="24.2061" gradientUnits="userSpaceOnUse"><stop stop-color="#E82DA1"></stop><stop offset="0.5" stop-color="#C91688"></stop><stop offset="1" stop-color="#AB0070"></stop></linearGradient><linearGradient id="paint40_linear_3251_9616" x1="28.8886" y1="16.0574" x2="39.0406" y2="25.2105" gradientUnits="userSpaceOnUse"><stop stop-color="white" stop-opacity="0.7"></stop><stop offset="0.41" stop-color="white" stop-opacity="0.35"></stop><stop offset="0.95" stop-color="white" stop-opacity="0"></stop></linearGradient><linearGradient id="paint41_linear_3251_9616" x1="27.8413" y1="19.5741" x2="34.3416" y2="16.2033" gradientUnits="userSpaceOnUse"><stop stop-color="#480444"></stop><stop offset="0.5" stop-color="#330231"></stop><stop offset="1" stop-color="#1E001E"></stop></linearGradient><linearGradient id="paint42_linear_3251_9616" x1="37.404" y1="25.6619" x2="33.8662" y2="13.7961" gradientUnits="userSpaceOnUse"><stop offset="0.29" stop-color="#8D005D"></stop><stop offset="0.71" stop-color="#8C0057" stop-opacity="0.6"></stop><stop offset="1" stop-color="#8B0052" stop-opacity="0.2"></stop></linearGradient><radialGradient id="paint43_radial_3251_9616" cx="0" cy="0" r="1" gradientUnits="userSpaceOnUse" gradientTransform="translate(89.9341 35.7769) rotate(10) scale(11.1966)"><stop stop-color="white"></stop><stop offset="0.4" stop-color="#BABABA"></stop><stop offset="0.8" stop-color="#757575"></stop><stop offset="0.9" stop-color="#989898"></stop><stop offset="1" stop-color="#BCBCBC"></stop></radialGradient><radialGradient id="paint44_radial_3251_9616" cx="0" cy="0" r="1" gradientUnits="userSpaceOnUse" gradientTransform="translate(84.0065 33.64) rotate(10) scale(5.38382)"><stop stop-color="white"></stop><stop offset="0.5" stop-color="white" stop-opacity="0.5"></stop><stop offset="1" stop-color="white" stop-opacity="0"></stop></radialGradient><radialGradient id="paint45_radial_3251_9616" cx="0" cy="0" r="1" gradientUnits="userSpaceOnUse" gradientTransform="translate(91.0314 20.1039) rotate(10) scale(20.9003 20.9003)"><stop offset="0.44" stop-color="#F7DA6F"></stop><stop offset="0.7" stop-color="#DEAF4F"></stop><stop offset="0.92" stop-color="#C4852E"></stop></radialGradient><radialGradient id="paint46_radial_3251_9616" cx="0" cy="0" r="1" gradientUnits="userSpaceOnUse" gradientTransform="translate(82.5105 17.392) rotate(10) scale(9.95244)"><stop stop-color="white"></stop><stop offset="0.25" stop-color="#FDF8CE"></stop><stop offset="0.55" stop-color="#FCF19C"></stop><stop offset="0.7" stop-color="#F9DF84" stop-opacity="0.5"></stop><stop offset="0.89" stop-color="#F5CD6B" stop-opacity="0"></stop></radialGradient><radialGradient id="paint47_radial_3251_9616" cx="0" cy="0" r="1" gradientUnits="userSpaceOnUse" gradientTransform="translate(95.4507 37.0836) rotate(10) scale(4.16489)"><stop stop-color="#FFEF76"></stop><stop offset="0.5" stop-color="#FFEF76" stop-opacity="0.5"></stop><stop offset="1" stop-color="#FFEF76" stop-opacity="0"></stop></radialGradient><radialGradient id="paint48_radial_3251_9616" cx="0" cy="0" r="1" gradientUnits="userSpaceOnUse" gradientTransform="translate(103.336 21.065) rotate(10) scale(9.94953)"><stop stop-color="white"></stop><stop offset="0.25" stop-color="#FDF8CE"></stop><stop offset="0.55" stop-color="#FCF19C"></stop><stop offset="0.7" stop-color="#F9DF84" stop-opacity="0.5"></stop><stop offset="0.89" stop-color="#F5CD6B" stop-opacity="0"></stop></radialGradient><radialGradient id="paint49_radial_3251_9616" cx="0" cy="0" r="1" gradientUnits="userSpaceOnUse" gradientTransform="translate(93.025 18.2367) rotate(10) scale(13.8741 13.8741)"><stop offset="0.44" stop-color="#F7DA6F"></stop><stop offset="0.7" stop-color="#DEAF4F"></stop><stop offset="0.92" stop-color="#C4852E"></stop></radialGradient><linearGradient id="paint50_linear_3251_9616" x1="91.9438" y1="25.0941" x2="93.6494" y2="15.254" gradientUnits="userSpaceOnUse"><stop stop-color="#955B1E"></stop><stop offset="0.69" stop-color="#BE8236"></stop><stop offset="1" stop-color="#E8A94E"></stop></linearGradient><linearGradient id="paint51_linear_3251_9616" x1="101.995" y1="41.6418" x2="83.5576" y2="33.2822" gradientUnits="userSpaceOnUse"><stop stop-color="#D9BA69"></stop><stop offset="0.46" stop-color="#BA9146"></stop><stop offset="1" stop-color="#9B6723"></stop></linearGradient><linearGradient id="paint52_linear_3251_9616" x1="90.9685" y1="30.2708" x2="92.0422" y2="23.3811" gradientUnits="userSpaceOnUse"><stop offset="0.01" stop-color="white" stop-opacity="0"></stop><stop offset="0.31" stop-color="white" stop-opacity="0.5"></stop><stop offset="1" stop-color="white"></stop></linearGradient><linearGradient id="paint53_linear_3251_9616" x1="90.9682" y1="30.2708" x2="92.0419" y2="23.3811" gradientUnits="userSpaceOnUse"><stop stop-color="#F8F6AC"></stop><stop offset="0.69" stop-color="#F8F6AC"></stop><stop offset="1" stop-color="#F8F6AC"></stop></linearGradient><linearGradient id="paint54_linear_3251_9616" x1="90.0868" y1="35.2817" x2="89.2043" y2="41.1894" gradientUnits="userSpaceOnUse"><stop offset="0.01" stop-color="white" stop-opacity="0"></stop><stop offset="0.31" stop-color="white" stop-opacity="0.5"></stop><stop offset="1" stop-color="white"></stop></linearGradient><linearGradient id="paint55_linear_3251_9616" x1="90.0864" y1="35.2816" x2="89.2039" y2="41.1893" gradientUnits="userSpaceOnUse"><stop stop-color="#F8F6AC"></stop><stop offset="0.69" stop-color="#F8F6AC"></stop><stop offset="1" stop-color="#F8F6AC"></stop></linearGradient><linearGradient id="paint56_linear_3251_9616" x1="94.8477" y1="22.7609" x2="91.9854" y2="16.4688" gradientUnits="userSpaceOnUse"><stop stop-color="white"></stop><stop offset="0.24" stop-color="#FDF8CE"></stop><stop offset="0.49" stop-color="#FCF19C"></stop><stop offset="0.69" stop-color="#E8C768"></stop><stop offset="0.9" stop-color="#D49E33"></stop></linearGradient><radialGradient id="paint57_radial_3251_9616" cx="0" cy="0" r="1" gradientUnits="userSpaceOnUse" gradientTransform="translate(92.8483 17.8861) rotate(10) scale(3.41945)"><stop offset="0.44" stop-color="#CA8F31"></stop><stop offset="0.7" stop-color="#BD8128"></stop><stop offset="0.92" stop-color="#B0721F"></stop></radialGradient><linearGradient id="paint58_linear_3251_9616" x1="92.1232" y1="16.0558" x2="93.7068" y2="22.114" gradientUnits="userSpaceOnUse"><stop stop-color="white"></stop><stop offset="0.21" stop-color="#FDF8CE"></stop><stop offset="0.42" stop-color="#FCF19C"></stop><stop offset="0.67" stop-color="#E5AB4E"></stop><stop offset="0.92" stop-color="#CF6400"></stop></linearGradient><linearGradient id="paint59_linear_3251_9616" x1="41.7224" y1="35.7265" x2="70.7228" y2="35.7265" gradientUnits="userSpaceOnUse"><stop stop-color="#B3FFF7"></stop><stop offset="0.06" stop-color="#9AECE3"></stop><stop offset="0.12" stop-color="#80D8CF"></stop><stop offset="0.4" stop-color="#62D8CB"></stop><stop offset="0.68" stop-color="#45D8C8"></stop><stop offset="0.74" stop-color="#229E9F"></stop><stop offset="0.81" stop-color="#006375"></stop><stop offset="0.9" stop-color="#2F8287"></stop><stop offset="1" stop-color="#5FA19A"></stop></linearGradient><linearGradient id="paint60_linear_3251_9616" x1="40.9704" y1="39.9201" x2="72.0904" y2="39.9201" gradientUnits="userSpaceOnUse"><stop stop-color="#00AAB7" stop-opacity="0.4"></stop><stop offset="0.32" stop-color="#14B0B5" stop-opacity="0.7"></stop><stop offset="0.65" stop-color="#29B6B3"></stop><stop offset="0.69" stop-color="#14929D"></stop><stop offset="0.73" stop-color="#006E87"></stop><stop offset="0.86" stop-color="#135D6C"></stop><stop offset="1" stop-color="#254C50"></stop></linearGradient><linearGradient id="paint61_linear_3251_9616" x1="41.9688" y1="29.3362" x2="67.3634" y2="33.5773" gradientUnits="userSpaceOnUse"><stop stop-color="#80D8CF"></stop><stop offset="0.36" stop-color="#409EA2"></stop><stop offset="0.72" stop-color="#006375"></stop><stop offset="0.86" stop-color="#005F70"></stop><stop offset="1" stop-color="#005B6B"></stop></linearGradient><linearGradient id="paint62_linear_3251_9616" x1="55.4506" y1="36.2259" x2="57.2614" y2="25.657" gradientUnits="userSpaceOnUse"><stop stop-color="#62555C"></stop><stop offset="0.5" stop-color="#312B2E"></stop><stop offset="1"></stop></linearGradient><radialGradient id="paint63_radial_3251_9616" cx="0" cy="0" r="1" gradientUnits="userSpaceOnUse" gradientTransform="translate(50.5146 36.2369) scale(5.45416)"><stop stop-color="#999999"></stop><stop offset="0.5" stop-color="#999999" stop-opacity="0.5"></stop><stop offset="1" stop-color="#999999" stop-opacity="0"></stop></radialGradient><linearGradient id="paint64_linear_3251_9616" x1="60.9389" y1="6.67048" x2="61.594" y2="21.5314" gradientUnits="userSpaceOnUse"><stop></stop><stop offset="0.5" stop-color="#2A2225"></stop><stop offset="1" stop-color="#53454B"></stop></linearGradient><linearGradient id="paint65_linear_3251_9616" x1="52.0562" y1="13.1605" x2="73.9185" y2="13.1605" gradientUnits="userSpaceOnUse"><stop offset="0.01"></stop><stop offset="0.51" stop-color="#2A2225" stop-opacity="0.5"></stop><stop offset="1" stop-color="#53454B" stop-opacity="0"></stop></linearGradient><linearGradient id="paint66_linear_3251_9616" x1="54.4014" y1="0.397063" x2="74.123" y2="11.9046" gradientUnits="userSpaceOnUse"><stop stop-color="#B3FFF7"></stop><stop offset="0.06" stop-color="#9AECE3"></stop><stop offset="0.12" stop-color="#80D8CF"></stop><stop offset="0.4" stop-color="#62D8CB"></stop><stop offset="0.68" stop-color="#45D8C8"></stop><stop offset="0.74" stop-color="#229E9F"></stop><stop offset="0.81" stop-color="#006375"></stop><stop offset="0.9" stop-color="#2F8287"></stop><stop offset="1" stop-color="#5FA19A"></stop></linearGradient><linearGradient id="paint67_linear_3251_9616" x1="63.6372" y1="1.27875" x2="63.6372" y2="22.0828" gradientUnits="userSpaceOnUse"><stop stop-color="#00AAB7" stop-opacity="0.4"></stop><stop offset="0.06" stop-color="#14B0B5" stop-opacity="0.7"></stop><stop offset="0.11" stop-color="#29B6B3"></stop><stop offset="0.17" stop-color="#14929D"></stop><stop offset="0.24" stop-color="#006E87"></stop><stop offset="0.62" stop-color="#135D6C"></stop><stop offset="1" stop-color="#254C50"></stop></linearGradient><linearGradient id="paint68_linear_3251_9616" x1="60.7978" y1="21.2662" x2="59.9624" y2="27.2952" gradientUnits="userSpaceOnUse"><stop stop-color="#403B3E"></stop><stop offset="0.19" stop-color="#575058"></stop><stop offset="0.38" stop-color="#6F6473"></stop><stop offset="0.61" stop-color="#585159"></stop><stop offset="0.85" stop-color="#423D3F"></stop><stop offset="0.93" stop-color="#4A4145" stop-opacity="0.5"></stop><stop offset="1" stop-color="#53454B" stop-opacity="0"></stop></linearGradient><linearGradient id="paint69_linear_3251_9616" x1="50.1572" y1="24.2437" x2="71.5578" y2="24.2437" gradientUnits="userSpaceOnUse"><stop stop-color="#443E41"></stop><stop offset="0.24" stop-color="#4A4146"></stop><stop offset="0.48" stop-color="#51444A"></stop><stop offset="0.74" stop-color="#292225"></stop><stop offset="1"></stop></linearGradient><radialGradient id="paint70_radial_3251_9616" cx="0" cy="0" r="1" gradientUnits="userSpaceOnUse" gradientTransform="translate(57.0001 26.82) scale(7.42947)"><stop stop-color="white"></stop><stop offset="0.26" stop-color="#DEF6F3"></stop><stop offset="0.51" stop-color="#BDECE7"></stop><stop offset="0.71" stop-color="#78908D"></stop><stop offset="0.91" stop-color="#333333"></stop><stop offset="0.92" stop-color="#4D4D4D"></stop><stop offset="0.93" stop-color="#676767"></stop><stop offset="0.96" stop-color="#9C9C9C"></stop><stop offset="1" stop-color="#D1D1D1"></stop></radialGradient><radialGradient id="paint71_radial_3251_9616" cx="0" cy="0" r="1" gradientUnits="userSpaceOnUse" gradientTransform="translate(56.7444 25.3419) scale(7.47107)"><stop stop-color="#076878"></stop><stop offset="0.35" stop-color="#77A7AF"></stop><stop offset="0.7" stop-color="#E6E6E6"></stop><stop offset="0.85" stop-color="#A89FA4"></stop><stop offset="1" stop-color="#695762"></stop></radialGradient><linearGradient id="paint72_linear_3251_9616" x1="54.3535" y1="29.0363" x2="54.3535" y2="20.4097" gradientUnits="userSpaceOnUse"><stop stop-color="#006A68"></stop><stop offset="0.5" stop-color="#003534"></stop><stop offset="1"></stop></linearGradient><linearGradient id="paint73_linear_3251_9616" x1="54.202" y1="19.744" x2="59.2141" y2="19.7369" gradientUnits="userSpaceOnUse"><stop stop-color="white"></stop><stop offset="0.09" stop-color="#F3F3F3"></stop><stop offset="0.18" stop-color="#E6E6E6"></stop><stop offset="0.22" stop-color="#C6C6C6"></stop><stop offset="0.25" stop-color="#A5A5A5"></stop><stop offset="0.46" stop-color="#D2D2D2"></stop><stop offset="0.67" stop-color="white"></stop><stop offset="0.72" stop-color="#8D8D8D"></stop><stop offset="0.77" stop-color="#1A1A1A"></stop><stop offset="0.89" stop-color="#4D4D4D"></stop><stop offset="1" stop-color="#808080"></stop></linearGradient><linearGradient id="paint74_linear_3251_9616" x1="55.5479" y1="32.0326" x2="55.2715" y2="33.6218" gradientUnits="userSpaceOnUse"><stop stop-color="#3E393C"></stop><stop offset="0.09" stop-color="#3E393C"></stop><stop offset="0.19" stop-color="#3E393C"></stop><stop offset="0.6" stop-color="#433D40" stop-opacity="0.5"></stop><stop offset="1" stop-color="#474144" stop-opacity="0"></stop></linearGradient><clipPath id="clip0_3251_9616"><rect width="40" height="40" fill="white" transform="translate(2 12.946) rotate(-10)"></rect></clipPath><clipPath id="clip1_3251_9616"><rect width="40" height="40" fill="white" transform="translate(2 12.946) rotate(-10)"></rect></clipPath><clipPath id="clip2_3251_9616"><rect width="40" height="40" fill="white" transform="translate(74.9453 6) rotate(10)"></rect></clipPath><clipPath id="clip3_3251_9616"><rect width="40" height="40" fill="white" transform="translate(74.9453 6) rotate(10)"></rect></clipPath><clipPath id="clip4_3251_9616"><rect width="50" height="50" fill="white" transform="translate(34)"></rect></clipPath></defs></svg>