<svg width="512" height="512" viewBox="0 0 512 512" fill="none" xmlns="http://www.w3.org/2000/svg">
<g clip-path="url(#clip0_307_43)">
<mask id="mask0_307_43" style="mask-type:luminance" maskUnits="userSpaceOnUse" x="-98" y="-98" width="709" height="710">
<path d="M610.588 -97.6816H-97.5859V611.682H610.588V-97.6816Z" fill="white"/>
</mask>
<g mask="url(#mask0_307_43)">
<mask id="mask1_307_43" style="mask-type:luminance" maskUnits="userSpaceOnUse" x="-98" y="-98" width="709" height="710">
<path d="M-97.5859 -97.6816H610.588V611.682H-97.5859V-97.6816Z" fill="white"/>
</mask>
<g mask="url(#mask1_307_43)">
<path d="M173.399 153.616L231.657 36.5265C238.361 23.0017 254.601 17.6107 267.914 24.4204C273.108 27.0686 277.262 31.4193 279.906 36.7157L335.048 149.549C339.485 158.723 348.267 165.249 358.37 166.384L473.563 180.382C489.237 182.273 500.379 196.555 498.49 212.444C497.64 218.97 494.713 225.118 490.087 229.658L399.065 320.17C395.383 323.859 393.589 329.155 394.249 334.262L409.357 456.554C411.528 474.145 399.254 490.129 382.069 492.305C375.46 493.156 368.945 491.832 363.091 488.616L266.876 435.557C259.889 431.679 251.485 431.585 244.498 435.273L144.79 486.819C130.815 494.102 113.536 488.521 106.36 474.335C103.622 469.038 102.678 462.89 103.528 457.027L111.554 400.846C115.425 373.418 132.232 349.679 156.592 337.1L267.348 279.974C270.275 278.461 271.502 274.772 269.992 271.84C268.859 269.57 266.404 268.246 263.854 268.624L128.36 288.202C107.682 291.229 86.7209 285.27 70.4805 271.935L25.3473 234.765C12.5061 224.077 10.5232 205.067 21.004 192.015C25.8194 185.962 32.8066 181.99 40.4546 180.949L156.215 166.006C163.579 164.965 170 160.331 173.399 153.616Z" fill="url(#paint0_linear_307_43)"/>
<path d="M275.847 57.334C264.138 54.6858 251.58 60.3606 245.915 71.8047L187.657 188.894C184.258 195.609 177.932 200.149 170.473 201.189L54.8074 216.227C47.3481 217.268 40.5498 220.956 35.7344 226.726L78.507 262.004C92.0092 273.164 109.383 277.893 126.567 275.434L262.061 255.951C270.087 254.91 277.641 258.883 281.323 266.071C285.95 275.34 282.267 286.689 273.108 291.513L237.795 309.672L278.113 303.902C280.662 303.524 283.211 304.848 284.344 307.118C285.855 310.05 284.628 313.739 281.701 315.252L170.945 372.378C146.49 384.957 129.683 408.696 125.812 436.124L120.619 472.538C125.34 477.361 132.799 478.685 138.936 475.469L238.645 423.924C249.409 418.344 262.25 418.533 272.92 424.397L369.134 477.361C372.628 479.253 376.499 480.009 380.37 479.536C390.568 478.212 398.027 468.754 396.8 458.161L381.692 335.87C380.559 326.696 383.675 317.522 390.19 311.091L481.212 220.578C482.723 218.97 483.95 217.173 484.8 215.187L372.628 201.662C362.525 200.527 353.744 194.096 349.306 184.827L344.868 175.842C335.615 171.775 328.061 164.587 323.529 155.318L275.847 57.334Z" fill="url(#paint1_linear_307_43)"/>
<path d="M242.988 42.296C246.576 35.0134 255.073 32.2706 262.061 35.8646C264.799 37.1887 267.254 39.5532 268.576 42.3906L323.529 155.318C329.949 168.465 342.507 177.355 356.859 179.058L472.147 192.961C480.739 194.001 486.971 202.041 485.932 210.931C485.46 214.62 483.761 218.024 481.211 220.578L390.19 311.091C383.675 317.522 380.464 326.696 381.597 335.87L396.799 458.162C398.027 468.66 390.567 478.307 380.37 479.536C376.499 480.009 372.627 479.253 369.134 477.361L272.919 424.397C262.249 418.533 249.408 418.344 238.644 423.924L138.936 475.47C131.193 479.536 121.751 476.415 117.691 468.471C116.275 465.539 115.708 462.134 116.18 458.824L124.112 402.738C127.416 379.471 141.768 359.042 162.447 348.449L273.108 291.513C282.361 286.689 285.949 275.34 281.322 266.071C277.64 258.883 270.086 254.91 262.061 255.951L126.567 275.529C109.382 278.082 92.0087 273.164 78.5065 262.004L33.4678 224.834C26.0085 218.687 24.7811 207.526 30.824 200.054C33.6566 196.555 37.8111 194.19 42.1545 193.623L157.726 178.679C169.339 177.166 179.442 169.884 184.73 159.385L242.988 42.296ZM273.674 13.0709C254.035 3.14011 230.052 10.8956 220.232 30.7573L161.975 147.847C160.464 150.779 157.726 152.859 154.515 153.332L38.8498 168.276C27.8969 169.6 17.9828 175.275 11.09 183.881C-3.73404 202.419 -0.995839 229.658 17.3218 244.696L62.455 281.866C81.528 297.471 105.983 304.375 130.155 300.876L225.897 287.067L150.927 325.75C122.79 340.126 103.339 367.554 98.9014 399.049L90.9701 455.23C89.837 463.742 91.2533 472.443 95.1246 480.104C105.416 500.533 130.344 508.856 150.644 498.263L250.258 446.623C253.563 444.92 257.434 444.92 260.739 446.812L356.954 499.776C365.074 504.316 374.421 506.019 383.58 504.884C407.846 501.763 425.031 479.442 422.009 455.04L406.902 332.655C406.713 331.52 407.185 330.29 408.035 329.439L499.151 238.832C505.761 232.117 510.104 223.416 511.143 214.052C513.787 191.259 497.735 170.356 475.074 167.614L359.881 153.616C354.121 152.954 349.022 149.265 346.378 143.969L291.331 31.1356C287.554 23.3801 281.322 17.0433 273.674 13.0709Z" fill="url(#paint2_linear_307_43)"/>
</g>
</g>
</g>
<defs>
<linearGradient id="paint0_linear_307_43" x1="255.356" y1="17.6107" x2="255.356" y2="494.007" gradientUnits="userSpaceOnUse">
<stop stop-color="#FFF0C2"/>
<stop offset="1" stop-color="#FFEBBA"/>
</linearGradient>
<linearGradient id="paint1_linear_307_43" x1="260.267" y1="79.371" x2="388.782" y2="455.192" gradientUnits="userSpaceOnUse">
<stop stop-color="#FFD147"/>
<stop offset="1" stop-color="#FFB526"/>
</linearGradient>
<linearGradient id="paint2_linear_307_43" x1="254.979" y1="16.8541" x2="369.497" y2="494.771" gradientUnits="userSpaceOnUse">
<stop stop-color="#E58F0D"/>
<stop offset="1" stop-color="#EB7814"/>
</linearGradient>
<clipPath id="clip0_307_43">
<rect width="509" height="496" fill="white" transform="translate(2 9)"/>
</clipPath>
</defs>
</svg>
